<?xml version="1.0" encoding="utf-8"?>
<!-- Generator: Adobe Illustrator 27.5.0, SVG Export Plug-In . SVG Version: 6.00 Build 0)  -->
<svg version="1.1" xmlns="http://www.w3.org/2000/svg" xmlns:xlink="http://www.w3.org/1999/xlink" x="0px" y="0px"
	 viewBox="0 0 500 500" style="enable-background:new 0 0 500 500;" xml:space="preserve">
<g id="BACKGROUND">
	<rect style="fill:#FFFFFF;" width="500" height="500"/>
</g>
<g id="OBJECTS">
	<g>
		<g>
			<path d="M319.593,234.139c-4.743-4.527-8.423-9.997-11.329-15.779c-2.919-5.791-5.141-11.885-7.242-17.985
				c-2.096-6.105-4.079-12.24-6.459-18.207c-2.369-5.961-5.178-11.772-8.852-16.982c-1.824-2.611-3.898-5.032-6.046-7.248
				l-1.588-1.692l-1.67-1.589c-1.128-1.036-2.194-2.14-3.368-3.094c-4.531-4.03-9.316-7.507-14.027-10.793
				c-4.711-3.304-9.517-6.146-14.09-8.952c-4.551-2.855-9.119-5.475-13.613-7.732c-4.492-2.272-8.907-4.264-13.249-5.815
				c-2.146-0.845-4.307-1.443-6.381-2.104c-1.056-0.305-2.127-0.568-3.164-0.844c-1.061-0.182-2.106-0.362-3.135-0.539
				c-1.039-0.096-2.057-0.211-3.061-0.282l-0.754-0.016l-1.021,0.003l-1.07,0.007l-0.527,0.003l-0.131,0.001
				c-0.042,0.003-0.02,0.077-0.033,0.112l-0.029,0.265c-0.103,0.702-0.108,1.394-0.106,2.072c0.101,0.768,0.197,1.185,0.391,1.689
				c0.365,0.961,0.871,1.823,1.469,2.544c1.169,1.481,2.551,2.565,3.883,3.534c1.345,0.956,2.686,1.756,3.975,2.474
				c5.185,2.814,9.467,4.503,12.298,5.852c2.858,1.293,4.264,2.216,4.264,2.216c-1.342-0.987-2.808-1.795-4.267-2.594l-4.406-2.335
				c-2.932-1.55-5.845-3.127-8.566-4.938c-1.355-0.908-2.669-1.871-3.839-2.951c-1.157-1.079-2.223-2.271-2.841-3.599
				c-0.154-0.331-0.286-0.664-0.368-1.005c-0.061-0.168-0.087-0.338-0.107-0.509c-0.014-0.126-0.036-0.188-0.03-0.288
				c-0.001-0.182,0.008-0.357,0.049-0.524l0.023-0.124l0.135,0.012l0.262,0.025c0.21,0.018,0.215,0.027,0.719,0.056
				c0.397,0.018,0.793,0.05,1.188,0.116l2.361,0.331c3.129,0.536,6.089,1.638,9.136,2.699c1.511,0.527,2.966,1.181,4.444,1.759
				c1.472,0.596,2.897,1.3,4.341,1.939c5.723,2.695,11.186,5.768,16.427,9.006c5.209,3.336,10.46,6.486,15.348,9.811
				c4.932,3.292,9.563,6.774,13.891,10.346c1.065,0.912,2.152,1.788,3.18,2.708c1.01,0.938,2.013,1.87,3.008,2.795
				c1.009,0.911,1.887,1.933,2.827,2.881c0.462,0.482,0.921,0.962,1.379,1.441c0.434,0.492,0.865,0.983,1.295,1.472
				c3.37,3.95,6.027,8.277,8.253,12.616c4.418,8.717,7.328,17.349,10.289,24.85c2.911,7.529,5.855,13.989,8.867,18.976
				c1.507,2.492,3.01,4.615,4.386,6.402c1.413,1.762,2.691,3.19,3.783,4.294c0.554,0.543,1.043,1.021,1.465,1.436
				c0.443,0.391,0.816,0.719,1.117,0.983C319.282,233.867,319.593,234.139,319.593,234.139z"/>
		</g>
		<g>
			<path d="M212.054,135.762c-1.395-0.589-2.785-1.125-4.052-1.788c-0.639-0.321-1.303-0.595-1.906-0.934
				c-0.594-0.349-1.18-0.694-1.758-1.035c-0.292-0.167-0.581-0.333-0.869-0.499c-0.271-0.175-0.514-0.362-0.773-0.539
				c-0.492-0.365-0.939-0.746-1.269-1.1l-0.291-0.346c-0.035-0.043-0.046-0.057-0.059-0.099c-0.006-0.037-0.001-0.077,0.02-0.115
				c-0.016-0.016,0.117-0.115,0.271-0.212c0.792-0.425,1.91-0.708,2.947-0.888c1.052-0.187,2.088-0.296,3.066-0.372
				c1.396-0.107,2.674-0.146,3.814-0.145c-0.623-0.191-1.25-0.368-1.887-0.514c-0.818-0.188-1.455-0.756-1.828-1.468
				c-0.044-0.003-0.087-0.012-0.131-0.016c-1.669-0.134-3.347-0.155-5.088,0.098c-0.892,0.167-1.738,0.311-2.802,0.929
				c-1.259,0.676-1.983,2.374-1.406,3.765c0.148,0.303,0.299,0.695,0.448,0.927l0.459,0.635c0.315,0.34,0.635,0.718,0.96,0.985
				c0.324,0.294,0.65,0.576,0.983,0.817c0.33,0.259,0.662,0.504,1,0.694c1.355,0.798,2.652,1.688,4.02,2.242
				c0.674,0.305,1.34,0.606,1.996,0.902c0.661,0.278,1.328,0.489,1.976,0.727c0.651,0.225,1.291,0.446,1.919,0.663
				c0.634,0.18,1.257,0.357,1.867,0.53c4.885,1.348,9.003,2.039,11.872,2.624c2.877,0.574,4.535,0.905,4.535,0.905
				C224.12,140.005,217.648,138.069,212.054,135.762z"/>
		</g>
		<g>
			<path d="M214.089,149.138c0-0.815,0.34-1.563,0.883-2.109c-0.601-0.214-1.194-0.433-1.772-0.664
				c-2.484-0.989-4.847-2.243-5.972-3.773c-0.271-0.376-0.449-0.756-0.562-1.141c-0.042-0.188-0.083-0.429-0.097-0.588
				c-0.016-0.165-0.001-0.281,0.016-0.392c0.043-0.206,0.17-0.425,0.449-0.67c0.286-0.236,0.687-0.453,1.114-0.637
				c1.793-0.713,3.873-0.935,5.641-1.08c0.251-0.018,0.488-0.029,0.731-0.043c-1.174-0.553-2.339-1.124-3.488-1.71
				c-0.279-0.142-0.501-0.313-0.699-0.495c-0.402,0.02-0.806,0.051-1.213,0.099c-0.794,0.097-1.602,0.259-2.426,0.556
				c-0.815,0.302-1.695,0.744-2.436,1.586c-0.371,0.415-0.656,0.946-0.842,1.501c-0.16,0.564-0.208,1.126-0.177,1.625
				c0.044,0.937,0.335,1.874,0.752,2.685c0.899,1.585,2.176,2.636,3.409,3.408c2.338,1.423,4.667,2.146,6.829,2.688
				C214.146,149.713,214.089,149.433,214.089,149.138z"/>
		</g>
		<g>
			<path d="M234.345,148.104c-3.309-1.369-6.753-2.437-10.272-3.136c-1.763-0.344-3.549-0.585-5.399-0.609
				c-0.929,0.001-1.876,0.054-2.88,0.277c-0.251,0.057-0.502,0.115-0.767,0.216c-0.259,0.085-0.521,0.184-0.794,0.336
				c-0.53,0.247-1.099,0.706-1.544,1.309c-0.416,0.636-0.658,1.439-0.629,2.104l0.013,0.508l0.081,0.443
				c0.053,0.305,0.128,0.585,0.226,0.823c0.356,1.019,0.824,1.794,1.389,2.605c1.161,1.547,2.665,2.686,4.181,3.49
				c3.071,1.575,6.131,2.114,8.881,2.468c5.525,0.605,10.037,0.377,13.193,0.481c3.156,0.035,4.957,0.385,4.957,0.384
				c-1.658-0.762-3.457-1.221-5.229-1.612c-1.778-0.383-3.554-0.681-5.302-0.967c-3.493-0.569-6.895-1.086-9.994-1.922
				c-3.086-0.821-5.883-2.051-7.574-3.934c-0.408-0.479-0.79-0.96-1.06-1.517c-0.313-0.539-0.476-1.046-0.477-1.298
				c0.007-0.239-0.039-0.274,0.255-0.531c0.294-0.225,0.821-0.422,1.36-0.562c1.113-0.274,2.345-0.371,3.514-0.406
				c1.176-0.033,2.313-0.003,3.385,0.044c2.145,0.098,4.033,0.273,5.588,0.43C232.558,147.849,234.345,148.104,234.345,148.104z"/>
		</g>
		<g>
			<path d="M241.23,167.067c-1.481-0.507-3.02-0.974-4.598-1.307c-1.567-0.309-3.061-0.512-4.497-0.745
				c-2.85-0.456-5.544-1.018-7.42-2.198c-0.237-0.142-0.432-0.314-0.654-0.463l-0.556-0.517c-0.382-0.429-0.74-0.861-1.017-1.289
				c-0.276-0.424-0.46-0.831-0.55-1.16c-0.06-0.323-0.052-0.526,0.054-0.771c0.184-0.468,0.909-0.992,1.7-1.352
				c-0.256-0.105-0.512-0.222-0.768-0.354c-0.783-0.403-1.216-0.986-1.4-1.621c-0.07,0.033-0.141,0.061-0.212,0.098
				c-0.823,0.436-1.746,1.162-2.223,2.327c-0.484,1.167-0.308,2.415,0.025,3.315c0.33,0.944,0.813,1.664,1.304,2.345
				c0.273,0.328,0.473,0.649,0.811,0.973c0.317,0.325,0.639,0.645,0.988,0.895c1.378,1.071,2.89,1.678,4.318,2.088
				c2.877,0.794,5.534,0.909,7.899,1.077c1.191,0.074,2.271,0.147,3.31,0.296c1.045,0.135,2.058,0.301,3.019,0.455
				c1.921,0.307,3.634,0.564,5.062,0.653c0.709,0.064,1.349,0.079,1.905,0.072c0.554,0.011,1.023-0.004,1.406-0.049
				c0.755-0.069,1.16-0.107,1.16-0.107C247.111,169.198,244.215,168.082,241.23,167.067z"/>
		</g>
		<g>
			<path d="M257.821,177.414c-1.665-0.354-3.331-0.619-4.975-0.855c-3.288-0.47-6.498-0.826-9.528-1.304
				c-3.02-0.48-5.901-1.061-8.292-2.066c-1.189-0.504-2.236-1.121-3.034-1.864c-0.78-0.722-1.414-1.677-1.524-2.354
				c-0.052-0.329-0.035-0.497,0.104-0.739c0.143-0.239,0.473-0.508,0.871-0.724c0.186-0.104,0.385-0.194,0.59-0.28
				c-1.132-0.311-1.746-1.081-1.935-1.97c-0.55,0.241-1.103,0.568-1.619,1.096c-0.429,0.46-0.765,1.074-0.918,1.727
				c-0.126,0.639-0.115,1.284,0.007,1.815c0.231,1.093,0.7,1.982,1.263,2.745c1.12,1.575,2.654,2.625,4.15,3.372
				c1.51,0.752,3.036,1.23,4.514,1.586c2.963,0.702,5.758,0.92,8.317,1.044c5.119,0.199,9.32-0.039,12.265-0.008
				c2.944-0.02,4.626,0.312,4.626,0.311C261.168,178.204,259.479,177.771,257.821,177.414z"/>
		</g>
		<g>
			<path d="M250.992,183.287c-2.556-0.597-5.052-1.166-7.345-1.852c-1.141-0.345-2.237-0.724-3.176-1.174
				c-0.917-0.429-1.747-1.028-1.886-1.387c-0.077-0.179-0.145-0.249-0.079-0.504c-0.017-0.108,0.093-0.248,0.108-0.383
				c0.083-0.126,0.181-0.248,0.256-0.386c0.289-0.369,0.722-0.703,1.213-0.997c-1.285-0.109-2.224-0.99-2.65-2.047
				c-0.06,0.042-0.123,0.07-0.182,0.114c-1.272,0.95-2.546,2.691-2.052,4.882c0.247,1.04,0.877,1.835,1.466,2.341
				c0.602,0.55,1.216,0.899,1.814,1.214c2.397,1.155,4.626,1.531,6.683,1.852c4.11,0.562,7.514,0.504,9.896,0.462
				c1.188-0.036,2.124-0.065,2.765-0.085c0.639-0.008,0.982-0.013,0.982-0.013C256.204,184.443,253.544,183.904,250.992,183.287z"/>
		</g>
		<g>
			<path d="M252.905,189.955c-1.374-0.266-2.739-0.529-4.091-0.79c-2.686-0.51-5.317-0.995-7.693-1.659
				c-1.175-0.335-2.298-0.737-3.142-1.22c-0.4-0.24-0.72-0.507-0.853-0.688c-0.107-0.184-0.11-0.188-0.085-0.416
				c-0.003-0.091-0.001-0.023-0.002-0.065c0.031-0.05,0.134-0.15,0.272-0.255c0.295-0.213,0.725-0.424,1.167-0.609
				c0.912-0.366,1.909-0.651,2.879-0.897c0.342-0.082,0.676-0.158,1.01-0.235c-0.757-0.549-1.262-1.434-1.262-2.424
				c0-0.105,0.021-0.206,0.032-0.309c-0.936,0.123-1.87,0.273-2.804,0.494c-0.692,0.177-1.388,0.391-2.114,0.737
				c-0.705,0.375-1.53,0.753-2.209,1.91c-0.133,0.281-0.271,0.579-0.313,0.854c-0.05,0.276-0.113,0.504-0.115,0.786
				c0.004,0.278,0.01,0.561,0.051,0.835c0.065,0.273,0.145,0.546,0.237,0.81c0.454,1.027,1.172,1.625,1.811,2.076
				c1.312,0.856,2.554,1.228,3.735,1.533c1.183,0.29,2.312,0.462,3.392,0.589c4.315,0.466,7.852,0.266,10.331,0.151
				c1.234-0.068,2.208-0.122,2.873-0.158c0.663-0.032,1.02-0.007,1.02-0.007C255.688,190.504,254.276,190.253,252.905,189.955z"/>
		</g>
		<g>
			<path d="M250.077,201.318c-3.477,0.581-6.738,0.781-9.79,0.113c-1.373-0.297-2.721-0.915-3.793-1.722
				c-0.535-0.398-1.008-0.843-1.326-1.306c-0.353-0.457-0.537-0.915-0.586-1.339c-0.091-0.424,0.023-0.848,0.199-1.307
				c0.143-0.224,0.193-0.466,0.398-0.688l0.253-0.342c0.059-0.095,0.072-0.105,0.193-0.2c0.843-0.73,2.013-1.365,3.178-1.847
				c2.149-0.927,4.311-1.53,6.266-2.02c-0.279-0.178-0.523-0.402-0.735-0.651c-0.431,0.246-0.923,0.394-1.449,0.394
				c-0.991,0-1.877-0.506-2.426-1.265c-0.201,0.045-0.402,0.084-0.603,0.133c-1.755,0.441-3.488,0.986-5.175,1.948
				c-0.422,0.21-0.839,0.545-1.249,0.852c-0.267,0.162-0.498,0.486-0.641,0.652l-0.485,0.598c-0.571,0.885-1.113,1.916-1.161,3.123
				c-0.078,1.164,0.211,2.37,0.759,3.261c0.525,0.914,1.186,1.664,1.9,2.244c1.42,1.198,2.991,1.928,4.613,2.375
				c0.401,0.125,0.82,0.184,1.227,0.262c0.396,0.059,0.767,0.09,1.146,0.133c0.749,0.092,1.506,0.085,2.231,0.089
				c2.929-0.066,5.466-0.752,7.598-1.418c2.138-0.678,3.932-1.322,5.447-1.761c1.509-0.46,2.727-0.697,3.567-0.86
				c0.846-0.131,1.299-0.201,1.299-0.201C257.29,200.056,253.528,200.765,250.077,201.318z"/>
		</g>
		<g>
			<path d="M248.933,212.186c-2.847,1.112-5.695,2.176-8.312,2.576c-1.287,0.204-2.533,0.148-3.174-0.219
				c-0.305-0.194-0.539-0.378-0.709-0.739c-0.095-0.166-0.152-0.395-0.231-0.601c-0.033-0.254-0.111-0.477-0.13-0.748
				c-0.011-0.275-0.046-0.54-0.048-0.82c0.009-0.288,0.019-0.573,0.028-0.856c0.084-0.507,0.108-0.961,0.316-1.43
				c0.316-0.933,0.899-1.821,1.605-2.604c0.913-1.043,1.964-1.927,3.018-2.705c-0.902-0.216-1.653-0.845-2.04-1.673
				c-0.538,0.315-1.069,0.646-1.583,1.013c-1.331,0.938-2.567,2.133-3.485,3.642c-0.251,0.358-0.43,0.773-0.602,1.192l-0.257,0.625
				l-0.157,0.672c-0.106,0.452-0.199,0.905-0.206,1.298c-0.018,0.413-0.08,0.803-0.045,1.234c0.025,0.837,0.1,1.706,0.437,2.607
				c0.276,0.888,0.909,1.809,1.723,2.433c0.823,0.668,1.775,0.911,2.619,1.06c0.844,0.102,1.642,0.092,2.362-0.017
				c1.459-0.192,2.726-0.599,3.899-1.04c4.634-1.856,7.888-4.209,10.201-5.797c1.133-0.82,2.026-1.466,2.636-1.907
				c0.615-0.431,0.945-0.661,0.945-0.661C254.69,209.741,251.801,211.081,248.933,212.186z"/>
		</g>
		<g>
			<path d="M254.102,216.59c-1.157,0.676-2.307,1.348-3.444,2.012c-2.253,1.331-4.444,2.646-6.563,3.667
				c-1.05,0.5-2.109,0.943-3.02,1.124c-0.465,0.117-0.846,0.103-1.112,0.077c-0.278-0.035-0.313-0.096-0.445-0.222
				c-0.071-0.035-0.117-0.19-0.196-0.292c-0.054-0.163-0.135-0.365-0.173-0.532c-0.026-0.169-0.063-0.334-0.11-0.501
				c0.007-0.172,0.02-0.342,0.015-0.516c0.094-0.718,0.372-1.533,0.822-2.299c0.404-0.733,0.884-1.422,1.384-2.075
				c-0.165,0.029-0.333,0.053-0.507,0.053c-0.881,0-1.675-0.404-2.229-1.025c-0.978,1.045-1.836,2.253-2.427,3.776
				c-0.272,0.73-0.415,1.602-0.366,2.448c0.058,0.416,0.093,0.863,0.207,1.246c0.107,0.381,0.214,0.761,0.457,1.19
				c0.412,0.818,1.264,1.66,2.234,1.964c0.942,0.311,1.802,0.284,2.536,0.182c1.457-0.242,2.579-0.771,3.623-1.303
				c1.035-0.543,1.957-1.137,2.807-1.737c3.385-2.417,5.776-4.82,7.473-6.48c0.839-0.833,1.501-1.491,1.953-1.939
				c0.456-0.441,0.723-0.658,0.723-0.658C256.462,215.242,255.277,215.938,254.102,216.59z"/>
		</g>
		<g>
			<path d="M255.803,228.099c-3.229,1.8-6.489,3.404-9.688,4.294c-1.591,0.421-3.172,0.694-4.604,0.575
				c-0.727-0.021-1.386-0.201-2.024-0.389c-0.283-0.131-0.655-0.242-0.861-0.382c0.023,0.02,0.024,0.025,0.01,0.021
				c-0.013,0.001-0.011-0.005-0.016-0.013c0-0.007-0.006-0.004-0.001-0.021l0.232-0.438c0.323-0.653,0.713-1.278,1.092-1.896
				c0.79-1.224,1.624-2.388,2.491-3.469c0.245-0.307,0.489-0.596,0.733-0.893c-0.272,0.079-0.563,0.136-0.891,0.136
				c-1.023,0-1.768-0.426-2.25-1.043c-0.709,0.77-1.393,1.561-2.031,2.39c-0.583,0.726-1.098,1.514-1.613,2.289
				c-0.235,0.41-0.469,0.819-0.702,1.226c-0.114,0.17-0.317,0.658-0.478,1.022l-0.507,1.162l-0.252,0.58l-0.063,0.145
				c-0.034,0.052,0.063,0.067,0.088,0.104l0.253,0.186l1.012,0.741c0.336,0.247,0.719,0.462,1.075,0.693
				c0.211,0.136,0.294,0.176,0.41,0.24c0.11,0.067,0.231,0.11,0.348,0.161c0.932,0.429,1.914,0.662,2.871,0.796
				c1.923,0.233,3.721-0.041,5.341-0.461c1.624-0.433,3.09-1.04,4.436-1.7c2.689-1.331,4.917-2.862,6.813-4.298
				c1.893-1.439,3.445-2.8,4.697-3.945c1.25-1.146,2.195-2.085,2.838-2.727c0.638-0.646,0.979-0.992,0.979-0.992
				C262.26,224.225,259.042,226.292,255.803,228.099z"/>
		</g>
		<g>
			<path d="M253.136,240.23c-3.379,1.081-6.708,2.108-9.897,2.791c-1.585,0.332-3.16,0.576-4.532,0.557
				c-0.66-0.028-1.269-0.143-1.583-0.302c-0.049-0.049-0.136-0.071-0.175-0.107c-0.014-0.047-0.06-0.059-0.089-0.091
				c-0.004-0.051-0.029-0.078-0.065-0.117c-0.002-0.078-0.017-0.149-0.044-0.222c-0.025-0.07,0.006-0.23-0.004-0.307l-0.014-0.026
				c-0.008,0.001,0.021-0.026,0.072-0.127l0.253-0.33c0.402-0.474,0.895-0.971,1.405-1.447c1.017-0.96,2.085-1.871,3.104-2.762
				c0.856-0.753,1.683-1.477,2.48-2.244c-1.13-0.121-1.881-0.78-2.253-1.631c-0.136,0.101-0.271,0.207-0.408,0.305
				c-1.386,1.008-2.8,2.02-4.162,3.101c-0.682,0.55-1.354,1.103-2.015,1.736c-0.331,0.328-0.659,0.654-0.993,1.073
				c-0.08,0.092-0.165,0.201-0.254,0.342c-0.083,0.117-0.178,0.286-0.274,0.455c-0.093,0.168-0.148,0.375-0.223,0.561
				c-0.088,0.189-0.119,0.383-0.126,0.582l-0.017,0.296l-0.006,0.219l-0.003,0.435c0.043,0.319,0.11,0.647,0.185,0.965
				c0.08,0.318,0.276,0.654,0.438,0.965c0.169,0.313,0.447,0.559,0.689,0.817c1.081,0.932,2.21,1.115,3.158,1.237
				c1.901,0.142,3.501-0.161,5.017-0.499c1.508-0.353,2.907-0.798,4.227-1.265c5.251-1.924,9.293-4.142,12.096-5.744
				c2.793-1.62,4.29-2.718,4.29-2.718C259.974,237.993,256.514,239.126,253.136,240.23z"/>
		</g>
		<g>
			<path d="M258.017,248.42c-3.226,3.28-6.6,6.314-10.183,8.479c-1.789,1.067-3.645,1.86-5.454,2.216
				c-1.812,0.349-3.535,0.14-5.067-0.528c-0.365-0.216-0.752-0.376-1.103-0.617l-0.522-0.367c-0.186-0.12-0.347-0.241-0.458-0.36
				c-0.543-0.469-0.855-0.958-0.975-1.521c-0.24-1.146,0.365-2.739,1.215-4.09c1.284-2.053,2.901-3.832,4.488-5.402
				c-0.488-0.131-0.95-0.372-1.327-0.749c-0.234-0.233-0.408-0.504-0.547-0.788c-1.137,0.939-2.233,1.934-3.259,3.02
				c-0.814,0.878-1.582,1.818-2.259,2.865c-0.669,1.047-1.265,2.223-1.521,3.635c-0.282,1.391,0.016,3.112,0.888,4.349
				c0.414,0.631,0.938,1.13,1.444,1.558c0.51,0.355,0.966,0.77,1.526,1.056c2.137,1.287,4.755,1.802,7.075,1.466
				c2.336-0.289,4.39-1.148,6.175-2.156c1.79-1.02,3.341-2.204,4.736-3.417c2.786-2.434,4.97-4.972,6.788-7.289
				c1.804-2.331,3.24-4.453,4.358-6.238c1.12-1.785,1.933-3.227,2.473-4.217c0.525-0.997,0.806-1.53,0.806-1.53
				C264.34,241.53,261.235,245.114,258.017,248.42z"/>
		</g>
		<g>
			<path d="M262.053,263.556c-3.624,1.097-7.203,2.075-10.66,2.745c-1.726,0.331-3.424,0.581-5.048,0.675
				c-1.618,0.093-3.18,0.021-4.465-0.331c-0.615-0.204-1.169-0.448-1.576-0.776c-0.365-0.311-0.753-0.8-0.983-1.272
				c-0.418-0.938-0.39-2.042,0.067-3.198c0.017-0.046,0.04-0.091,0.059-0.136c-0.124,0.016-0.245,0.038-0.373,0.038h-0.152
				c-0.901,0-1.71-0.423-2.264-1.068c-0.09,0.192-0.198,0.368-0.277,0.57c-0.4,1.018-0.639,2.206-0.497,3.425
				c0.133,1.217,0.654,2.378,1.34,3.267c0.75,0.978,1.768,1.669,2.77,2.107c2.03,0.823,3.976,0.912,5.762,0.84
				c3.586-0.185,6.738-1.033,9.579-1.936c5.669-1.857,10.068-4.117,13.08-5.805c3.013-1.696,4.571-2.93,4.571-2.93
				C269.372,261.267,265.671,262.43,262.053,263.556z"/>
		</g>
		<g>
			<path d="M335.628,223.385c0.342-0.17,0.699-0.262,1.063-0.281c-0.206-0.534-0.399-1.072-0.576-1.615
				c-1.293-4.022-1.89-8.234-2.217-12.418c-0.317-4.191-0.335-8.381-0.19-12.518c0.075-2.07,0.188-4.121,0.344-6.169
				c0.153-2.07,0.25-4.161,0.314-6.218c0.105-4.127-0.011-8.231-0.53-12.244c-0.506-4.01-1.452-7.931-2.945-11.555
				c-1.479-3.632-3.471-6.929-5.849-9.784l-0.889-1.069l-0.965-0.98c-0.645-0.626-1.281-1.239-1.939-1.82
				c-1.309-1.169-2.637-2.266-4.007-3.258c-2.713-2.011-5.572-3.645-8.505-4.785c-1.488-0.522-2.969-0.987-4.491-1.158
				c-0.761-0.14-1.48-0.122-2.289-0.152c-0.504,0.005-1.09,0.079-1.616,0.114c-0.481,0.098-1.293-0.132-1.068,0.629
				c-0.005,0.532-0.01,1.06-0.016,1.584c-0.033,0.565,0.055,0.939,0.116,1.276c0.065,0.352,0.13,0.7,0.194,1.046
				c0.121,0.329,0.24,0.654,0.358,0.977c0.472,1.291,1.233,2.362,1.993,3.316c1.585,1.873,3.386,3.148,5.021,4.208
				c3.303,2.087,6.076,3.318,7.909,4.27c1.846,0.926,2.803,1.479,2.803,1.479c-3.583-2.529-7.511-4.579-10.829-7.289
				c-1.649-1.346-3.163-2.85-4.198-4.575c-0.283-0.417-0.441-0.89-0.671-1.324c-0.204-0.446-0.288-0.928-0.444-1.382
				c-0.106-0.46-0.12-0.964-0.188-1.401c-0.013-0.295,0.036-0.424,0.049-0.62l0.008-0.065c0.019-0.006,0.049-0.001,0.072-0.002
				l0.148,0.003l0.277,0.006l1.277,0.117c0.485,0.075,0.969,0.19,1.452,0.278c0.48,0.123,0.955,0.281,1.431,0.416
				c1.892,0.638,3.701,1.563,5.42,2.623c3.435,2.134,6.548,4.78,9.31,7.621c2.642,2.811,4.768,6.064,6.313,9.479
				c1.528,3.431,2.506,7.02,3.112,10.593c1.196,7.171,1.025,14.192,0.783,20.689c-0.213,6.591,0.07,12.652,0.806,17.973
				c0.748,5.316,1.968,9.896,3.577,13.425C335.444,223.018,335.537,223.196,335.628,223.385z"/>
		</g>
		<g>
			<path d="M308.568,155.867c-1.431-1.123-2.775-2.215-3.931-3.29c-0.571-0.54-1.091-1.077-1.522-1.605
				c-0.22-0.263-0.408-0.526-0.569-0.78c-0.086-0.149-0.146-0.226-0.154-0.219c-0.021-0.02-0.049-0.043-0.071-0.072
				c-0.089-0.103-0.24-0.376-0.047-0.424c0.069-0.056,0.139-0.094,0.234-0.142c0.163-0.063,0.539-0.109,0.793-0.143
				c0.71-0.102,1.384-0.149,2.009-0.18c-0.395-0.479-0.613-1.085-0.669-1.711c-0.445-0.102-0.896-0.193-1.365-0.251
				c-0.265-0.029-0.526-0.077-0.798-0.075c-0.313,0.001-0.809,0.039-1.221,0.062c-0.436,0.025-0.787,0.152-1.193,0.231
				c-0.353,0.125-0.958,0.053-0.84,0.579l-0.105,1.179c0.02,0.402,0.042,0.827,0.151,1.249c0.117,0.404,0.247,0.911,0.39,1.183
				c0.113,0.277,0.243,0.532,0.382,0.772c1.12,1.936,2.577,3.245,3.98,4.385c1.419,1.12,2.842,2.018,4.188,2.77
				c2.695,1.501,5.077,2.441,6.759,3.061c1.686,0.611,2.681,0.904,2.681,0.904C314.636,160.513,311.424,158.126,308.568,155.867z"/>
		</g>
		<g>
			<path d="M291.009,158.017c-0.765-0.435-1.524-0.867-2.278-1.296c-0.714-0.424-1.392-0.896-2.059-1.383
				c-1.306-0.971-2.582-2.048-3.375-3.103c-0.189-0.255-0.349-0.513-0.416-0.694c-0.037-0.107-0.049-0.138-0.053-0.145h0
				c0,0.001,0,0.005-0.001,0c-0.008,0.001-0.015-0.001,0.036-0.027c0.061-0.069,0.327-0.197,0.577-0.293
				c0.146-0.044,0.276-0.099,0.434-0.138c0.156-0.035,0.345-0.093,0.366-0.088c0.3-0.011,0.599-0.022,0.896-0.034
				c0.324-0.002,0.692,0.048,1.033,0.067c0.343,0.018,0.693,0.052,1.052,0.111c1.414,0.178,2.82,0.44,4.177,0.694
				c2.719,0.482,5.242,1.072,7.64,1.15c0.55,0.027,1.082,0.052,1.596,0.078c0.181,0.01,0.352,0.039,0.525,0.064
				c-0.059-0.231-0.099-0.469-0.099-0.717c0-0.387,0.082-0.756,0.22-1.098c-0.671-0.184-1.347-0.347-2.027-0.459
				c-1.684-0.27-3.381-0.879-5.098-1.348c-1.708-0.503-3.443-0.974-5.188-1.37c-0.899-0.168-1.759-0.37-2.708-0.454
				c-0.462-0.055-0.915-0.118-1.446-0.094l-0.765,0.011c-0.156,0.011-0.286-0.014-0.487,0.046l-0.398,0.09
				c-0.482,0.109-0.989,0.274-1.509,0.507c-0.514,0.257-1.131,0.605-1.655,1.3c-0.495,0.654-0.7,1.49-0.61,2.292
				c0.103,0.861,0.376,1.355,0.646,1.833c1.135,1.792,2.46,2.767,3.75,3.742c1.292,0.922,2.635,1.748,3.957,2.341
				c1.302,0.589,2.551,1.154,3.74,1.692c1.207,0.478,2.366,0.887,3.45,1.283c2.167,0.799,4.094,1.333,5.67,1.829
				c3.156,0.944,4.997,1.422,4.997,1.422c-3.274-1.858-6.637-3.546-9.864-5.237C294.125,159.737,292.512,158.936,291.009,158.017z"
				/>
		</g>
		<g>
			<path d="M280.973,152.593c0-0.521,0.15-1.008,0.392-1.439c-0.96-0.33-1.935-0.601-2.927-0.787
				c-3.275-0.641-6.691-0.262-9.227,0.914c1.029,0.785,2.029,1.604,2.985,2.473c1.127-0.168,2.231-0.264,3.315-0.255
				c1.346-0.03,2.652,0.058,3.878,0.153c0.62,0.055,1.219,0.112,1.793,0.171c-0.13-0.333-0.209-0.691-0.209-1.066V152.593z"/>
		</g>
		<g>
			<path d="M306.735,138.965c0.275,0.194,0.555,0.384,0.834,0.572c-5.659-6.325-11.948-12.102-18.274-17.593
				c-4.376-3.801-8.775-7.496-13.015-11.26c-4.266-3.758-8.484-7.474-12.638-11.133c-8.33-7.312-16.646-14.237-25.198-19.992
				c-1.079-0.704-2.151-1.403-3.216-2.098c-1.061-0.699-2.117-1.39-3.227-1.996c-1.093-0.626-2.178-1.249-3.255-1.866
				c-1.043-0.589-2.078-1.174-3.104-1.754c-4.045-2.443-8.026-4.978-11.993-7.118c-1.987-1.076-3.967-2.086-5.985-2.953
				c-2.027-0.851-4.052-1.631-6.274-1.973c-1.109-0.15-2.293-0.235-3.554,0.172c-0.314,0.109-0.624,0.22-0.917,0.43
				c-0.148,0.094-0.295,0.188-0.435,0.289l-0.372,0.377c-0.265,0.246-0.423,0.54-0.587,0.832c-0.19,0.303-0.25,0.558-0.352,0.828
				c-0.407,1.063-0.49,2.214-0.398,3.268l0.091,0.788l0.174,0.752c0.099,0.508,0.298,0.961,0.454,1.431
				c1.488,3.641,3.881,6.249,6.077,8.551c0.833,0.851,1.661,1.629,2.483,2.377c0.511-0.303,1.112-0.427,1.751-0.298
				c-1.415-1.4-2.776-2.841-4.023-4.356c-1.823-2.215-3.477-4.614-4.322-7.154c-0.412-1.262-0.564-2.55-0.31-3.701l0.092-0.431
				l0.166-0.41c0.057-0.128,0.102-0.293,0.164-0.392c0.064-0.088,0.121-0.178,0.172-0.272c0.253-0.301,0.587-0.483,1.073-0.594
				c1.015-0.174,2.348,0.054,3.616,0.439c1.283,0.387,2.563,0.917,3.821,1.495c5.042,2.356,9.775,5.401,14.44,8.38
				c1.172,0.749,2.329,1.499,3.547,2.238c1.326,0.752,2.42,1.401,3.587,2.092c1.155,0.679,2.304,1.355,3.447,2.027
				c1.129,0.703,2.224,1.462,3.329,2.183c1.097,0.735,2.205,1.438,3.279,2.184c1.059,0.768,2.113,1.532,3.16,2.291
				c2.115,1.485,4.128,3.069,6.124,4.619c7.965,6.217,15.217,12.521,22.033,18.202c6.786,5.73,13.178,10.807,18.832,15.243
				c2.795,2.256,5.454,4.324,7.817,6.335c1.188,1,2.352,1.934,3.423,2.869c1.063,0.945,2.078,1.846,3.04,2.7
				c1.15,0.98,2.164,1.948,3.105,2.865C305.841,138.493,306.285,138.648,306.735,138.965z"/>
		</g>
		<g>
			<path d="M264.799,108.597c-3.912-2.418-8.033-4.429-11.975-6.547c-3.949-2.151-7.938-4.233-11.863-6.293
				c-3.866-2.129-7.689-4.234-11.453-6.307c-1.928-1.019-3.898-2.011-5.826-2.996c-1.959-0.867-3.9-1.726-5.821-2.577
				c-1.913-0.81-3.807-1.611-5.678-2.404c-1.845-0.818-3.668-1.627-5.468-2.425c-3.726-1.758-7.547-2.893-11.193-3.877
				c-3.657-0.973-7.16-1.783-10.461-2.725c-0.827-0.251-1.645-0.499-2.455-0.745c-0.817-0.228-1.496-0.469-2.33-0.77
				c-0.834-0.267-1.649-0.614-2.838-0.637c-0.279-0.014-0.639,0.039-0.987,0.124c-0.332,0.115-0.663,0.245-0.932,0.471
				c-0.293,0.191-0.498,0.488-0.703,0.756c-0.139,0.266-0.333,0.602-0.38,0.829c-0.131,0.439-0.306,1.092-0.227,1.655
				c0.036,0.579,0.204,1.061,0.384,1.498c0.375,0.871,0.863,1.565,1.364,2.209c1.019,1.267,2.124,2.306,3.249,3.25
				c1.125,0.92,2.235,1.739,3.301,2.569c1.09,0.79,2.215,1.462,3.262,2.138c1.098,0.592,2.133,1.19,3.151,1.698
				c0.044,0.021,0.085,0.041,0.128,0.061c0.12-0.44,0.332-0.866,0.632-1.239c-1.378-0.815-2.721-1.671-3.993-2.609
				c-1.845-1.277-3.492-2.836-5.16-4.308c-0.797-0.751-1.545-1.549-2.206-2.374c-0.658-0.816-1.231-1.71-1.477-2.499
				c-0.108-0.397-0.124-0.668-0.046-0.909c0.14-0.462,0.205-0.536,0.312-0.579c0.043-0.039,0.106-0.038,0.159-0.041
				c0.05,0.004,0.132,0.013,0.196,0.011l0.268,0.044c0.394,0.082,0.866,0.248,1.354,0.436l1.569,0.618l1.625,0.56
				c1.059,0.354,2.098,0.739,3.172,1.046c2.132,0.663,4.255,1.239,6.334,1.821c4.163,1.152,8.17,2.329,11.872,3.927
				c1.895,0.844,3.77,1.678,5.622,2.502c1.881,0.862,3.739,1.613,5.573,2.377c1.847,0.753,3.613,1.526,5.37,2.276
				c1.781,0.718,3.433,1.553,5.073,2.354c0.823,0.401,1.639,0.799,2.447,1.194c0.819,0.422,1.63,0.841,2.434,1.256
				c1.609,0.826,3.188,1.636,4.734,2.43c1.549,0.784,3.058,1.58,4.549,2.298c1.496,0.705,2.958,1.394,4.383,2.065
				c2.856,1.338,5.564,2.607,8.109,3.8c5.144,2.35,9.621,4.223,13.147,6.123c3.524,1.883,6.11,3.693,7.703,5.131
				c0.786,0.729,1.382,1.3,1.738,1.728c0.376,0.413,0.569,0.626,0.569,0.626C272.525,113.811,268.677,111.011,264.799,108.597z"/>
		</g>
		<g>
			<path d="M255.708,111.534c-0.953-0.456-1.904-0.91-2.854-1.363c-0.95-0.444-1.898-0.886-2.8-1.4
				c-1.825-0.999-3.654-1.938-5.452-2.955c-3.6-2.063-7.159-4.104-10.664-6.113c-3.54-1.979-7.045-3.899-10.563-5.706
				c-0.866-0.47-1.753-0.893-2.646-1.292c-0.888-0.408-1.771-0.813-2.65-1.217c-1.742-0.841-3.535-1.506-5.283-2.212
				c-0.877-0.345-1.749-0.688-2.614-1.029c-0.884-0.3-1.763-0.598-2.634-0.894c-1.738-0.596-3.48-1.177-5.127-1.65
				c-1.675-0.51-3.355-1.021-5.057-1.438c-1.714-0.398-3.417-0.772-5.33-0.731c-0.945,0.053-2.052,0.163-3.14,0.981
				c-0.528,0.435-0.929,1.057-1.103,1.673c-0.088,0.301-0.12,0.594-0.153,0.882c0.001,0.266-0.005,0.544,0.018,0.796
				c0.267,1.975,1.027,3.38,1.808,4.767c1.624,2.746,3.719,4.882,5.848,6.608c0.994,0.81,2.004,1.514,3.009,2.153
				c0.149-0.67,0.508-1.251,1.086-1.59c-0.97-0.721-1.913-1.467-2.796-2.266c-1.492-1.413-2.857-2.925-3.95-4.588
				c-0.275-0.412-0.494-0.852-0.745-1.273c-0.259-0.416-0.468-0.857-0.662-1.305c-0.38-0.883-0.703-1.807-0.777-2.569
				c-0.05-0.384,0.001-0.689,0.073-0.822c0.071-0.135,0.111-0.172,0.322-0.274c0.439-0.2,1.381-0.217,2.265-0.11
				c1.833,0.225,3.763,0.793,5.655,1.381c0.959,0.311,1.914,0.621,2.864,0.929c0.972,0.316,1.937,0.606,2.846,0.949
				c1.841,0.677,3.688,1.26,5.475,1.98c1.784,0.729,3.549,1.449,5.293,2.161c1.714,0.781,3.407,1.552,5.077,2.313
				c6.571,3.258,12.757,6.614,18.481,9.657c2.884,1.509,5.64,2.96,8.362,4.212c1.356,0.617,2.64,1.318,3.956,1.811
				c1.298,0.528,2.559,1.041,3.781,1.538c4.862,1.979,9.036,3.809,12.368,5.539c3.317,1.749,5.82,3.326,7.46,4.497
				c1.621,1.206,2.485,1.85,2.485,1.85C271.122,119.37,263.329,115.177,255.708,111.534z"/>
		</g>
		<g>
			<path d="M271.213,127.189c-10.465-6.135-21.564-11.445-32.265-15.768c-5.343-2.226-10.53-4.315-15.523-6.273
				c-2.437-0.922-4.808-2.064-7.206-3.023c-2.385-0.976-4.743-1.861-7.1-2.57c-2.373-0.677-4.684-1.308-7.251-1.232
				c-0.638,0.022-1.321,0.123-2.021,0.381c-0.35,0.12-0.707,0.327-1.041,0.561c-0.159,0.138-0.314,0.281-0.461,0.427
				c-0.125,0.136-0.206,0.254-0.31,0.383c-0.804,0.986-1.311,2.352-1.267,3.62c0.025,1.275,0.459,2.376,0.969,3.294
				c0.52,0.924,1.133,1.703,1.759,2.407c1.264,1.397,2.597,2.482,3.865,3.409c2.545,1.844,4.845,3.052,6.64,3.876
				c1.798,0.823,3.116,1.219,3.774,1.331l-0.019-0.011c0.374,0.351,0.719,0.314,0.874,0.332c0.169-0.005,0.219-0.006,0.219-0.006
				c-0.392-0.008-0.771-0.132-1.003-0.415l-0.009-0.011l-0.03-0.011c-1.512-0.558-2.902-1.41-4.255-2.275
				c-1.351-0.876-2.648-1.825-3.881-2.832c-1.234-1.003-2.402-2.074-3.446-3.216c-1.044-1.135-1.962-2.371-2.54-3.645
				c-0.579-1.286-0.655-2.53-0.124-3.48c0.162-0.234,0.294-0.476,0.523-0.699c0.103-0.12,0.212-0.241,0.258-0.257
				c0.045-0.057,0.14-0.083,0.214-0.127c0.337-0.169,0.981-0.229,1.625-0.202c1.331,0.072,2.777,0.419,4.184,0.827
				c1.413,0.422,2.815,0.921,4.199,1.453c2.77,1.071,5.455,2.268,8.111,3.459c0.669,0.297,1.325,0.594,2.032,0.888
				c0.675,0.268,1.347,0.534,2.014,0.798c1.328,0.518,2.639,1.029,3.932,1.533c5.182,2.006,10.081,3.845,14.61,5.505
				c4.551,1.625,8.655,3.228,12.32,4.598c1.836,0.68,3.553,1.316,5.14,1.905c1.562,0.646,2.996,1.239,4.292,1.775
				C268.207,126.028,271.213,127.189,271.213,127.189z"/>
		</g>
		<g>
			<g>
				<path d="M272.344,135.535c-0.937-0.399-1.9-0.68-2.86-0.976c-0.963-0.291-1.922-0.581-2.879-0.87
					c-1.918-0.591-3.834-1.072-5.732-1.534c-1.897-0.453-3.771-0.901-5.616-1.342c-1.84-0.422-3.651-0.838-5.425-1.245
					c-1.775-0.433-3.512-0.857-5.205-1.271c-3.391-0.798-6.602-1.555-9.572-2.254c-0.744-0.168-1.473-0.332-2.187-0.493
					c-0.708-0.177-1.399-0.35-2.074-0.518c-0.912-0.221-1.78-0.431-2.628-0.636c3.13,1.566,6.209,3.219,9.238,4.953
					c0.106,0.031,0.217,0.065,0.323,0.095c3.673,1.077,7.262,1.922,10.663,2.742c1.693,0.425,3.388,0.703,5.003,1.029
					c1.62,0.308,3.193,0.607,4.686,0.857c1.499,0.249,2.935,0.487,4.301,0.713c1.374,0.204,2.653,0.453,3.863,0.669
					c1.212,0.212,2.347,0.41,3.396,0.594c0.524,0.094,1.034,0.163,1.51,0.265c0.474,0.11,0.926,0.215,1.355,0.315
					c3.438,0.791,5.444,1.195,5.444,1.195C276.102,137.042,274.229,136.278,272.344,135.535z"/>
			</g>
			<g>
				<path d="M257.511,138.323c-1.5-0.34-2.977-0.675-4.423-1.003c-1.449-0.317-2.87-0.616-4.24-0.952
					c-0.088-0.02-0.172-0.039-0.26-0.059c1.669,1.13,3.317,2.297,4.95,3.491c2.205,0.444,4.313,0.833,6.289,1.145
					c4.888,0.818,8.979,1.314,11.84,1.685c2.863,0.355,4.509,0.512,4.509,0.512C269.916,141.205,263.52,139.668,257.511,138.323z"/>
			</g>
		</g>
		<g>
			<path d="M224.775,122.581c-6.8-2.318-13.015-6.078-20.008-8.118c-6.81-2.203-13.5-4.659-19.799-7.775
				c-12.543-6.461-24.782-13.604-37.122-19.327c-6.127-2.981-12.124-5.96-18.18-8.612c-3.01-1.35-6.059-2.532-9.037-3.779
				c-3.024-1.131-6.003-2.274-8.976-3.318c-5.98-2.028-11.778-3.939-17.61-5.303c-0.727-0.177-1.45-0.353-2.17-0.528l-1.078-0.262
				l-0.537-0.13l-0.134-0.033c0.004-0.002,0.064,0.019,0.001-0.002l-0.243-0.08c-1.31-0.415-2.622-0.914-3.949-1.429
				c-2.65-1.018-5.331-2.092-8.221-2.649l-1.083-0.199c-0.501-0.03-1.15-0.02-1.712-0.032l-0.871-0.011l-0.433-0.005l-0.216-0.003
				c-0.031,0.006-0.083-0.014-0.097,0.013l-0.022,0.107c-0.11,0.57-0.262,1.136-0.303,1.702c-0.022,0.284-0.088,0.562-0.074,0.849
				l0.098,0.864c0.018,0.138,0.03,0.298,0.052,0.418l0.089,0.293l0.185,0.581c0.147,0.366,0.313,0.716,0.48,1.063
				c0.19,0.321,0.372,0.651,0.571,0.958c0.805,1.222,1.74,2.24,2.701,3.176c0.964,0.932,1.955,1.792,2.967,2.578
				c4.047,3.151,8.193,5.57,12.136,7.727c3.957,2.158,7.732,3.925,11.305,5.55c3.649,1.433,7.088,2.508,10.214,3.243
				c1.584,0.355,2.969,0.891,4.327,1.31c1.358,0.399,2.589,0.931,3.744,1.395c2.312,0.917,4.273,1.76,5.866,2.415
				c1.605,0.637,2.863,1.058,3.697,1.372c0.837,0.304,1.27,0.46,1.27,0.46c-1.671-0.747-3.359-1.433-5.005-2.218
				c-1.646-0.795-3.27-1.609-4.934-2.377l-2.486-1.165c-0.832-0.382-1.709-0.675-2.564-1.017c-0.861-0.318-1.721-0.685-2.587-0.963
				l-2.6-0.801c-3.441-1.118-6.806-2.338-9.96-4.016c-3.191-1.608-6.355-3.35-9.414-5.154c-3.06-1.816-6.048-3.722-8.85-5.801
				c-1.398-1.04-2.751-2.124-4.004-3.275c-1.251-1.147-2.408-2.379-3.276-3.684c-0.441-0.648-0.783-1.322-0.97-1.964l-0.07-0.24
				l-0.034-0.113l-0.003-0.033l-0.01-0.125c0.004-0.06,0.013-0.115,0.033-0.164c0.028-0.037,0.121,0.006,0.173,0.005l0.089,0.013
				l0.508,0.107l1.175,0.244c0.393,0.097,0.787,0.23,1.179,0.343c3.16,0.941,6.225,2.463,9.606,3.621l0.658,0.227l0.724,0.186
				l1.217,0.314c0.811,0.209,1.62,0.418,2.426,0.626c1.615,0.408,3.222,0.814,4.811,1.328c1.592,0.483,3.177,0.963,4.753,1.441
				c1.559,0.53,3.109,1.057,4.651,1.582c6.176,2.072,12.118,4.412,17.85,6.789c2.868,1.188,5.645,2.485,8.411,3.69
				c2.741,1.287,5.44,2.554,8.094,3.8c5.313,2.488,10.445,4.892,15.372,7.199c4.855,2.448,9.508,4.793,13.932,7.024
				c4.446,2.208,8.578,4.373,12.696,6.209c4.075,1.847,8.008,3.249,11.666,4.43c1.814,0.635,3.609,1.097,5.295,1.609
				c0.846,0.242,1.672,0.501,2.477,0.711c0.805,0.2,1.591,0.396,2.356,0.586c3.018,0.871,5.663,1.866,7.961,2.747
				c2.296,0.891,4.254,1.646,5.856,2.221c0.804,0.278,1.514,0.523,2.128,0.735c0.621,0.187,1.143,0.345,1.564,0.472
				C224.341,122.453,224.775,122.581,224.775,122.581z"/>
		</g>
		<g>
			<path d="M116.9,96.972c-1.676-0.92-3.292-1.896-4.982-2.735c-1.722-0.791-3.427-1.575-5.114-2.351
				c-1.702-0.702-3.385-1.397-5.047-2.083c-1.669-0.668-3.342-1.259-4.98-1.875c-1.632-0.627-3.29-1.138-4.898-1.693
				c-0.797-0.264-1.587-0.526-2.371-0.787c-0.717-0.235-1.456-0.53-2.183-0.835c-2.915-1.236-5.691-2.656-8.245-4.141
				c-2.544-1.493-4.923-3.073-6.781-4.848c-0.458-0.437-0.89-0.913-1.216-1.354c-0.12-0.13-0.256-0.339-0.334-0.556
				c-0.386-0.701,0.536-0.392,1.056-0.39l0.228,0.02c0.09,0.011,0.116,0.001,0.294,0.041c0.292,0.06,0.581,0.118,0.868,0.177
				c0.575,0.116,1.14,0.231,1.695,0.343c1.111,0.222,2.205,0.481,3.243,0.703c2.102,0.413,4.061,0.786,5.853,0.908
				c0.135,0.009,0.259,0.016,0.392,0.023c-0.295-0.369-0.5-0.788-0.602-1.231c-0.175-0.031-0.353-0.057-0.526-0.09
				c-0.959-0.158-1.908-0.455-2.856-0.688c-0.946-0.228-1.896-0.519-2.845-0.811c-0.945-0.289-1.895-0.572-2.872-0.836l-1.454-0.402
				c-0.264-0.059-0.438-0.151-0.775-0.183l-1.012-0.094l-2.059-0.182l-1.045-0.087l-0.263-0.021
				c-0.041,0.051-0.029,0.166-0.046,0.246l-0.061,0.528c-0.061,0.663-0.098,1.327,0.141,2.072c0.054,0.363,0.303,0.736,0.447,1.107
				c0.074,0.188,0.214,0.369,0.319,0.554l0.287,0.458c1.289,1.804,2.848,3.139,4.426,4.394c3.186,2.46,6.562,4.446,10.007,6.199
				c1.732,0.861,3.468,1.685,5.379,2.319c1.734,0.61,3.454,1.216,5.155,1.814c1.691,0.635,3.366,1.264,5.021,1.885
				c1.653,0.624,3.254,1.316,4.855,1.953c1.614,0.624,3.125,1.346,4.652,2.007c0.76,0.335,1.515,0.667,2.264,0.997
				c0.73,0.387,1.455,0.771,2.173,1.152c2.864,1.523,5.68,2.988,8.395,4.387c10.839,5.623,20.356,9.552,27.191,11.71
				c1.715,0.528,3.238,1.015,4.576,1.399c1.353,0.33,2.504,0.612,3.438,0.841c1.865,0.446,2.861,0.684,2.861,0.684
				C144.069,112.484,130.129,104.394,116.9,96.972z"/>
		</g>
		<g>
			<path d="M143.088,117.603c-0.843-0.292-1.685-0.583-2.524-0.874l-1.257-0.432l-1.234-0.492c-1.642-0.649-3.275-1.294-4.898-1.936
				c-1.595-0.708-3.18-1.411-4.752-2.109c-1.587-0.663-3.085-1.493-4.614-2.214c-0.76-0.372-1.516-0.742-2.27-1.11
				c-0.735-0.399-1.468-0.797-2.197-1.193c-1.469-0.792-2.925-1.576-4.364-2.352c-1.472-0.787-2.927-1.565-4.365-2.335
				c-1.456-0.721-2.912-1.391-4.341-2.07c-5.747-2.659-11.187-4.885-16.204-7.071c-4.979-2.143-9.462-4.259-12.942-6.77
				c-0.448-0.301-0.847-0.633-1.242-0.96c-0.412-0.314-0.773-0.656-1.117-1.003l-0.52-0.509c-0.149-0.182-0.297-0.362-0.443-0.541
				c-0.145-0.175-0.287-0.349-0.428-0.521l-0.22-0.341c-0.168-0.227-0.28-0.481-0.382-0.75l-0.083-0.201l-0.042-0.102
				c0.006-0.021,0.053-0.015,0.078-0.024l0.369-0.063c0.265-0.046,0.523-0.091,0.775-0.134c0.388-0.061,0.767-0.121,1.135-0.179
				c0.556-0.091,1.084-0.163,1.598-0.227c-0.089-0.316-0.123-0.644-0.113-0.973c-0.81,0.022-1.617,0.066-2.415,0.104l-0.864,0.055
				l-0.926,0.078l-0.939,0.087l-0.477,0.045c-0.076,0.01-0.17,0.009-0.23,0.029l0.063,0.218c0.184,0.577,0.3,1.199,0.554,1.777
				l0.395,0.872l0.2,0.444l0.101,0.224l0.102,0.152c1.021,1.68,2.411,2.976,3.816,4.18c2.851,2.381,6.004,4.186,9.141,5.852
				c3.171,1.64,6.279,3.098,9.391,4.542c6.207,2.898,12.235,5.491,17.671,8.453c2.707,1.423,5.52,2.887,8.173,4.231
				c1.363,0.618,2.703,1.226,4.019,1.823c0.66,0.293,1.307,0.598,1.96,0.873c0.659,0.26,1.312,0.517,1.958,0.771
				c10.322,4.136,19.434,6.176,25.841,7.085c1.608,0.209,3.033,0.449,4.288,0.551c1.255,0.082,2.324,0.153,3.191,0.21
				c1.728,0.104,2.652,0.159,2.652,0.159C156.896,121.786,149.847,119.893,143.088,117.603z"/>
		</g>
		<g>
			<path d="M157.802,134.184c-10.154-3.068-19.87-6.508-28.714-10.399c-2.216-0.961-4.343-2.023-6.468-2.994
				c-2.091-1.038-4.108-2.125-6.11-3.146c-1.942-1.113-3.844-2.203-5.703-3.268c-1.946-1.184-3.809-2.158-5.612-3.164
				c-3.604-1.991-6.981-3.912-9.973-5.895c-1.494-0.99-2.891-2.001-4.09-3.064c-0.588-0.534-1.136-1.084-1.539-1.64l-0.263-0.41
				c-0.065-0.159-0.103-0.185-0.132-0.279c-0.057-0.165-0.09-0.355-0.027-0.529c0.05-0.207,0.251-0.313,0.437-0.381
				c0.127-0.063,0.582-0.152,0.934-0.2c0.752-0.1,1.528-0.128,2.28-0.13c1.509-0.009,2.948,0.085,4.285,0.191
				c0.273,0.022,0.524,0.05,0.789,0.074c-0.216-0.387-0.344-0.811-0.376-1.248c-1.349-0.232-2.704-0.44-4.082-0.562
				c-0.932-0.08-1.87-0.134-2.847-0.094c-0.242,0.004-0.494,0.032-0.746,0.057c-0.124,0.008-0.257,0.035-0.388,0.057
				c-0.146,0.03-0.337,0.053-0.497,0.116c-0.693,0.161-1.314,0.563-1.619,1.196c-0.287,0.651-0.285,1.39-0.073,2.097
				c0.136,0.384,0.231,0.624,0.375,0.864c0.131,0.247,0.271,0.481,0.425,0.686c0.6,0.854,1.272,1.564,1.965,2.226
				c1.392,1.312,2.863,2.453,4.354,3.535c2.988,2.151,6.063,4.062,9.117,5.89c1.512,0.902,3.016,1.797,4.508,2.688
				c0.663,0.432,1.457,0.907,2.203,1.359c0.755,0.456,1.507,0.91,2.256,1.363c0.752,0.448,1.493,0.909,2.246,1.338
				c0.763,0.407,1.522,0.813,2.277,1.216c1.521,0.788,2.995,1.643,4.521,2.345c6.034,2.971,12.042,5.322,17.756,7.359
				c5.75,1.937,11.2,3.578,16.282,4.833c10.129,2.634,18.769,3.694,24.773,3.769c1.5,0.064,2.837-0.008,3.997-0.04
				c1.159-0.016,2.14-0.101,2.933-0.18c1.583-0.146,2.423-0.223,2.423-0.223C178.635,139.722,167.947,137.189,157.802,134.184z"/>
		</g>
		<g>
			<path d="M160.78,143.255c-3.249-0.691-6.445-1.371-9.575-2.036c-1.582-0.328-3.147-0.652-4.695-0.973
				c-1.556-0.309-3.11-0.567-4.608-0.829c-3.022-0.501-5.886-1.03-8.58-1.749c-2.721-0.663-5.134-1.743-7.389-2.904l-0.102-0.056
				c-5.111-2.48-9.714-5.091-13.462-7.751c-1.859-1.342-3.539-2.707-4.755-4.177c-0.599-0.722-1.095-1.518-1.301-2.224
				c-0.069-0.269-0.124-0.558-0.078-0.845c0.016-0.067,0.004-0.156,0.043-0.206l0.211-0.075c0.144-0.051,0.286-0.102,0.426-0.152
				c0.752-0.262,1.463-0.509,2.133-0.743c0.709-0.249,1.374-0.465,1.996-0.656c0.621-0.201,1.204-0.332,1.737-0.484
				c0.191-0.038,0.37-0.075,0.549-0.112c-0.033-0.148-0.045-0.301-0.055-0.455c-2.041,0.183-4.072,0.671-6.021,1.142l-0.297,0.071
				l-0.369,0.101l-0.756,0.208c-0.251,0.074-0.519,0.136-0.764,0.223c-0.06,0.264-0.142,0.529-0.185,0.801
				c-0.015,0.275-0.092,0.547-0.058,0.833c0.038,0.273,0.03,0.601,0.106,0.839c0.106,0.473,0.274,0.9,0.461,1.317
				c0.796,1.629,1.944,2.908,3.116,4.107c2.391,2.35,5.034,4.3,7.716,6.099c2.673,1.777,5.383,3.391,8.168,4.862
				c4.889,2.941,10.306,4.197,15.291,5.095c2.509,0.461,4.96,0.835,7.305,1.333c2.396,0.467,4.745,0.924,7.038,1.371
				c4.6,0.907,9,1.64,13.126,2.303c4.116,0.71,7.997,1.165,11.528,1.633c3.528,0.495,6.751,0.757,9.577,1.013
				c1.413,0.123,2.729,0.238,3.94,0.344c0.615,0.05,1.203,0.098,1.764,0.145c0.556,0.003,1.085,0.006,1.586,0.01
				c0.989,0.016,1.874-0.019,2.64,0.033c0.767,0.051,1.416,0.095,1.941,0.13c1.052,0.066,1.606,0.102,1.606,0.102
				C187.653,148.841,173.79,145.985,160.78,143.255z"/>
		</g>
		<g>
			<path d="M209.006,156.489c-1.586,0.051-3.17,0.1-4.75,0.15c-3.15-0.03-6.241-0.027-9.326-0.306
				c-6.155-0.452-12.16-1.304-17.958-2.354c-5.817-1.077-11.435-2.116-16.76-3.101c-1.349-0.233-2.622-0.506-3.906-0.747
				c-1.272-0.266-2.55-0.444-3.765-0.763c-2.436-0.612-4.832-1.083-7.043-1.809c-1.118-0.329-2.213-0.651-3.284-0.965
				c-1.042-0.378-2.06-0.747-3.052-1.108c-0.991-0.375-1.969-0.683-2.904-1.081c-0.935-0.405-1.842-0.798-2.722-1.18
				c-1.752-0.749-3.331-1.502-4.681-2.353c-0.701-0.399-1.268-0.89-1.854-1.326c-0.493-0.511-1.03-0.961-1.409-1.487
				c-0.35-0.461-0.631-0.944-0.826-1.419c-0.474-0.306-0.817-0.741-1.031-1.243c-0.055,0.577,0.024,1.159,0.185,1.687
				c0.25,0.815,0.655,1.559,1.127,2.242c0.979,1.35,2.228,2.445,3.534,3.403c1.326,0.915,2.707,1.721,4.084,2.455
				c1.391,0.706,2.685,1.506,4.146,2.105c1.434,0.633,2.861,1.263,4.281,1.889c2.904,1.022,5.768,2.111,8.679,2.835
				c2.88,0.865,5.776,1.399,8.599,2.008c2.799,0.543,5.527,1.052,8.214,1.531c5.354,0.981,10.489,1.748,15.257,2.277
				c2.397,0.202,4.68,0.483,6.881,0.533c1.096,0.044,2.165,0.088,3.204,0.131c1.038,0.043,2.054-0.013,3.032-0.016
				c0.979-0.018,1.927-0.036,2.842-0.053c0.915-0.028,1.799-0.134,2.646-0.195c1.689-0.165,3.255-0.226,4.627-0.476
				c1.381-0.213,2.615-0.402,3.689-0.567c1.075-0.122,1.989-0.227,2.731-0.311c1.491-0.172,2.289-0.265,2.289-0.265
				C212.191,156.571,210.598,156.53,209.006,156.489z"/>
		</g>
		<g>
			<path d="M199.883,165.084c-5.84-0.188-11.554-0.556-17.038-1.131c-2.749-0.242-5.42-0.667-8.044-1.008
				c-2.624-0.453-5.191-0.895-7.689-1.326c-1.245-0.215-2.485-0.391-3.687-0.62c-1.189-0.264-2.361-0.522-3.512-0.778
				c-0.577-0.125-1.149-0.249-1.716-0.372c-0.567-0.124-1.108-0.311-1.656-0.459c-1.093-0.312-2.166-0.617-3.216-0.916
				c-1.069-0.259-2.044-0.678-3.022-1.033c-0.977-0.362-1.932-0.716-2.862-1.061l-0.349-0.128c-0.131-0.048-0.106-0.033-0.271-0.117
				c-0.242-0.123-0.475-0.235-0.702-0.341c-0.452-0.208-0.897-0.414-1.336-0.616c-0.867-0.398-1.699-0.782-2.48-1.184
				c-1.563-0.794-2.97-1.642-3.987-2.623c-0.523-0.483-0.873-1.024-1.069-1.554c-0.202-0.515-0.173-1.165-0.034-1.646
				c0.2-0.721,0.762-1.23,1.383-1.583c-0.199-0.203-0.365-0.43-0.494-0.68c-0.281,0.124-0.558,0.269-0.821,0.456
				c-0.688,0.479-1.224,1.288-1.378,2.152c-0.063,0.216-0.071,0.429-0.078,0.644c-0.006,0.215-0.034,0.428,0.018,0.655
				c0.04,0.221,0.063,0.457,0.129,0.668l0.237,0.615c0.384,0.765,0.886,1.443,1.45,1.993c1.115,1.142,2.38,1.997,3.644,2.799
				c1.264,0.795,2.575,1.499,3.796,2.19l0.442,0.258l0.271,0.16l0.283,0.131l1.003,0.454c0.671,0.3,1.34,0.601,2.007,0.899
				c0.669,0.296,1.337,0.592,2.003,0.887c0.676,0.262,1.364,0.475,2.043,0.711c1.363,0.456,2.716,0.923,4.069,1.348
				c1.372,0.345,2.732,0.688,4.081,1.026c0.676,0.16,1.347,0.351,2.019,0.479c0.672,0.121,1.341,0.241,2.007,0.36
				c2.661,0.46,5.267,0.91,7.807,1.349c5.112,0.756,10.02,1.173,14.533,1.26c9.036,0.237,16.554-0.398,21.776-0.915
				c2.614-0.304,4.673-0.391,6.08-0.497c1.407-0.105,2.159-0.16,2.159-0.16C211.711,165.216,205.713,165.344,199.883,165.084z"/>
		</g>
		<g>
			<path d="M220.897,174.448c-3.073,0.583-6.191,0.716-9.315,0.77c-3.158-0.01-6.278,0.217-9.339,0.256
				c-3.061,0.089-6.073,0.099-9.023,0.04c-5.899-0.119-11.559-0.617-16.789-1.723c-1.321-0.193-2.597-0.611-3.869-0.906
				c-0.635-0.159-1.265-0.317-1.89-0.475c-0.649-0.152-1.293-0.305-1.932-0.455c-2.487-0.588-4.857-1.182-7.068-1.896
				c-2.206-0.715-4.276-1.511-6.069-2.514c-1.786-0.99-3.364-2.177-4.334-3.551c-0.466-0.686-0.651-1.3-0.466-1.724
				c0.155-0.476,0.819-0.935,1.491-1.247c0.629-0.286,1.284-0.494,1.936-0.666c-0.457-0.314-0.822-0.752-1.052-1.26
				c-0.78,0.155-1.564,0.386-2.354,0.763c-0.409,0.209-0.823,0.474-1.196,0.857c-0.376,0.38-0.683,0.913-0.808,1.5
				c-0.222,1.207,0.243,2.191,0.674,2.972c0.933,1.538,2.185,2.703,3.502,3.706c1.326,0.995,2.741,1.803,4.176,2.504
				c2.881,1.376,5.841,2.361,8.749,3.187c2.9,0.785,5.754,1.559,8.551,2.316c1.439,0.298,2.875,0.56,4.289,0.829
				c1.415,0.271,2.833,0.371,4.222,0.555c5.573,0.563,10.864,0.544,15.702,0.257c2.415-0.162,4.738-0.331,6.917-0.564
				c2.184-0.234,4.254-0.458,6.198-0.627c3.922-0.38,7.391-0.976,10.107-1.931c0.693-0.18,1.306-0.501,1.9-0.727
				c0.586-0.254,1.151-0.445,1.628-0.742c0.485-0.269,0.934-0.519,1.346-0.746c0.415-0.218,0.778-0.439,1.079-0.68
				c1.224-0.898,1.877-1.379,1.877-1.379C226.972,172.802,223.966,173.876,220.897,174.448z"/>
		</g>
		<g>
			<path d="M191.687,184.895c-0.696,0.006-1.38-0.093-2.061-0.162c-0.681-0.071-1.357-0.142-2.029-0.211
				c-0.672-0.067-1.339-0.135-2.001-0.201c-0.668-0.096-1.331-0.19-1.988-0.285c-2.614-0.39-5.117-0.844-7.466-1.404
				c-2.345-0.563-4.547-1.23-6.452-2.109c-1.893-0.865-3.518-2.013-4.138-3.385l-0.047-0.106c-0.497-0.824-0.383-1.67,0.182-2.521
				c0.293-0.438,0.671-0.832,1.084-1.188c-0.454-0.355-0.802-0.834-0.995-1.386c-0.435,0.293-0.86,0.612-1.258,0.999
				c-0.586,0.583-1.132,1.332-1.373,2.284c-0.255,0.94-0.115,2.011,0.277,2.844c0.469,1.262,1.292,2.286,2.185,3.067
				c0.923,0.818,1.923,1.457,2.935,2.005c2.031,1.087,4.123,1.832,6.197,2.453c2.076,0.614,4.144,1.083,6.183,1.467
				c2.053,0.371,4.019,0.708,6.038,0.871c8.014,0.912,15.386,0.065,21.406-1.137c6.048-1.19,10.81-2.815,14.124-3.877
				c3.29-1.151,5.12-1.84,5.12-1.84C215.167,183.406,202.807,185.585,191.687,184.895z"/>
		</g>
		<g>
			<path d="M222.526,189.635c-2.013,0.867-4.067,1.559-6.128,2.136c-4.149,1.086-8.326,1.675-12.396,1.94
				c-2.033,0.138-4.04,0.206-6.006,0.204c-0.977,0.012-1.964-0.01-2.939-0.028c-0.463-0.014-1.038,0.005-1.528,0.016
				c-0.491,0.021-0.979,0.04-1.463,0.06c-3.797,0.182-7.329,0.396-10.218-0.337c-2.878-0.617-4.863-2.764-4.079-4.735
				c0.346-1.018,1.135-1.929,1.936-2.652c0.095-0.086,0.193-0.161,0.29-0.242c-0.41-0.354-0.697-0.815-0.855-1.327
				c-0.319,0.192-0.633,0.396-0.938,0.623c-0.948,0.713-1.843,1.604-2.432,2.825c-0.592,1.206-0.657,2.871-0.029,4.139
				c0.59,1.279,1.468,2.23,2.572,2.978c2.156,1.389,4.5,1.831,6.68,2.074c2.192,0.211,4.311,0.185,6.326,0.118
				c0.982-0.029,1.955-0.058,2.916-0.086c0.979,0.006,1.946,0.011,2.901,0.016c3.907-0.038,7.612-0.385,10.989-1.005
				c3.376-0.626,6.418-1.529,9.016-2.57c2.601-1.045,4.732-2.262,6.4-3.362c0.821-0.577,1.558-1.073,2.142-1.59
				c0.596-0.496,1.109-0.902,1.479-1.292c0.753-0.746,1.157-1.146,1.157-1.146C226.461,187.662,224.519,188.733,222.526,189.635z"/>
		</g>
		<g>
			<path d="M206.06,198.681c-3.749,0.666-7.331,1.236-10.765,1.714c-1.751,0.235-3.377,0.467-4.932,0.556
				c-1.542,0.093-3.024,0.06-4.211-0.248c-0.543-0.19-1.08-0.38-1.354-0.693c-0.206-0.118-0.245-0.33-0.4-0.482
				c-0.062-0.208-0.167-0.398-0.208-0.634c-0.183-1.001,0.146-1.905,0.839-2.686c0.161-0.182,0.337-0.352,0.521-0.517
				c-0.719-0.177-1.344-0.613-1.76-1.207c-0.099,0.077-0.2,0.146-0.297,0.229c-0.881,0.776-1.645,1.921-1.847,3.241
				c-0.039,0.319-0.035,0.642-0.044,0.966c-0.028,0.318,0.035,0.654,0.121,0.994c0.077,0.338,0.147,0.677,0.338,0.987
				c0.177,0.306,0.312,0.659,0.566,0.899c0.237,0.249,0.469,0.546,0.737,0.734c0.268,0.189,0.542,0.383,0.82,0.553
				c0.555,0.271,1.123,0.521,1.672,0.655c1.106,0.311,2.173,0.431,3.201,0.471c2.062,0.092,4.008-0.103,5.854-0.314
				c1.808-0.179,3.647-0.493,5.405-0.77c3.499-0.615,6.777-1.332,9.78-2.128c6.004-1.589,10.89-3.402,14.19-4.941
				c1.672-0.707,2.92-1.427,3.783-1.872c0.854-0.461,1.311-0.708,1.311-0.708C221.473,195.819,213.539,197.37,206.06,198.681z"/>
		</g>
		<g>
			<path d="M209.984,207.881c-0.732,0.35-1.478,0.62-2.204,0.928c-0.732,0.283-1.439,0.637-2.166,0.866
				c-0.719,0.258-1.431,0.514-2.134,0.766c-0.426,0.162-0.476,0.181-0.945,0.286c-0.375,0.092-0.747,0.183-1.116,0.273
				c-1.459,0.372-2.822,0.708-4.125,0.927c-1.307,0.25-2.524,0.302-3.588,0.183c-0.236-0.038-0.47-0.075-0.702-0.112
				c-0.12-0.057-0.398-0.189-0.596-0.27c-0.197-0.138-0.391-0.273-0.583-0.407c-0.182-0.155-0.343-0.338-0.52-0.5
				c-0.651-0.723-1.108-1.619-1.421-2.517c-0.58-1.824-0.579-3.631-0.217-5.012c0.005-0.021,0.013-0.036,0.018-0.057
				c-0.399-0.09-0.747-0.25-1.036-0.467c-0.085,0.169-0.169,0.34-0.241,0.515c-0.705,1.732-0.908,3.669-0.599,5.564
				c0.321,1.88,1.244,3.804,2.936,5.136c0.206,0.167,0.449,0.289,0.676,0.433c0.213,0.105,0.509,0.348,0.808,0.39
				c0.517,0.136,0.995,0.292,1.484,0.369c0.479,0.047,0.956,0.094,1.43,0.141c0.459-0.008,0.915-0.016,1.371-0.022
				c1.789-0.112,3.452-0.441,5.022-0.792c0.771-0.18,1.534-0.358,2.289-0.534c0.237-0.047,0.315-0.102,0.413-0.129l0.281-0.103
				l0.559-0.206c0.371-0.138,0.739-0.274,1.104-0.41c2.924-1.1,5.507-2.468,7.849-3.768c4.64-2.665,8.263-5.184,10.88-6.846
				c2.613-1.679,4.118-2.646,4.118-2.646C222.209,201.968,215.884,205.297,209.984,207.881z"/>
		</g>
		<g>
			<path d="M209.577,220.572c-0.88,0.315-1.751,0.628-2.61,0.937c-0.87,0.279-1.729,0.556-2.576,0.828
				c-1.704,0.576-3.257,1.026-4.72,1.173c-0.718,0.063-1.41,0.074-2.002-0.045c-0.592-0.119-1.089-0.333-1.517-0.639
				c-0.826-0.643-1.395-1.76-1.676-2.98l-0.027-0.119c-0.326-1.005-0.552-1.972-0.614-2.881c-0.048-0.906,0.086-1.741,0.364-2.493
				c0.018-0.051,0.048-0.092,0.068-0.142c-0.63-0.023-1.21-0.249-1.686-0.612c-0.472,0.844-0.802,1.784-0.922,2.74
				c-0.19,1.416-0.03,2.798,0.242,4.096c-0.01-0.044-0.02-0.088-0.029-0.129c0.197,1.63,0.813,3.465,2.271,4.831
				c0.735,0.642,1.613,1.14,2.503,1.387c0.882,0.249,1.768,0.362,2.591,0.344c1.666-0.003,3.171-0.338,4.57-0.732
				c1.379-0.406,2.654-0.849,3.939-1.272c5.08-1.808,9.461-4.072,12.964-6.271c1.778-1.054,3.271-2.215,4.611-3.17
				c1.294-1.033,2.381-1.957,3.259-2.721c1.68-1.633,2.576-2.561,2.576-2.561C224.071,214.656,216.61,217.995,209.577,220.572z"/>
		</g>
		<g>
			<path d="M218.944,233.303c-3.938,3.463-7.884,6.726-12.034,9.205c-1.044,0.607-2.073,1.211-3.142,1.698
				c-1.039,0.559-2.131,0.942-3.187,1.383c-0.526,0.23-1.082,0.35-1.615,0.531c-0.54,0.151-1.066,0.37-1.608,0.469
				c-0.539,0.117-1.075,0.233-1.608,0.349c-0.255,0.05-0.555,0.137-0.771,0.157c-0.219,0.023-0.438,0.054-0.644,0.048
				c-0.876,0.021-1.364-0.195-1.712-0.594c-0.37-0.416-0.625-1.238-0.692-2.139c-0.147-1.824,0.199-3.827,0.635-5.671
				c0.228-0.927,0.486-1.837,0.777-2.703c0.142-0.435,0.315-0.814,0.466-1.221c0.167-0.396,0.373-0.78,0.552-1.166
				c0.792-1.524,1.746-2.905,2.705-4.159c1.121-1.459,2.259-2.72,3.355-3.842c-0.608-0.13-1.088-0.432-1.445-0.832
				c-1.255,1.036-2.457,2.141-3.58,3.33c-1.849,1.957-3.497,4.164-4.625,6.756c-1.017,2.489-1.791,5.019-2.069,7.762
				c-0.115,1.37-0.133,2.818,0.402,4.38c0.272,0.77,0.734,1.58,1.44,2.215c0.7,0.641,1.594,1.029,2.414,1.189
				c0.829,0.161,1.601,0.168,2.329,0.076c0.723-0.085,1.267-0.247,1.902-0.368c1.242-0.221,2.405-0.618,3.559-0.992
				c4.615-1.555,8.435-4.133,11.648-6.695c3.212-2.598,5.839-5.275,8.096-7.684c2.253-2.416,4.127-4.584,5.692-6.353
				c1.559-1.773,2.794-3.16,3.654-4.093c0.858-0.936,1.316-1.438,1.316-1.438C226.85,226.154,222.882,229.841,218.944,233.303z"/>
		</g>
		<g>
			<path d="M214.11,248.645c-2.853,2.302-5.767,4.259-8.694,5.609c-0.724,0.371-1.465,0.62-2.191,0.887
				c-0.709,0.291-1.49,0.473-2.235,0.679c-1.501,0.387-2.976,0.681-4.335,0.802c-0.674,0.059-1.331,0.07-1.867-0.006l-0.371-0.071
				l-0.354-0.122c-0.297-0.113-0.569-0.23-0.789-0.354c-0.915-0.514-1.329-1.163-1.315-2.131c0.024-0.956,0.419-1.977,0.863-2.859
				c0.413-0.825,0.891-1.556,1.351-2.217c-0.456-0.082-0.85-0.252-1.171-0.494c-0.681,0.705-1.334,1.452-1.892,2.308
				c-0.58,0.889-1.096,1.888-1.287,3.109c-0.208,1.201,0.188,2.753,1.137,3.684c0.44,0.493,0.957,0.847,1.456,1.146
				c0.255,0.132,0.45,0.253,0.759,0.39c0.296,0.146,0.599,0.243,0.906,0.328c1.201,0.305,2.261,0.301,3.3,0.27
				c1.034-0.045,2.028-0.167,3.002-0.327c0.973-0.163,1.921-0.362,2.863-0.607c0.942-0.268,1.892-0.59,2.797-0.931
				c1.779-0.755,3.456-1.62,4.955-2.628c3.029-1.977,5.542-4.235,7.714-6.419c4.326-4.398,7.349-8.496,9.49-11.336
				c2.099-2.872,3.307-4.524,3.307-4.524C225.382,238.179,219.838,244.051,214.11,248.645z"/>
		</g>
		<g>
			<path d="M222.588,252.219l-1.023,0.896c-0.363,0.281-0.756,0.539-1.129,0.811c-0.749,0.539-1.494,1.075-2.233,1.608
				c-1.494,1.042-3.03,1.986-4.499,2.96c-1.546,0.862-2.998,1.809-4.507,2.598c-0.752,0.399-1.495,0.794-2.23,1.185
				c-0.411,0.224-0.82,0.446-1.226,0.668c-0.301,0.185-0.619,0.365-0.957,0.538c-2.712,1.359-5.646,2.309-8.157,2.449
				c-1.248,0.059-2.395-0.111-3.146-0.636c-0.776-0.516-1.208-1.299-1.264-2.231c-0.063-0.937,0.2-1.931,0.528-2.813
				c0.223-0.612,0.504-1.158,0.788-1.68c-0.477-0.094-0.873-0.293-1.199-0.561c-0.487,0.619-0.939,1.273-1.323,1.992
				c-0.491,0.896-0.85,1.931-0.937,3.081c-0.088,1.132,0.215,2.475,1.015,3.438c0.771,0.979,1.86,1.642,2.946,1.995
				c2.18,0.623,4.259,0.464,6.156,0.103c1.909-0.378,3.699-0.95,5.398-1.721c0.425-0.186,0.848-0.399,1.267-0.62l0.634-0.364
				l0.06-0.034l0.095-0.052l0.287-0.153c0.761-0.413,1.514-0.821,2.256-1.224c1.5-0.775,2.868-1.71,4.21-2.568
				c1.362-0.831,2.557-1.821,3.741-2.706c1.197-0.869,2.242-1.841,3.248-2.74c0.5-0.452,0.987-0.893,1.461-1.321
				c0.465-0.442,0.866-0.954,1.276-1.406c0.399-0.463,0.786-0.911,1.16-1.344c0.332-0.45,0.653-0.884,0.961-1.301
				c0.604-0.832,1.159-1.597,1.661-2.288c0.497-0.686,0.927-1.318,1.323-1.845c0.413-0.512,0.765-0.947,1.05-1.301
				c0.57-0.721,0.876-1.106,0.876-1.106C227.96,246.783,225.373,249.865,222.588,252.219z"/>
		</g>
		<g>
			<path d="M213.174,268.324c-1.527,0.747-2.972,1.589-4.488,2.19c-0.744,0.331-1.48,0.659-2.207,0.983
				c-0.735,0.298-1.476,0.543-2.197,0.817c-0.729,0.271-1.449,0.538-2.158,0.802c-0.79,0.258-1.497,0.531-2.177,0.767
				c-1.336,0.465-2.651,0.839-3.634,0.798c-0.489-0.02-0.84-0.115-1.085-0.297c-0.235-0.179-0.48-0.591-0.622-0.98
				c-0.298-0.773-0.09-1.857,0.218-2.837c0.368-1.08,0.824-2.083,1.277-3.015c-0.647-0.011-1.18-0.194-1.605-0.486
				c-0.603,0.854-1.179,1.747-1.671,2.737c-0.423,0.899-0.783,1.903-0.844,3.074c0.007,0.299,0.021,0.601,0.042,0.902
				c0.062,0.297,0.146,0.594,0.231,0.889c0.196,0.579,0.48,1.136,0.96,1.666c0.234,0.249,0.525,0.46,0.804,0.663
				c0.294,0.149,0.605,0.329,0.906,0.421c0.61,0.201,1.208,0.286,1.758,0.297c1.109,0.026,2.09-0.153,3.013-0.367
				c0.92-0.218,1.784-0.493,2.591-0.749c0.394-0.121,0.786-0.241,1.176-0.361c0.415-0.143,0.828-0.286,1.238-0.428
				c0.819-0.291,1.63-0.579,2.432-0.863c0.803-0.281,1.542-0.674,2.299-1.004c0.747-0.35,1.484-0.693,2.21-1.033
				c0.696-0.396,1.382-0.785,2.057-1.169c0.667-0.395,1.343-0.75,1.964-1.165c0.616-0.422,1.22-0.836,1.813-1.242
				c4.697-3.308,8.076-6.688,10.305-9.138c1.134-1.208,1.936-2.243,2.514-2.916c0.561-0.688,0.862-1.055,0.862-1.055
				C225.156,260.794,219.198,265.159,213.174,268.324z"/>
		</g>
		<g>
			<path d="M215.408,277.482c-2.554,1.438-5.057,2.496-7.603,3.192c-1.416,0.401-2.628,0.848-3.835,1.188
				c-1.192,0.343-2.347,0.633-3.395,0.748c-1.034,0.109-2.001,0.068-2.463-0.265c-0.615-0.404-1.016-0.976-1.11-1.735
				c-0.106-0.76,0.046-1.605,0.247-2.365c0.154-0.6,0.362-1.148,0.571-1.668c-0.417-0.106-0.797-0.303-1.127-0.566
				c-0.889,1.325-1.723,2.798-1.828,4.718c-0.06,0.981,0.311,2.13,0.963,2.941c0.295,0.393,0.717,0.822,1.205,1.115
				c0.495,0.305,0.998,0.476,1.485,0.602c0.978,0.239,1.867,0.234,2.725,0.196c0.859-0.041,1.669-0.165,2.458-0.311
				c1.554-0.288,3.102-0.746,4.388-1.115c1.425-0.358,2.917-0.799,4.261-1.393c2.712-1.154,5.035-2.645,7.033-4.137
				c3.98-3.022,6.819-5.951,8.887-7.923c2.056-1.989,3.24-3.136,3.24-3.136C225.66,270.592,220.514,274.689,215.408,277.482z"/>
		</g>
		<g>
			<path d="M222.077,280.671c-0.528,0.274-1.052,0.547-1.571,0.815c-0.515,0.274-1.063,0.453-1.58,0.687
				c-0.527,0.208-1.027,0.475-1.553,0.641c-0.525,0.169-1.044,0.336-1.556,0.5c-2.023,0.703-4.054,1.03-5.882,1.146
				c-1.831,0.106-3.494-0.075-4.744-0.663c-0.158-0.069-0.288-0.162-0.433-0.243c-0.459,0.53-1.092,0.898-1.809,1.01
				c0.35,0.406,0.732,0.786,1.172,1.09c1.253,0.89,2.695,1.358,4.093,1.611c1.408,0.26,2.792,0.262,4.132,0.174
				c5.396-0.425,10-2.838,13.295-5.353c3.312-2.548,5.596-5.064,7.233-6.786c1.628-1.728,2.535-2.767,2.535-2.767
				C230.573,275.097,226.3,278.468,222.077,280.671z"/>
		</g>
		<g>
			<path d="M227.572,284.866c-1.429,0.513-2.837,0.912-4.194,1.21c-2.706,0.602-5.223,0.763-7.065,0.223
				c-0.517-0.156-0.974-0.374-1.384-0.635c-0.552,0.676-1.379,1.122-2.303,1.124c0.91,1.445,2.492,2.438,4.007,2.87
				c1.736,0.491,3.439,0.476,4.95,0.222c1.519-0.251,2.879-0.724,4.062-1.285c2.371-1.128,4.012-2.628,4.969-3.789
				c0.476-0.592,0.791-1.093,0.982-1.445c0.176-0.357,0.27-0.549,0.27-0.549C230.451,283.741,229.001,284.347,227.572,284.866z"/>
		</g>
		<g>
			<path d="M240.018,274.658c-10.373,10.77-22.36,19.696-32.856,29.289c-5.265,4.786-9.928,9.848-14.468,14.545
				c-1.152,1.161-2.169,2.408-3.215,3.599c-1.035,1.201-2.055,2.384-3.058,3.548c-1.989,2.34-3.953,4.574-5.741,6.79
				c-7.165,8.861-13.023,16.347-17.099,21.63c-2.03,2.638-3.722,4.659-4.719,6.167c-0.511,0.74-0.835,1.355-1.083,1.745
				c-0.237,0.397-0.36,0.603-0.36,0.603c2.22-3.085,5.087-5.586,7.622-8.401c2.58-2.761,5.128-5.528,7.639-8.288
				c2.51-2.761,4.971-5.508,7.39-8.237c1.206-1.367,2.403-2.726,3.592-4.074c1.206-1.329,2.403-2.647,3.589-3.955
				c2.357-2.628,4.674-5.21,6.942-7.737c2.35-2.441,4.648-4.829,6.885-7.152c4.379-4.746,8.806-8.918,12.882-12.816
				c4.109-3.871,7.904-7.406,11.182-10.647c0.82-0.809,1.614-1.59,2.38-2.345c0.748-0.775,1.469-1.522,2.162-2.241
				c1.39-1.43,2.649-2.758,3.731-4.013c1.093-1.243,2.084-2.335,2.908-3.319c0.797-1.006,1.475-1.862,2.025-2.557
				C239.437,275.399,240.018,274.658,240.018,274.658z"/>
		</g>
		<g>
			<path d="M200.669,324.641c-1.88,0.494-3.59,1.498-5.155,2.64c-1.568,1.151-3.014,2.46-4.401,3.819
				c-2.759,2.734-5.287,5.688-7.991,8.413c-1.363,1.373-2.736,2.62-4.332,3.744l-4.631,3.471c-3.085,2.32-6.167,4.638-9.244,6.95
				l-4.616,3.482c-1.539,1.157-3.085,2.301-4.547,3.572c-1.472,1.25-2.988,2.457-4.419,3.741c-1.419,1.297-2.836,2.592-4.252,3.885
				c-5.609,5.213-10.885,10.649-16.731,15.21c-2.966,2.281-5.908,4.559-8.91,6.787c-2.981,2.201-5.949,4.576-8.864,6.802
				c-5.707,4.552-11.734,8.599-17.651,12.779c-1.488,1.012-2.935,2.127-4.385,3.213c-1.442,1.089-2.879,2.175-4.311,3.256
				c-2.642,2.17-5.587,4.014-8.525,5.938c-2.937,1.913-5.885,3.878-8.615,6.195c-2.729,2.284-5.246,5.066-6.822,8.498l-1.552,3.381
				l3.589-1.046c5.91-1.724,10.507-5.576,15.019-7.887c1.238-0.625,2.47-1.247,3.697-1.866l1.834-0.928
				c0.601-0.328,1.186-0.685,1.777-1.024c1.178-0.688,2.351-1.372,3.517-2.053l1.743-1.02c0.554-0.382,1.08-0.806,1.619-1.205
				c8.745-6.315,15.719-13.617,22.925-19.681c7.194-5.925,15.272-10.227,21.45-16.207c6.069-5.742,11.561-11.101,16.742-15.879
				c5.168-4.783,9.623-9.183,13.792-12.788c4.136-3.636,7.724-6.717,10.52-9.363c0.701-0.659,1.362-1.279,1.982-1.862
				c0.6-0.604,1.16-1.169,1.679-1.692c0.518-0.523,0.997-1.006,1.434-1.447c0.417-0.46,0.793-0.877,1.13-1.249
				c1.339-1.493,2.037-2.271,2.037-2.271c-4.676,5.017-9.958,9.376-15.253,13.682c-2.647,2.155-5.313,4.293-7.911,6.514
				c-1.32,1.085-2.572,2.253-3.852,3.385l-3.823,3.373c-2.543,2.24-5.081,4.477-7.613,6.707c-2.512,2.273-5.018,4.541-7.517,6.802
				c-1.248,1.135-2.494,2.268-3.738,3.398c-0.624,0.579-1.241,1.107-1.857,1.639c-0.627,0.524-1.206,1.088-1.869,1.578
				c-2.55,2.057-5.291,3.892-8.033,5.73c-2.761,1.817-5.536,3.66-8.244,5.605c-2.732,1.976-5.183,4.168-7.692,6.292
				c-2.501,2.132-4.882,4.302-7.311,6.429c-1.221,1.032-2.438,2.063-3.652,3.089c-1.215,1.024-2.407,2.082-3.681,2.971
				c-2.526,1.83-4.899,3.835-7.686,5.235c-1.343,0.77-2.683,1.536-4.017,2.3c-1.382,0.687-2.76,1.37-4.132,2.052l-2.055,1.022
				l-0.512,0.255l-0.182,0.089c-0.135,0.065-0.175,0.1-0.218,0.122l-0.254,0.152l-1.014,0.606c-1.313,0.805-2.62,1.607-3.922,2.407
				c-2.571,1.546-5.142,2.906-7.804,3.683c0.707,0.81,1.381,1.584,2.056,2.356c1.181-2.569,3.144-4.825,5.377-6.807
				c2.26-1.974,4.764-3.716,7.304-5.407c2.543-1.695,5.141-3.324,7.661-5.135c0.621-0.473,1.263-0.913,1.861-1.41
				c0.604-0.494,1.205-0.981,1.789-1.412c1.176-0.895,2.347-1.783,3.511-2.668c2.292-1.798,4.715-3.463,7.063-5.145
				c2.36-1.693,4.694-3.368,7-5.022c2.335-1.612,4.503-3.455,6.708-5.154c2.158-1.711,4.287-3.4,6.387-5.067
				c2.091-1.66,4.211-3.27,6.268-4.872c2.052-1.636,4.074-3.246,6.063-4.832c1.928-1.687,3.871-3.304,5.691-4.972
				c1.75-1.729,3.47-3.427,5.158-5.095c1.672-1.664,3.314-3.298,4.924-4.9c1.634-1.566,3.235-3.102,4.802-4.605
				c1.597-1.466,3.206-2.841,4.754-4.22c0.763-0.699,1.566-1.343,2.365-1.974c0.794-0.635,1.579-1.263,2.354-1.883
				c6.206-4.978,11.79-9.458,16.675-13.377c0.609-0.496,1.214-0.964,1.794-1.458c0.574-0.516,1.137-1.02,1.645-1.549
				c1.044-1.037,1.969-2.089,2.859-3.092c1.758-2.021,3.314-3.889,4.766-5.515c1.45-1.628,2.8-3.009,4.03-4.137
				c1.237-1.119,2.362-1.975,3.328-2.575c0.464-0.334,0.93-0.525,1.305-0.738c0.375-0.218,0.716-0.341,0.989-0.443
				C200.392,324.747,200.669,324.641,200.669,324.641z"/>
		</g>
		<g>
			<path d="M97.865,418.228c-1.155,2.24-2.966,4.001-5.009,5.383c-2.029,1.398-4.232,2.676-6.022,4.537l0.04-0.04
				c-2.35,1.995-4.521,4.154-6.558,6.444c-1.01,1.152-1.979,2.344-2.866,3.613c-0.227,0.313-0.438,0.642-0.645,0.973
				c-0.278,0.426-0.558,0.975-0.8,1.475c-0.285,0.518-0.449,1.016-0.636,1.521c-0.189,0.494-0.361,1.059-0.544,1.591
				c0.964-0.004,1.992,0.087,2.979-0.07c0.5-0.068,1-0.07,1.509-0.193l0.741-0.216l0.524-0.174c0.711-0.217,1.322-0.58,1.988-0.869
				c0.614-0.351,1.236-0.698,1.827-1.077c2.349-1.536,4.421-3.342,6.388-5.196c1.964-1.856,3.811-3.794,5.641-5.658l1.371-1.36
				c0.447-0.429,0.909-0.855,1.423-1.276c0.995-0.846,1.987-1.689,2.977-2.529c3.973-3.357,7.804-6.721,11.712-9.972
				c1.94-1.634,3.864-3.255,5.771-4.861c1.901-1.582,3.802-3.27,5.643-4.71c3.707-2.975,7.723-5.555,11.568-8.285
				c3.843-2.701,7.579-5.676,10.608-9.057c3.073-3.168,5.945-6.387,8.805-9.29c0.699-0.757,1.444-1.418,2.164-2.104
				c0.729-0.673,1.425-1.378,2.162-2.008c1.52-1.186,3.004-2.359,4.585-3.442c1.534-1.095,3.096-2.21,4.559-3.332
				c0.718-0.602,1.427-1.195,2.127-1.781c0.712-0.577,1.298-1.221,1.94-1.815c2.494-2.414,4.854-4.699,7.067-6.842
				c2.203-2.112,4.198-4.147,6.152-5.935c2.015-1.728,3.862-3.311,5.527-4.739c0.827-0.72,1.624-1.381,2.345-2.037
				c0.693-0.688,1.342-1.332,1.945-1.931c1.203-1.198,2.224-2.215,3.05-3.038c1.646-1.649,2.518-2.523,2.518-2.523l-4.58,3.962
				l-2.279,1.98l-1.137,0.989c-0.383,0.324-0.798,0.613-1.195,0.922c-1.602,1.217-3.203,2.432-4.801,3.646l-2.389,1.822
				c-0.793,0.609-1.526,1.313-2.291,1.964c-3.014,2.658-6.016,5.305-9.001,7.939c-1.485,1.291-2.932,2.656-4.429,3.88l-2.267,1.756
				l-2.405,1.629l-2.441,1.628c-0.819,0.539-1.636,1.077-2.443,1.688c-0.8,0.6-1.638,1.162-2.402,1.795l-2.212,1.972
				c-2.933,2.639-5.563,5.433-8.202,8.137c-1.322,1.334-2.636,2.66-3.942,3.978c-0.653,0.627-1.257,1.301-1.94,1.885
				c-0.686,0.58-1.37,1.158-2.051,1.734c-2.819,2.23-5.774,4.27-8.752,6.28c-2.958,2.047-5.93,4.023-8.676,6.336
				c-2.74,2.248-5.252,4.465-7.807,6.639c-5.074,4.316-9.886,8.607-14.443,12.672c-1.139,1.017-2.262,2.021-3.37,3.009
				c-1.12,1.009-2.169,2.143-3.133,3.188c-1.955,2.126-3.803,4.165-5.691,6.018c-1.883,1.849-3.789,3.53-5.779,4.826
				c-0.496,0.328-0.991,0.64-1.504,0.882c-0.254,0.129-0.504,0.271-0.757,0.388l-0.77,0.291c-0.511,0.222-1.014,0.299-1.574,0.305
				c0.08-0.38,0.229-0.759,0.416-1.139c0.045-0.102,0.091-0.18,0.16-0.306l0.305-0.536c0.22-0.349,0.438-0.694,0.654-1.035
				c0.895-1.352,1.849-2.59,2.79-3.742c1.89-2.296,3.721-4.273,5.445-5.918l0.03-0.028l0.006-0.008
				c1.556-1.785,3.33-3.01,4.793-4.161c0.748-0.552,1.397-1.132,1.999-1.636c0.563-0.554,1.072-1.058,1.486-1.538
				c0.378-0.511,0.71-0.959,0.996-1.346c0.244-0.412,0.414-0.778,0.566-1.06C97.715,418.518,97.865,418.228,97.865,418.228z"/>
		</g>
		<g>
			<path d="M199.96,340.948c-3.379,1.504-6.075,4.17-8.765,6.62c-2.675,2.485-5.652,4.578-8.624,6.734
				c-1.492,1.055-2.959,2.224-4.382,3.396l-4.131,3.624c-1.39,1.191-2.699,2.473-4.047,3.706c-1.336,1.247-2.691,2.471-3.96,3.787
				c-1.288,1.296-2.573,2.59-3.855,3.881c-1.217,1.357-2.431,2.712-3.643,4.064c-2.4,2.679-4.79,5.346-7.167,7.998
				c-1.183,1.323-2.363,2.644-3.539,3.959c-1.209,1.29-2.414,2.576-3.615,3.857c-2.414,2.553-4.754,5.14-7.17,7.621
				c-5.411,5.563-10.738,11.039-15.956,16.404c-1.521,1.568-3.033,3.128-4.537,4.679l-0.563,0.581
				c-0.043,0.047-0.103,0.101-0.132,0.142l-0.044,0.107l-0.088,0.215c-0.071,0.152-0.097,0.271-0.122,0.387
				c-0.035,0.124-0.05,0.232-0.053,0.332c-0.022,0.211,0.007,0.387,0.031,0.582c0.048,0.195,0.089,0.358,0.286,0.683
				c0.296,0.424,0.549,0.583,0.765,0.7c0.225,0.116,0.458,0.186,0.718,0.224c0.524,0.069,1.191-0.012,2.068-0.339
				c0.86-0.309,1.889-0.828,3.01-1.521c1.113-0.743,2.216-1.555,3.317-2.323l1.645-1.164l1.092-0.742
				c0.657-0.441,1.311-0.881,1.963-1.319c1.305-0.912,2.631-1.763,3.897-2.727c2.566-1.863,4.991-3.906,7.173-6.091
				c2.188-2.174,4.155-4.431,6.082-6.582c1.922-2.154,3.866-4.175,5.838-6.151c7.798-7.937,15.439-14.782,22.091-21.021
				c3.346-3.096,6.417-6.073,9.262-8.818c2.773-2.827,5.386-5.352,7.58-7.807c4.548-4.756,7.701-8.838,10.22-11.297
				c2.434-2.541,3.734-3.899,3.734-3.899l-4.109,3.797c-0.677,0.642-1.388,1.254-2.038,1.921l-1.956,1.997
				c-1.309,1.323-2.59,2.682-3.916,3.979l-3.964,3.892c-5.362,5.102-10.855,10.009-16.405,14.786
				c-11.048,9.571-22.07,19.042-31.437,29.486c-2.355,2.532-4.721,4.89-7.337,6.944c-0.638,0.531-1.309,1.023-1.979,1.516
				c-0.676,0.486-1.311,1.005-2.015,1.463c-1.396,0.939-2.785,1.873-4.167,2.801l-1.527,1.023l-0.656,0.455
				c-0.075,0.052-0.02,0.014-0.042,0.03c-0.004,0.006-0.021,0.013-0.025,0.013h-0.004h-0.001h-0.001l0.063-0.063l0.131-0.132
				l1.046-1.049c1.402-1.411,2.784-2.803,4.146-4.174c0.522-0.51,1.786-1.85,2.802-2.915c1.053-1.108,2.098-2.207,3.133-3.297
				c4.183-4.32,8.037-8.67,11.768-12.811c1.884-2.052,3.645-4.145,5.375-6.178c1.729-2.034,3.417-4.021,5.063-5.958
				c1.619-1.929,3.196-3.807,4.729-5.633c0.744-0.931,1.569-1.768,2.351-2.621c0.787-0.849,1.561-1.684,2.324-2.508
				c1.495-1.674,3.092-3.159,4.555-4.666c1.468-1.503,2.927-2.909,4.341-4.249c2.783-2.757,5.446-5.038,8.011-7.033
				c2.538-2.026,4.765-3.909,6.556-5.702c1.77-1.8,3.228-3.352,4.515-4.506c1.283-1.153,2.353-1.941,3.11-2.413
				C199.56,341.179,199.96,340.948,199.96,340.948z"/>
		</g>
		<g>
			<path d="M184.362,366.472c-0.863,1.114-1.872,2.081-2.96,2.957l-3.357,2.554c-1.094,0.881-2.216,1.887-3.045,3.006l-2.678,3.28
				c-1.778,2.19-3.384,4.468-5.121,6.652c-1.754,2.16-3.504,4.315-5.246,6.46c-0.866,1.074-1.73,2.147-2.593,3.217
				c-0.87,1.063-1.793,2.078-2.682,3.117c-1.786,2.067-3.562,4.124-5.325,6.166l-1.314,1.531l-1.334,1.462
				c-0.914,0.996-1.829,2.007-2.707,3.065c-0.876,1.065-1.732,2.145-2.497,3.41l-0.28,0.491c-0.092,0.188-0.164,0.3-0.303,0.621
				c-0.238,0.587-0.476,1.202-0.493,1.787c-0.038,0.583,0.035,1.145,0.306,1.629c0.139,0.241,0.299,0.469,0.503,0.663
				c0.219,0.171,0.438,0.345,0.677,0.48c0.701,0.327,1.498,0.438,2.331,0.232c0.412-0.112,0.824-0.251,1.22-0.454
				c0.226-0.099,0.354-0.177,0.466-0.242c0.12-0.07,0.243-0.141,0.352-0.215c0.901-0.584,1.633-1.227,2.329-1.881
				c1.377-1.312,2.566-2.689,3.709-4.054c0.565-0.673,1.134-1.381,1.646-1.963c0.162-0.188,0.539-0.558,0.83-0.857l0.92-0.936
				c1.223-1.249,2.435-2.486,3.636-3.713c4.591-5.094,8.734-10.185,12.684-14.972c1.962-2.431,3.94-4.642,5.823-6.878l0.707-0.828
				l0.747-0.781c0.496-0.519,0.988-1.034,1.476-1.545c0.976-1.024,1.936-2.032,2.879-3.023c1.97-1.91,3.872-3.755,5.699-5.527
				c1.872-1.735,3.669-3.4,5.383-4.99c3.462-3.153,6.579-6.024,9.289-8.579c2.73-2.526,4.959-4.842,6.831-6.665
				c3.595-3.81,5.524-5.946,5.524-5.946c-6.745,6.431-13.989,12.216-21.075,18.047c-7.085,5.822-14.013,11.759-20.103,18.267
				c-6.078,6.553-11.325,13.266-16.808,19.29c-1.321,1.552-2.738,2.971-4.128,4.383c-0.693,0.709-1.381,1.413-2.065,2.113
				l-0.53,0.544c-0.26,0.27-0.4,0.443-0.581,0.652l-0.952,1.155c-1.228,1.504-2.436,2.946-3.705,4.208
				c-0.631,0.62-1.283,1.212-1.916,1.639l-0.445,0.283c-0.024,0.013-0.055,0.023-0.086,0.019c-0.046-0.003-0.073-0.048-0.069-0.09
				c0.001-0.022,0.004-0.044,0.011-0.067c0.009-0.023-0.012,0.013,0.042-0.096c0.052-0.11,0.105-0.222,0.17-0.336
				c0.491-0.915,1.159-1.846,1.839-2.74c1.386-1.814,2.882-3.449,4.387-5.233c2.813-3.506,5.488-6.839,8.007-9.978
				c4.809-6.455,9.008-12.115,12.135-17.013c0.832-1.179,1.62-2.297,2.362-3.349c0.372-0.527,0.733-1.037,1.081-1.531
				c0.174-0.247,0.346-0.49,0.514-0.729c0.174-0.232,0.37-0.424,0.549-0.634c1.479-1.633,3.027-2.824,4.17-3.899
				c0.589-0.52,1.068-1.033,1.489-1.459c0.387-0.463,0.738-0.827,0.973-1.162C184.123,366.817,184.362,366.472,184.362,366.472z"/>
		</g>
		<g>
			<path d="M226.02,344.746c-2.491,4.385-4.798,8.859-7.029,13.303c-0.97,1.921-1.937,3.836-2.9,5.742
				c-0.458,0.97-1.001,1.875-1.528,2.786c-0.526,0.912-1.05,1.821-1.573,2.73c-0.996,1.834-2.204,3.568-3.311,5.332
				c-1.108,1.761-2.26,3.498-3.416,5.222c-1.149,1.725-2.287,3.438-3.399,5.178c-0.557,0.865-1.112,1.727-1.665,2.585
				c-0.558,0.85-1.101,1.717-1.616,2.625c-2.09,3.576-3.758,7.177-5.618,10.484l-0.691,1.239l-0.735,1.182l-0.73,1.177l-0.796,1.096
				l-0.789,1.093l-0.874,0.984l-0.864,0.983l-0.957,0.941c-1.285,1.217-2.632,2.363-3.98,3.161
				c-0.656,0.397-1.364,0.677-1.772,0.701c-0.205,0.014-0.262-0.013-0.293-0.023c-0.033-0.022-0.123-0.084-0.235-0.316
				c-0.005,0.077-0.035-0.306,0.047-0.741c0.102-0.461,0.247-0.958,0.436-1.465c0.375-1.013,0.849-2.035,1.359-3.031
				c0.511-0.998,1.054-1.978,1.613-2.935c0.286-0.474,0.569-0.945,0.852-1.414l0.216-0.345l0.108-0.171
				c0.017-0.027,0.136-0.204,0.172-0.288l0.385-0.742c2.064-3.932,3.953-7.722,5.673-11.322c0.825-1.818,1.625-3.581,2.397-5.284
				c0.739-1.722,1.407-3.408,2.07-5.016c0.675-1.62,1.241-3.136,1.803-4.604c0.302-0.722,0.635-1.41,0.939-2.094
				c0.299-0.684,0.615-1.344,0.952-1.974c2.606-5.08,5.025-8.97,6.436-11.747c0.747-1.367,1.241-2.462,1.591-3.188
				c0.346-0.729,0.525-1.107,0.525-1.107c-2.751,4.862-6.108,9.303-9.048,14.082c-0.725,1.201-1.457,2.398-2.097,3.655
				c-0.695,1.229-1.263,2.514-1.836,3.796c-1.176,2.529-2.325,4.976-3.518,7.432c-2.461,4.875-4.991,9.647-7.625,14.299
				l-0.972,1.745c-0.159,0.274-0.341,0.639-0.433,0.75l-0.568,0.856c-0.739,1.143-1.44,2.298-2.103,3.483
				c-0.66,1.188-1.285,2.396-1.82,3.7c-0.269,0.651-0.513,1.33-0.695,2.1c-0.053,0.178-0.085,0.395-0.115,0.61
				c-0.023,0.228-0.077,0.395-0.068,0.673c0.006,0.262-0.003,0.516,0.044,0.797l0.275,0.915c0.253,0.552,0.696,1.209,1.381,1.668
				c0.685,0.474,1.53,0.64,2.199,0.612c1.363-0.065,2.29-0.538,3.163-0.982c1.697-0.941,3.049-2.072,4.345-3.232
				c0.639-0.594,1.264-1.156,1.848-1.81c0.584-0.657,1.165-1.312,1.744-1.964c0.503-0.694,1.005-1.387,1.504-2.075
				c0.501-0.689,0.896-1.416,1.345-2.117c1.703-2.839,3.105-5.708,4.474-8.441c1.376-2.745,2.76-5.261,4.344-7.753
				c3.009-4.99,6.077-9.676,8.678-14.229c2.624-4.551,4.793-8.975,6.5-13.034c1.765-4.045,3.36-7.698,4.759-10.904
				c0.956-2.02,1.786-3.858,2.555-5.51C226.729,344.707,226.371,344.752,226.02,344.746z"/>
		</g>
		<g>
			<path d="M236.752,349.997c-0.817-0.078-1.269-0.036-2.039,0.239c-0.055,0.02-0.11,0.025-0.166,0.037
				c-0.501,1.071-0.999,2.143-1.488,3.213c0.437-0.295,0.98-0.481,1.646-0.481c0.317,0,0.598,0.053,0.863,0.126
				c0.313-0.796,0.623-1.586,0.923-2.352c0.107-0.27,0.209-0.519,0.315-0.784C236.788,349.994,236.77,349.999,236.752,349.997z"/>
			<path d="M239.835,342.452c-0.015-0.994-0.156-1.934,0.052-2.922c-0.003-0.001-0.007-0.002-0.011-0.003
				c-0.973,1.83-1.901,3.678-2.812,5.528c0.354,0.032,0.704,0.106,1.062,0.24c0.177,0.066,0.338,0.157,0.482,0.266
				c0.425-1.026,0.84-2.012,1.243-2.958C239.846,342.553,239.835,342.504,239.835,342.452z"/>
			<path d="M228.659,363.49c-0.033,0-0.06-0.009-0.093-0.01c-0.768,1.72-1.533,3.435-2.298,5.124
				c-3.038,6.646-6.299,12.955-9.868,18.792c-0.876,1.466-1.835,2.855-2.73,4.268l-0.678,1.051
				c-0.097,0.148-0.264,0.416-0.285,0.437c-0.163,0.21-0.29,0.392-0.42,0.578c-0.473,0.705-0.943,1.407-1.411,2.105
				c-0.908,1.36-1.814,2.678-2.77,3.846c-0.475,0.579-0.97,1.124-1.447,1.536c-0.231,0.208-0.482,0.37-0.615,0.44
				c-0.019,0.017-0.027,0.018-0.045,0.02c-0.011-0.002-0.023-0.004-0.034-0.011c-0.011-0.005,0.004,0.001,0.008,0
				c-0.01-0.011-0.022-0.02-0.036-0.029l-0.031-0.089c-0.114-0.196-0.182-0.64-0.216-1.072c-0.051-0.913,0.055-1.954,0.209-2.984
				c0.078-0.518,0.171-1.04,0.269-1.568c0.094-0.507,0.187-1.01,0.28-1.511c0.285-1.025,0.566-2.038,0.844-3.04
				c0.277-1.003,0.551-1.993,0.821-2.972c0.322-0.966,0.639-1.919,0.953-2.859c0.312-0.942,0.619-1.872,0.922-2.788
				c0.306-0.916,0.672-1.798,0.996-2.68c1.28-3.533,2.681-6.783,3.937-9.819c1.352-2.994,2.534-5.789,3.729-8.266
				c2.31-4.989,4.24-8.901,5.538-11.588c1.302-2.686,2.004-4.133,2.004-4.133c-5.614,9.09-11.017,18.383-15.494,27.955
				c-1.127,2.388-2.122,4.825-3.16,7.225c-0.46,1.227-0.919,2.448-1.375,3.665c-0.449,1.221-0.934,2.423-1.289,3.669
				c-0.382,1.236-0.762,2.468-1.14,3.693l-0.282,0.919l-0.07,0.229c-0.017,0.061-0.033,0.093-0.049,0.179l-0.034,0.182l-0.087,0.43
				l-0.386,1.862c-0.239,1.281-0.464,2.58-0.449,4.037c0.004,0.72,0.073,1.509,0.397,2.398c0.105,0.23,0.151,0.436,0.325,0.679
				c0.152,0.219,0.354,0.52,0.564,0.72c0.229,0.194,0.461,0.399,0.722,0.541l0.832,0.347c0.726,0.191,1.507,0.066,2.186-0.24
				c0.611-0.28,0.969-0.56,1.346-0.858c0.726-0.593,1.279-1.205,1.812-1.82c1.049-1.232,1.932-2.489,2.783-3.733
				c0.414-0.617,0.826-1.232,1.236-1.845l0.594-0.873l0.274-0.375c0.127-0.158,0.171-0.247,0.219-0.316l0.149-0.232
				c0.796-1.241,1.585-2.472,2.366-3.69c0.806-1.205,1.486-2.464,2.195-3.689c0.693-1.234,1.417-2.436,2.06-3.661
				c0.631-1.23,1.256-2.448,1.872-3.65c0.306-0.602,0.61-1.201,0.912-1.796c0.28-0.607,0.558-1.21,0.834-1.809
				c0.55-1.198,1.093-2.38,1.628-3.546c0.524-1.169,0.974-2.341,1.452-3.485c0.899-2.174,1.73-4.283,2.538-6.331
				C230.692,363.33,229.681,363.499,228.659,363.49z"/>
		</g>
		<g>
			<path d="M222.646,348.747c1.505-1.995,3.545-3.404,5.705-4.442c2.17-1.039,4.475-1.753,6.806-2.347
				c4.662-1.197,9.443-1.883,14.074-3.392l0.852-0.289l0.79-0.208c0.52-0.138,1.038-0.275,1.553-0.411
				c1.116-0.236,2.222-0.471,3.316-0.702c0.562-0.122,1.122-0.243,1.678-0.364c0.579-0.162,1.155-0.323,1.728-0.483l0.856-0.246
				c0.277-0.091,0.523-0.223,0.785-0.332c0.515-0.229,1.026-0.458,1.534-0.685c4.103-1.768,7.627-3.921,10.869-5.96
				c6.397-4.189,11.24-8.276,14.666-11.086c3.411-2.83,5.333-4.502,5.333-4.502c-4.376,2.526-8.657,5.198-12.836,7.809
				c-4.198,2.58-8.325,5.059-12.401,7.24c-1.022,0.538-2.057,1.022-3.066,1.535c-0.505,0.254-1.008,0.507-1.509,0.758
				c-0.507,0.221-1.012,0.439-1.513,0.656c-1,0.439-1.99,0.872-2.968,1.3c-0.49,0.139-0.977,0.275-1.46,0.411
				c-0.474,0.145-0.964,0.278-1.492,0.389c-1.045,0.243-2.076,0.483-3.09,0.72c-1.019,0.216-2.087,0.543-3.124,0.862
				c-0.539,0.151-1.003,0.325-1.444,0.503c-0.452,0.178-0.899,0.353-1.349,0.496c-0.887,0.314-1.788,0.591-2.669,0.865
				c-3.55,1.068-6.908,1.995-9.811,3.09c-2.907,1.085-5.363,2.332-7.193,3.64c-1.87,1.268-2.972,2.697-3.698,3.615
				C222.967,348.204,222.646,348.747,222.646,348.747z"/>
		</g>
		<g>
			<path d="M240.371,339.53l4.041-0.643l2.024-0.326l2.008-0.389c2.678-0.533,5.356-1.041,8.021-1.525l1.999-0.37l2.004-0.264
				l3.992-0.534c2.701-0.239,5.409-0.496,8.104-0.835c5.386-0.686,10.738-1.646,15.92-3.226c1.28-0.443,2.591-0.807,3.836-1.319
				c1.235-0.521,2.507-1.011,3.701-1.561c2.397-1.107,4.818-2.117,7.143-3.299c18.721-9.463,33.352-22.731,46.534-32.415
				c6.687-4.628,13.668-7.667,19.963-9.915c6.317-2.227,12.04-3.683,16.802-4.491c1.194-0.207,2.306-0.458,3.396-0.59
				c1.079-0.171,2.094-0.259,3.027-0.489c0.932-0.209,1.802-0.357,2.581-0.577c0.773-0.234,1.476-0.447,2.105-0.639
				c0.635-0.169,1.165-0.411,1.629-0.598c0.462-0.189,0.852-0.349,1.166-0.478c0.625-0.258,0.948-0.391,0.948-0.391
				c-2.635,0.867-5.29,1.636-8.029,1.926c-1.351,0.226-2.736,0.267-4.104,0.381c-1.374,0.131-2.759,0.312-4.139,0.469
				c-0.689,0.088-1.385,0.15-2.07,0.261l-2.046,0.363c-1.361,0.258-2.735,0.458-4.082,0.768c-2.684,0.658-5.391,1.228-8.002,2.1
				c-5.293,1.522-10.353,3.67-15.198,6.112c-2.367,1.337-4.77,2.592-6.933,4.21c-2.263,1.516-4.306,3.099-6.377,4.652
				c-8.264,6.234-16.149,12.34-23.951,17.573c-7.782,5.268-15.518,9.578-22.99,12.941c-7.313,3.429-14.73,4.924-21.267,6.133
				c-1.645,0.274-3.236,0.541-4.782,0.771c-1.548,0.228-3.037,0.415-4.48,0.724c-1.438,0.279-2.817,0.547-4.134,0.804
				c-1.313,0.265-2.534,0.623-3.708,0.907c-4.689,1.152-8.292,2.291-10.81,2.834C241.705,339.202,240.371,339.53,240.371,339.53z"/>
		</g>
		<g>
			<path d="M424.251,245.447c-0.238-1.274-0.685-2.523-1.257-3.684c-0.553-1.161-1.249-2.29-2.081-3.306
				c-1.663-2.04-3.752-3.605-5.843-4.986c-2.097-1.388-4.249-2.591-6.221-3.913c-0.496-0.321-0.976-0.676-1.46-1.021l-1.604-1.034
				c-0.53-0.359-1.079-0.667-1.632-0.963c-0.553-0.297-1.097-0.615-1.658-0.892c-4.497-2.208-9.251-3.658-13.975-4.564
				c-4.726-0.936-9.424-1.403-14.004-1.673c-4.606-0.252-8.987-0.431-13.486-0.313c-8.876,0.401-16.953,2.178-24.403,2.963
				c-1.862,0.191-3.688,0.408-5.469,0.459c-0.893,0.046-1.775,0.091-2.648,0.136c-0.892,0.028-1.773,0.055-2.643,0.082
				c-3.482,0.089-6.769,0.289-9.856,0.426c-2.036,0.109-3.973,0.189-5.828,0.262c0.352,0.612,0.707,1.222,1.066,1.829
				c1.658,0.031,3.311,0.049,4.955,0.048c2.485,0.004,4.96,0.009,7.422,0.014c2.463,0.02,4.862,0.08,7.371,0.018
				c4.97-0.051,9.819-0.629,14.51-1.232c4.698-0.577,9.272-1.25,13.717-1.467c0.556-0.032,1.112-0.087,1.663-0.102l1.647-0.01
				c1.102,0.003,2.165-0.043,3.282-0.003c2.221,0.056,4.399,0.121,6.546,0.213c8.572,0.35,16.626,1.235,23.643,3.441
				c3.496,1.093,6.738,2.534,9.534,4.266c2.908,1.935,5.921,3.392,8.491,4.907c2.581,1.521,4.848,3.159,6.368,5.16
				c1.519,2.022,2.536,4.182,2.909,6.274c0.429,2.087,0.393,4.047,0.356,5.741c-0.053,1.7-0.128,3.157-0.145,4.338
				c-0.013,1.182,0.014,2.088,0.057,2.695c0.045,0.607,0.069,0.921,0.069,0.921c-0.001-2.496,0.364-4.95,0.661-7.432
				C424.589,250.572,424.783,248.001,424.251,245.447z"/>
		</g>
		<g>
			<path d="M427.528,275.05c-0.08,0.62-0.06,1.26-0.22,1.9c-0.14,0.64-0.28,1.29-0.42,1.95c-0.11,0.68-0.43,1.29-0.65,1.949
				c-0.25,0.641-0.46,1.32-0.83,1.92c-0.35,0.62-0.69,1.25-1.05,1.881c-0.43,0.569-0.87,1.159-1.31,1.739
				c-0.41,0.62-1,1.091-1.51,1.62l-0.79,0.79c-0.29,0.24-0.6,0.45-0.89,0.681c-0.62,0.43-1.18,0.949-1.85,1.3
				c-0.52,0.279-1.03,0.56-1.55,0.859c-0.14,0.07-0.29,0.15-0.43,0.23c-0.39,0.16-0.78,0.32-1.17,0.47
				c0.34-0.479,0.69-1.02,1.04-1.6c0.13-0.21,0.26-0.431,0.4-0.66c0.21-0.39,0.42-0.8,0.63-1.22c0.33-0.67,0.63-1.391,0.9-2.16
				c0.25-0.771,0.48-1.57,0.61-2.42c0.07-0.42,0.14-0.851,0.14-1.28c0.04-0.44,0.01-0.88-0.03-1.32c0.01-0.449-0.14-0.88-0.2-1.319
				c-0.12-0.42-0.25-0.9-0.41-1.261c-0.33-0.73-0.96-1.23-1.86-1.649c-0.87-0.44-2.05-0.86-2.88-1.9
				c-0.41-0.479-0.66-1.149-0.81-1.649c-0.17-0.52-0.33-1.03-0.49-1.551c-0.35-1.02-0.73-2.02-1.26-2.96
				c-0.54-0.899-1.26-1.72-2.05-2.479c0.09,0.06,0.31,0.2,0.63,0.42c0.23,0.14,0.48,0.34,0.77,0.6c0.3,0.24,0.61,0.57,0.94,0.94
				c0.33,0.38,0.66,0.84,0.97,1.36c0.32,0.51,0.61,1.1,0.91,1.729c0.27,0.62,0.56,1.28,0.86,1.98c0.29,0.6,0.72,1.06,1.38,1.409
				c0.64,0.36,1.47,0.61,2.36,1.08c0.89,0.45,1.82,1.38,2.15,2.45c0.16,0.5,0.36,1,0.43,1.54c0.04,0.26,0.1,0.53,0.13,0.8
				l0.04,0.811c0.05,0.55-0.04,1.09-0.07,1.649c-0.1,0.54-0.16,1.101-0.33,1.62c-0.26,1.03-0.66,2.01-1.14,2.96
				c0.06-0.05,0.13-0.1,0.19-0.16c0.19-0.17,0.39-0.34,0.59-0.51c0.19-0.18,0.35-0.39,0.54-0.59c0.35-0.4,0.72-0.8,1.09-1.22
				c0.36-0.42,0.65-0.91,0.99-1.38c0.72-0.9,1.17-2.011,1.77-3.07c0.23-0.561,0.42-1.14,0.65-1.72c0.1-0.301,0.23-0.58,0.32-0.891
				c0.07-0.3,0.14-0.609,0.22-0.92c0.12-0.63,0.33-1.24,0.41-1.89c0.08-0.65,0.16-1.311,0.24-1.98c0.02-0.67,0.05-1.35,0.08-2.029
				c0.05-0.69-0.05-1.37-0.06-2.061c-0.03-0.34-0.01-0.689-0.06-1.03l-0.17-1.01l-0.16-1.02c-0.07-0.34-0.21-0.66-0.3-0.99
				c-0.9-2.61-2.69-5.17-3.36-8.08c0.03,0.07,0.2,0.4,0.47,0.94c0.32,0.619,0.85,1.48,1.58,2.55c0.72,1.08,1.69,2.34,2.52,4.06
				c0.45,0.86,0.66,1.851,0.93,2.88c0.16,0.53,0.2,1.061,0.27,1.61c0.07,0.55,0.15,1.12,0.2,1.69
				C427.558,272.59,427.678,273.8,427.528,275.05z"/>
		</g>
		<g>
			<path d="M419.239,281.414c-0.579-0.028-1.154-0.079-1.717-0.118c-0.683-0.069-1.353-0.127-2.011-0.223
				c-0.66-0.064-1.301-0.2-1.935-0.282c-0.624-0.137-1.248-0.216-1.838-0.37c-0.597-0.131-1.177-0.269-1.731-0.435
				c-0.566-0.136-1.088-0.337-1.608-0.501c-0.518-0.167-0.99-0.39-1.468-0.561c-0.455-0.215-0.892-0.422-1.308-0.618
				c-0.4-0.229-0.781-0.446-1.14-0.651c-0.34-0.235-0.66-0.457-0.956-0.662c-0.299-0.206-0.533-0.442-0.773-0.631
				c-0.49-0.372-0.787-0.75-1.033-0.98c-0.238-0.237-0.367-0.365-0.367-0.365c0.284,0.644,0.553,1.339,0.983,1.927
				c0.375,0.638,0.886,1.158,1.378,1.709c0.544,0.478,1.08,0.988,1.689,1.366c0.586,0.427,1.217,0.745,1.839,1.065
				c0.633,0.286,1.268,0.556,1.905,0.756c0.638,0.198,1.266,0.384,1.891,0.496c0.62,0.143,1.232,0.219,1.824,0.285
				c0.589,0.085,1.168,0.077,1.716,0.108c1.103,0.018,2.11-0.057,2.995-0.171c0.655-0.097,1.217-0.205,1.728-0.322
				C419.249,281.965,419.228,281.69,419.239,281.414z"/>
		</g>
		<g>
			<path d="M402.405,276.672c-0.168-0.292-0.35-0.569-0.503-0.858c-0.118-0.309-0.285-0.591-0.36-0.905
				c-0.076-0.314-0.183-0.613-0.182-0.931c-0.009-0.156-0.031-0.312-0.033-0.465l0.051-0.457c0.001-0.306,0.15-0.588,0.218-0.875
				c0.103-0.28,0.272-0.537,0.397-0.803l0.534-0.702c0.204-0.19,0.434-0.392,0.68-0.58c0.975-0.756,2.063-1.383,3.141-1.813
				c0.272-0.096,0.54-0.195,0.806-0.255c0.265-0.069,0.529-0.116,0.771-0.124c0.122-0.004,0.248-0.02,0.353,0.003
				c0.035,0.006,0.037,0.001,0.101,0.014l0.238,0.051c0.146,0.004,0.347,0.143,0.528,0.233c0.665,0.356,1.325,0.711,1.98,1.063
				c-0.307-0.671-0.611-1.34-0.914-2.006c-0.112-0.208-0.115-0.324-0.129-0.449l-0.024-0.189l0.01-0.045
				c0.018-0.063,0.005-0.114,0.048-0.189c0.105-0.274,0.269-0.574,0.475-0.863c0.406-0.584,0.915-1.139,1.437-1.657
				c1.042-1.047,2.151-1.959,3.166-2.884c0.251-0.208,0.506-0.356,0.752-0.537c0.247-0.173,0.478-0.355,0.759-0.49
				c0.54-0.279,1.035-0.602,1.549-0.821c0.512-0.224,0.995-0.46,1.458-0.648c0.235-0.079,0.464-0.155,0.685-0.229
				c0.207-0.072,0.408-0.143,0.601-0.209c0.095-0.052,0.205-0.029,0.286,0.028c0.085,0.053,0.148,0.112,0.245,0.232
				c0.176,0.21,0.322,0.448,0.454,0.668c0.262,0.444,0.467,0.843,0.639,1.162c0.171,0.32,0.308,0.564,0.412,0.723
				c0.099,0.161,0.167,0.231,0.167,0.231c-0.165-0.315-0.262-0.656-0.377-0.992c-0.112-0.338-0.221-0.677-0.346-1.014
				c-0.126-0.338-0.259-0.674-0.444-1.007c-0.088-0.152-0.203-0.35-0.401-0.518c-0.087-0.09-0.2-0.138-0.311-0.192
				c-0.12-0.014-0.243-0.04-0.363-0.022l-1.125,0.226c-0.366,0.06-0.714,0.162-1.054,0.28l-1.029,0.334
				c-0.346,0.104-0.665,0.273-0.997,0.408l-0.983,0.439l-0.961,0.573c-0.337,0.184-0.607,0.406-0.864,0.614l-0.795,0.624
				c-1.062,0.842-2.089,1.713-3.003,2.7c-0.448,0.51-0.89,1.014-1.234,1.661c-0.095,0.145-0.162,0.337-0.236,0.511
				c-0.08,0.166-0.133,0.366-0.167,0.582c-0.003,0.085,0.003,0.035,0.011,0.065c0.01,0.017-0.001,0.006-0.009,0.012
				c-0.006,0.002-0.01,0.002-0.007,0.003c-0.144-0.008-0.343-0.031-0.495-0.009c-0.666,0.025-1.235,0.212-1.769,0.409
				c-1.056,0.419-1.941,0.976-2.72,1.567c-0.391,0.294-0.751,0.605-1.086,0.922c-0.311,0.324-0.689,0.646-0.89,1.058
				c-0.114,0.192-0.226,0.382-0.335,0.568c-0.087,0.196-0.155,0.396-0.228,0.588c-0.173,0.371-0.189,0.779-0.259,1.139
				c-0.017,0.369-0.003,0.724,0.036,1.046c0.083,0.316,0.121,0.621,0.233,0.879c0.115,0.257,0.211,0.497,0.319,0.704
				c0.127,0.195,0.244,0.374,0.348,0.533c0.202,0.32,0.43,0.513,0.548,0.664C402.337,276.596,402.405,276.672,402.405,276.672z"/>
		</g>
		<g>
			<path d="M419.837,259.909c-0.375,0-0.668,0.057-0.908,0.323c-0.041,0.046-0.088,0.139-0.137,0.235
				c0.341-0.096,0.697-0.105,0.967,0.018c-0.353,0.328-0.482,0.823-0.163,1.344c0.497,0.809,1.366,0.356,1.417-0.464
				C421.059,260.642,420.562,259.908,419.837,259.909z"/>
		</g>
		<path d="M401.009,253.926c0,2.552-2.167,4.62-4.84,4.62c-2.673,0-4.84-2.068-4.84-4.62c0-2.55,2.167-4.618,4.84-4.618
			C398.842,249.308,401.009,251.376,401.009,253.926z"/>
		<path style="fill:#FFFFFF;" d="M398.153,251.241c0,0.686-0.556,1.241-1.241,1.241c-0.685,0-1.241-0.556-1.241-1.241
			c0-0.686,0.556-1.241,1.241-1.241C397.598,250,398.153,250.556,398.153,251.241z"/>
		<g>
			<path d="M401.09,273.997l-0.213,0.073l-0.647,0.156c-0.428,0.107-0.853,0.214-1.275,0.319c-0.828,0.245-1.706,0.35-2.538,0.523
				c-1.674,0.336-3.327,0.557-4.884,0.868c-0.776,0.148-1.532,0.292-2.263,0.432c-0.712,0.133-1.417,0.255-2.102,0.367
				c-0.681,0.124-1.347,0.248-1.97,0.403c-0.613,0.176-1.196,0.342-1.745,0.499c-1.066,0.317-1.992,0.585-2.765,0.847
				c-1.517,0.527-2.396,0.833-2.396,0.833c1.816-0.285,3.583-0.589,5.396-0.895c0.914-0.145,1.713-0.35,2.596-0.43
				c0.878-0.104,1.745-0.205,2.598-0.306c1.757-0.232,3.338-0.548,4.92-0.826c0.783-0.151,1.542-0.271,2.279-0.451
				c0.734-0.177,1.444-0.348,2.127-0.512c0.68-0.18,1.322-0.43,1.934-0.63c0.393-0.133,0.764-0.269,1.121-0.414
				C401.165,274.564,401.107,274.277,401.09,273.997z"/>
		</g>
		<g>
			<path d="M252.001,348.908c-0.047-1.469-0.328-2.87-0.759-4.101c-0.24-0.594-0.45-1.168-0.73-1.676
				c-0.251-0.521-0.514-1.005-0.8-1.441c-0.263-0.449-0.536-0.858-0.826-1.224c-0.278-0.37-0.525-0.724-0.814-1.012
				c-0.277-0.295-0.519-0.575-0.765-0.812c-0.262-0.219-0.5-0.418-0.714-0.596c-0.4-0.38-0.827-0.523-1.055-0.684
				c-0.245-0.138-0.371-0.209-0.371-0.209c1.843,1.416,2.939,3.466,3.781,5.507c0.205,0.515,0.366,1.046,0.542,1.563
				c0.114,0.53,0.307,1.056,0.361,1.573c0.037,0.26,0.086,0.513,0.116,0.773l0.027,0.801c0.041,0.527-0.006,1.068-0.026,1.601
				c-0.131,2.133-0.597,4.232-1.3,6.195c-0.197,0.481-0.372,0.972-0.578,1.44c-0.23,0.468-0.407,0.906-0.67,1.392
				c-0.508,0.965-1.012,1.922-1.512,2.871c-0.997,1.892-1.95,3.779-2.843,5.678c-0.447,0.943-0.889,1.876-1.326,2.798
				c-0.449,0.92-0.821,1.86-1.214,2.646c-0.392,0.792-0.825,1.469-1.293,1.902c-0.111,0.117-0.23,0.221-0.365,0.291l-0.19,0.129
				c-0.057,0.036-0.063,0.019-0.092,0.042c-0.103,0.047-0.332,0.091-0.658,0.042c-0.307-0.024-0.674-0.126-1.034-0.238
				c-0.369-0.124-0.742-0.268-0.968-0.401c-0.553-0.298-0.844-0.687-0.971-1.07c-0.034-0.101-0.031-0.213-0.058-0.322
				c0.02-0.125-0.001-0.232,0.026-0.375c0.085-0.293,0.111-0.614,0.257-0.868c0.211-0.55,0.604-1.026,1.129-1.508
				c0.499-0.478,1.124-0.956,1.698-1.478c0.586-0.505,1.095-1.099,1.607-1.625c0.515-0.53,0.881-1.155,1.297-1.695
				c0.386-0.563,0.68-1.145,0.999-1.68c0.571-1.101,1.04-2.124,1.424-3.054c0.775-1.857,1.36-3.303,1.81-4.275
				c0.08-0.165,0.144-0.298,0.21-0.436c0.501-0.481,0.943-0.973,1.284-1.468c0.528-0.717,0.91-1.4,1.237-1.991
				c0.307-0.598,0.567-1.106,0.779-1.52c0.416-0.825,0.638-1.268,0.638-1.268c-1.217,1.536-2.305,3.205-3.666,4.484
				c-0.688,0.643-1.403,1.16-2.244,1.638c-0.819,0.486-1.636,0.971-2.448,1.453c-0.838,0.439-1.673,0.875-2.503,1.309
				c-0.833,0.429-1.691,0.815-2.523,1.228c-0.826,0.411-1.692,0.798-2.532,1.196l-1.259,0.595l-1.125,0.466
				c-1.57,0.539-3.298,0.855-5.123,1.368c-0.461,0.153-0.808,0.272-1.157,0.354c-0.333,0.078-0.658,0.131-0.848,0.106
				c-0.209-0.03-0.213-0.031-0.363-0.134c-0.14-0.116-0.316-0.35-0.477-0.617c-0.158-0.27-0.317-0.618-0.453-0.949
				c-0.112-0.268-0.152-0.479-0.158-0.601c0.012-0.108,0.019-0.158,0.123-0.293c0.104-0.127,0.306-0.292,0.57-0.44
				c0.532-0.299,1.238-0.555,1.938-0.818c0.722-0.307,1.501-0.592,2.164-0.943c1.359-0.685,2.553-1.436,3.688-2.06
				c1.134-0.634,2.232-1.335,3.245-1.946c2.017-1.248,3.776-2.337,5.226-3.234c2.883-1.773,4.525-2.846,4.525-2.846
				c-1.462,0.579-2.925,1.188-4.387,1.801c-0.693-0.468-1.491-0.801-2.317-0.94c-0.439-0.1-0.982-0.112-1.445-0.064
				c-0.458,0.05-0.897,0.139-1.276,0.189c-0.392,0.059-0.725,0.071-1.004,0.012c-0.142-0.022-0.274-0.066-0.398-0.134
				c-0.061-0.029-0.134-0.048-0.187-0.08c-0.039-0.04-0.078-0.076-0.12-0.108c-0.316-0.225-0.389-0.833-0.35-1.536
				c0.015-0.344,0.059-0.716,0.112-1.065c0.053-0.347,0.134-0.629,0.139-0.576c-0.06-0.007,0.137-0.063,0.438-0.081
				c0.326,0.022,0.646,0.044,0.962,0.065c0.644,0.037,1.52,0.108,2.072,0.103c1.641,0.047,3.099,0.149,4.331,0.291
				c0.122,0.116,0.247,0.224,0.368,0.316c0.252,0.214,0.493,0.369,0.717,0.467c0.429,0.212,0.682,0.291,0.682,0.291
				c-0.421-1.084-0.739-1.905-1.025-2.641c-0.259-0.788-0.566-1.489-0.789-2.153c-0.134-0.323-0.244-0.632-0.349-0.909
				c-0.114-0.276-0.217-0.523-0.294-0.731c-0.165-0.413-0.295-0.66-0.295-0.66c-0.473,0.97-0.632,2.036-0.502,3.025
				c0.102,0.656,0.313,1.269,0.595,1.797c-0.771-0.184-1.543-0.335-2.314-0.453c-0.427-0.063-0.833-0.119-1.279-0.16
				c-0.446-0.043-0.778-0.103-1.167-0.146c-0.426-0.051-0.848-0.102-1.267-0.15c-0.422-0.052-0.898-0.091-1.547,0.143
				c-0.342,0.139-0.679,0.428-0.836,0.741l-0.123,0.236l-0.064,0.196c-0.045,0.136-0.079,0.263-0.095,0.366
				c-0.093,0.45-0.126,0.821-0.163,1.233c-0.044,0.787-0.097,1.71,0.457,2.619c0.276,0.439,0.714,0.783,1.133,0.951
				c0.413,0.17,0.852,0.27,1.268,0.267c0.834-0.011,1.462-0.252,2.015-0.395c0.568-0.156,0.986-0.241,1.503-0.199
				c0.548,0.015,1.035,0.12,1.488,0.254c-0.016,0.007-0.032,0.013-0.048,0.02c-1.803,0.75-3.501,1.568-5.221,2.366
				c-0.852,0.406-1.7,0.811-2.545,1.215c-0.866,0.397-1.759,0.794-2.583,1.198c-0.845,0.415-1.651,0.769-2.461,1.113l-1.207,0.429
				c-0.443,0.147-0.884,0.293-1.324,0.439c-0.462,0.162-0.941,0.346-1.441,0.613c-0.492,0.271-1.04,0.628-1.489,1.255
				c-0.461,0.622-0.643,1.513-0.552,2.207c0.086,0.686,0.34,1.254,0.505,1.654c0.201,0.458,0.444,0.93,0.779,1.401
				c0.331,0.465,0.823,0.972,1.528,1.289c0.72,0.319,1.418,0.321,1.962,0.255c0.561-0.065,1.053-0.194,1.49-0.336
				c0.468-0.141,0.786-0.287,1.174-0.377c0.379-0.105,0.755-0.209,1.128-0.312c0.796-0.229,1.565-0.395,2.373-0.682
				c0.399-0.14,0.792-0.247,1.184-0.412c0.39-0.184,0.776-0.366,1.16-0.546c0.738-0.365,1.341-0.718,1.997-1.069
				c1.279-0.684,2.511-1.426,3.673-2.107c1.159-0.698,2.225-1.439,3.236-2.1c0.96-0.74,1.86-1.434,2.693-2.075
				c0.004-0.003,0.007-0.007,0.011-0.01c-0.882,1.302-1.687,2.658-2.505,3.97c-1.185,1.908-2.439,3.711-3.985,5.115
				c-0.794,0.691-1.579,1.329-2.517,1.945c-0.908,0.631-2.019,1.441-2.73,2.713c-0.371,0.637-0.568,1.266-0.713,2.016
				c-0.147,0.765-0.017,1.658,0.326,2.408c0.339,0.767,0.892,1.37,1.472,1.803c0.283,0.237,0.608,0.407,0.923,0.593
				c0.292,0.139,0.581,0.269,0.866,0.378c0.584,0.221,1.181,0.43,1.905,0.518c0.704,0.084,1.591,0.085,2.476-0.36
				c1.316-0.655,2.219-1.79,2.82-2.788c0.62-1.024,1.029-2.025,1.441-2.931c0.422-0.906,0.839-1.803,1.251-2.688
				c0.821-1.772,1.586-3.502,2.396-5.19c0.788-1.698,1.553-3.293,2.255-4.922c0.726-1.71,1.157-3.4,1.434-5.035
				C252.006,351.965,252.078,350.385,252.001,348.908z"/>
			<path d="M231.772,345.867c0,0-8.346,0.547-2.408,7.775c0,0-1.082-4.841,2.408-4.476
				C231.772,349.167,231.142,347.654,231.772,345.867z"/>
			<path d="M221.122,360.609c0,0-7.219,1.525-4.806,7.824c0,0,1.43,4.039,5.809,3.873c0,0-3.663-1.431-3.731-4.724
				c0,0-0.23-2.398,4.252-3.299C222.646,364.284,221.012,362.126,221.122,360.609z"/>
			<path d="M234.277,374.287c0,0-4.289,3.841-8.578-0.985c0,0,1.608,9.383,11.528,3.038
				C237.228,376.34,234.974,375.658,234.277,374.287z"/>
		</g>
		<g>
			<g>
				<path d="M262.844,346.844c-0.521,1.142-1.039,2.28-1.555,3.412c-0.498,1.142-1.041,2.251-1.562,3.355
					c-0.264,0.55-0.572,1.07-0.849,1.604c-0.289,0.548-0.543,1.033-0.887,1.494c-0.663,0.96-1.47,1.853-2.075,3.086
					c-0.141,0.324-0.282,0.659-0.334,1.087c-0.064,0.403-0.016,0.917,0.212,1.354c0.483,0.877,1.246,1.186,1.853,1.426
					c0.315,0.112,0.611,0.17,0.917,0.253c0.323,0.076,0.744,0.126,1.131,0.079c0.795-0.087,1.455-0.48,1.943-0.901
					c0.984-0.866,1.553-1.863,2.043-2.82c0.483-0.963,0.85-1.915,1.161-2.836c1.214-3.691,1.678-6.863,2.043-9.061
					c0.073-0.541,0.203-1.052,0.2-1.498c0.044-0.442-0.012-0.822-0.037-1.124c-0.032-0.302-0.127-0.524-0.159-0.675
					c-0.041-0.148-0.063-0.226-0.063-0.226c0.208,1.288-0.215,2.452-0.612,3.661c-0.379,1.204-0.755,2.399-1.127,3.582
					c-0.764,2.351-1.562,4.646-2.564,6.689c-0.505,1.008-1.073,1.969-1.744,2.658c-0.332,0.344-0.69,0.6-1.02,0.702
					c-0.352,0.103-0.569,0.088-1.107-0.061L258.304,362l-0.294-0.118c-0.223-0.064-0.333-0.173-0.486-0.251
					c-0.203-0.192-0.251-0.268-0.228-0.586c0.029-0.306,0.204-0.717,0.42-1.107c0.206-0.393,0.466-0.789,0.715-1.181
					c0.5-0.775,1.045-1.59,1.398-2.432c0.335-0.811,0.678-1.57,0.939-2.302c0.247-0.734,0.478-1.422,0.691-2.059
					c0.185-0.641,0.355-1.229,0.51-1.762C262.564,348.074,262.844,346.844,262.844,346.844z"/>
			</g>
			<g>
				<path d="M250.469,353.202c-0.159,0.862-0.404,1.703-0.697,2.54c0.294-0.178,0.593-0.359,0.883-0.534
					c0.563-0.344,1.116-0.682,1.661-1.015l0.406-0.249c0.07-0.046,0.119-0.068,0.243-0.153l0.203-0.157
					c0.255-0.197,0.507-0.394,0.757-0.588c0.966-0.811,1.874-1.612,2.672-2.46c0.814-0.827,1.53-1.688,2.147-2.56
					c0.331-0.412,0.563-0.902,0.83-1.33c0.253-0.442,0.405-0.932,0.596-1.369c0.292-0.943,0.402-1.874,0.284-2.694
					c-0.048-0.41-0.096-0.8-0.207-1.154c-0.094-0.357-0.175-0.7-0.299-1.006c-0.432-1.25-0.906-2.149-1.195-2.776
					c-0.3-0.621-0.46-0.951-0.46-0.951c0.356,1.15,0.752,2.295,1.038,3.446c0.298,1.145,0.453,2.327,0.271,3.414l-0.056,0.407
					l-0.141,0.388c-0.102,0.256-0.157,0.517-0.307,0.762l-0.383,0.742l-0.484,0.692c-0.653,0.917-1.458,1.744-2.275,2.536
					c-0.839,0.776-1.695,1.528-2.595,2.206c-0.44,0.353-0.9,0.665-1.35,0.988c-0.477,0.271-0.951,0.54-1.422,0.808
					C250.548,353.157,250.509,353.18,250.469,353.202z"/>
				<path d="M261.909,348.696c-0.331,0.605-0.678,1.195-1.046,1.767c-0.376,0.566-0.779,1.105-1.207,1.612
					c-0.223,0.245-0.455,0.478-0.678,0.716l-0.732,0.635l-0.029,0.027c-1.136,1.01-2.535,1.619-3.999,2.31
					c-0.744,0.364-1.437,0.718-2.172,1.25c-0.737,0.535-1.297,1.267-1.744,1.913c-0.442,0.64-0.87,1.256-1.291,1.594
					c-0.28,0.222-0.666,0.361-1.088,0.404c-0.184,0.611-0.371,1.223-0.568,1.831c0.849,0.03,1.71-0.151,2.475-0.644
					c0.544-0.398,0.88-0.817,1.169-1.228c0.302-0.415,0.531-0.813,0.766-1.183c0.46-0.743,0.903-1.307,1.518-1.727
					c0.654-0.471,1.324-0.867,2.005-1.248c0.68-0.39,1.355-0.754,1.97-1.191c0.614-0.411,1.148-0.896,1.618-1.378
					c0.237-0.248,0.467-0.488,0.691-0.723c0.198-0.253,0.391-0.499,0.578-0.737c0.183-0.24,0.328-0.494,0.484-0.727
					c0.159-0.232,0.284-0.472,0.408-0.7c0.508-0.906,0.832-1.723,1.099-2.378c0.501-1.325,0.708-2.049,0.708-2.049
					C262.544,347.47,262.232,348.088,261.909,348.696z"/>
			</g>
			<path d="M269.19,346.257c-0.037-0.537-0.073-1.06-0.108-1.565c-0.038-0.993-0.245-2.034-0.534-2.871
				c-0.145-0.428-0.334-0.814-0.488-1.191c-0.186-0.359-0.362-0.702-0.53-1.027c-0.717-1.266-1.274-2.235-1.628-2.923
				c-0.324-0.698-0.497-1.072-0.497-1.072c0.397,1.592,1.139,3.092,1.725,4.588c0.143,0.375,0.295,0.747,0.399,1.127
				c0.127,0.375,0.23,0.752,0.291,1.134c0.096,0.376,0.126,0.757,0.143,1.136c0.04,0.367,0.027,0.773,0.022,1.175
				c-0.009,0.8-0.004,1.598-0.068,2.379l-0.066,1.171c-0.037,0.386-0.103,0.765-0.151,1.146c-0.056,0.378-0.097,0.76-0.16,1.132
				l-0.276,1.084c-0.103,0.36-0.151,0.719-0.293,1.075l-0.421,1.067c-0.581,1.413-1.039,2.823-1.67,4.176
				c-0.591,1.382-1.173,2.643-1.715,4.046c-0.506,1.368-0.905,2.678-1.366,3.904c-0.453,1.225-0.949,2.376-1.577,3.316
				c-0.316,0.472-0.668,0.863-1.048,1.132c-0.392,0.263-0.869,0.46-1.343,0.533c-0.947,0.16-1.934-0.045-2.555-0.597
				c-0.184-0.151-0.327-0.333-0.448-0.526c-0.004-0.015-0.01-0.028-0.014-0.043c-0.139-0.532-0.142-1.089-0.034-1.599
				c0.116-0.524,0.305-0.936,0.663-1.395c0.884-1.316,2.059-2.447,3.075-3.642c-0.206-0.042-0.405-0.11-0.6-0.191
				c0.153-0.19,0.234-0.302,0.234-0.302c-0.096,0.097-0.201,0.182-0.299,0.274c-0.325-0.143-0.629-0.33-0.89-0.564
				c-0.548,0.573-1.106,1.143-1.611,1.762c-0.405,0.421-0.72,0.939-1.029,1.423c-0.153,0.246-0.307,0.472-0.446,0.725
				c-0.139,0.272-0.257,0.549-0.334,0.841c-0.318,1.151-0.138,2.256,0.283,3.079c0.189,0.392,0.441,0.708,0.713,0.965
				c0.011,0.011,0.017,0.023,0.028,0.033c0.003,0.003,0.007,0.006,0.011,0.009c0.039,0.036,0.08,0.063,0.12,0.097
				c0.687,0.617,1.578,0.923,2.45,0.988c0.936,0.073,1.873-0.135,2.712-0.604c0.858-0.499,1.428-1.222,1.904-1.918
				c0.473-0.71,0.845-1.443,1.178-2.175c0.654-1.462,1.147-2.929,1.652-4.308c0.478-1.337,1.114-2.675,1.656-3.992
				c0.579-1.296,1.057-2.612,1.503-3.892c0.225-0.638,0.446-1.265,0.664-1.88c0.121-0.299,0.204-0.618,0.261-0.95
				c0.066-0.325,0.132-0.646,0.197-0.965c0.156-0.636,0.208-1.259,0.247-1.868c0.042-0.609,0.116-1.204,0.089-1.778
				C269.203,347.36,269.196,346.801,269.19,346.257z"/>
			<path d="M257.507,362.907c0,0-1.083,5.405-5.823,3.198c0,0,4.529,6.157,7.913-2.99L257.507,362.907z"/>
			<path d="M255.641,371.476c0,0-2.834,6.547-10.117,2.942c0,0,6.783,7.664,13.132-2.284L255.641,371.476z"/>
		</g>
		<g>
			<path d="M317.238,304c1.084-0.883,2.153-1.775,3.206-2.676c1.037-0.915,2.125-1.77,3.182-2.643
				c2.114-1.753,4.192-3.477,6.206-5.147c4.031-3.358,7.764-6.582,10.828-9.535c0.763-0.737,1.496-1.445,2.194-2.119
				c0.67-0.702,1.307-1.37,1.906-1.998c0.592-0.632,1.146-1.224,1.659-1.771c0.511-0.549,0.938-1.098,1.342-1.571
				c1.597-1.918,2.477-3.038,2.477-3.038c-1.082,0.923-2.147,1.853-3.192,2.785c-1.025,0.954-2.128,1.819-3.175,2.721
				c-1.056,0.893-2.074,1.804-3.13,2.654c-1.035,0.873-2.057,1.734-3.06,2.581c-4.034,3.378-7.753,6.59-10.82,9.501
				c-1.55,1.432-2.915,2.809-4.106,4.046c-0.594,0.618-1.151,1.196-1.665,1.731c-0.503,0.547-0.945,1.069-1.351,1.532
				C318.124,302.915,317.238,304,317.238,304z"/>
		</g>
		<g>
			<path d="M331.738,286c1.197-1.037,2.365-2.102,3.495-3.174c1.114-1.086,2.258-2.11,3.328-3.142
				c1.084-1.016,2.072-2.065,3.079-2.986c0.997-0.933,1.929-1.829,2.784-2.668c0.424-0.421,0.832-0.825,1.221-1.211
				c0.403-0.366,0.786-0.715,1.147-1.044c0.71-0.663,1.335-1.246,1.851-1.727c1.007-0.978,1.596-1.548,1.596-1.548
				c-1.334,0.89-2.647,1.815-3.921,2.751c-0.636,0.47-1.276,0.927-1.852,1.441c-0.586,0.507-1.162,1.007-1.728,1.497
				c-1.114,1.005-2.225,1.943-3.175,2.935c-0.964,0.978-1.861,1.916-2.68,2.789c-1.661,1.725-2.881,3.309-3.779,4.373
				C332.24,285.37,331.738,286,331.738,286z"/>
		</g>
		<g>
			<path d="M341.238,272c0.579-0.343,1.175-0.686,1.704-1.1c0.546-0.394,1.051-0.815,1.542-1.224
				c0.496-0.395,0.951-0.814,1.415-1.159c0.227-0.18,0.447-0.355,0.663-0.525c0.223-0.151,0.44-0.3,0.651-0.443
				c0.212-0.137,0.399-0.3,0.608-0.397c0.2-0.11,0.393-0.217,0.575-0.317c0.355-0.219,0.686-0.363,0.967-0.466
				c0.54-0.227,0.875-0.368,0.875-0.368c-0.349,0.081-0.683,0.159-1.005,0.234c-0.342,0.066-0.663,0.189-0.974,0.33
				c-0.31,0.14-0.636,0.253-0.925,0.421c-0.291,0.175-0.573,0.345-0.849,0.511c-0.285,0.162-0.523,0.375-0.776,0.557
				c-0.246,0.19-0.495,0.37-0.712,0.567c-0.446,0.386-0.863,0.755-1.234,1.105c-0.748,0.697-1.358,1.282-1.815,1.662
				C341.51,271.766,341.238,272,341.238,272z"/>
		</g>
		<g>
			<path d="M302.738,270c3.911-1.965,7.815-3.965,11.288-6.297c0.87-0.576,1.7-1.193,2.5-1.81c0.791-0.635,1.558-1.266,2.256-1.944
				c0.729-0.641,1.345-1.368,1.974-2.032c0.577-0.714,1.154-1.389,1.632-2.094c0.464-0.715,0.953-1.369,1.302-2.063
				c0.367-0.683,0.747-1.312,1.003-1.953c0.27-0.635,0.554-1.212,0.75-1.773c0.19-0.561,0.366-1.078,0.524-1.546
				c0.315-0.931,0.449-1.698,0.587-2.203c0.12-0.51,0.184-0.783,0.184-0.783c-0.48,1.011-0.847,2.053-1.373,3.02
				c-0.246,0.489-0.491,0.977-0.734,1.461c-0.274,0.468-0.547,0.933-0.819,1.396c-0.253,0.472-0.562,0.907-0.858,1.346
				c-0.306,0.431-0.563,0.89-0.899,1.29c-0.318,0.412-0.633,0.822-0.946,1.229c-0.337,0.386-0.672,0.769-1.004,1.148
				c-0.32,0.39-0.68,0.739-1.029,1.091c-0.355,0.347-0.676,0.717-1.048,1.033c-0.714,0.66-1.42,1.299-2.148,1.881
				c-0.7,0.611-1.446,1.137-2.13,1.688c-0.712,0.521-1.4,1.023-2.062,1.507c-2.677,1.9-4.957,3.456-6.517,4.595
				C303.607,269.318,302.738,270,302.738,270z"/>
		</g>
		<g>
			<path d="M317.238,254.5c0.378-0.342,0.748-0.677,1.11-1.004c0.379-0.33,0.707-0.705,1.034-1.079
				c0.318-0.38,0.673-0.731,0.944-1.137c0.284-0.402,0.562-0.796,0.835-1.184c0.265-0.395,0.481-0.811,0.713-1.208
				c0.232-0.398,0.446-0.792,0.619-1.194c0.376-0.791,0.701-1.553,0.943-2.277c0.272-0.715,0.466-1.388,0.629-1.986
				c0.174-0.596,0.304-1.12,0.391-1.558c0.177-0.859,0.282-1.373,0.282-1.373c-0.388,0.939-0.713,1.893-1.1,2.802
				c-0.192,0.455-0.346,0.92-0.551,1.356c-0.192,0.445-0.38,0.881-0.564,1.308c-0.185,0.429-0.402,0.832-0.59,1.238
				c-0.189,0.406-0.375,0.803-0.59,1.171c-0.202,0.374-0.398,0.738-0.589,1.092c-0.196,0.35-0.414,0.67-0.605,0.989
				c-0.373,0.645-0.769,1.2-1.123,1.693c-0.338,0.505-0.654,0.931-0.937,1.264C317.556,254.094,317.238,254.5,317.238,254.5z"/>
		</g>
		<g>
			<path d="M318.738,247.5c0.426-0.621,0.855-1.248,1.217-1.903c0.388-0.642,0.692-1.317,0.999-1.967
				c0.255-0.672,0.538-1.313,0.698-1.958c0.087-0.318,0.173-0.629,0.256-0.932c0.056-0.306,0.11-0.603,0.163-0.89
				c0.044-0.287,0.112-0.557,0.124-0.822c0.02-0.262,0.039-0.512,0.058-0.749c0.046-0.47,0.046-0.88,0.028-1.219
				c-0.026-0.657-0.042-1.061-0.042-1.061c-0.125,0.762-0.157,1.52-0.322,2.25c-0.074,0.365-0.116,0.731-0.204,1.084
				c-0.086,0.357-0.17,0.704-0.252,1.044c-0.067,0.346-0.197,0.67-0.285,0.997c-0.101,0.322-0.177,0.645-0.297,0.946
				c-0.107,0.304-0.211,0.599-0.313,0.887c-0.091,0.29-0.221,0.556-0.32,0.82c-0.406,1.054-0.809,1.912-1.079,2.518
				C318.901,247.138,318.738,247.5,318.738,247.5z"/>
		</g>
	</g>
</g>
</svg>
