<?xml version="1.0" encoding="utf-8"?>
<!-- Generator: Adobe Illustrator 27.5.0, SVG Export Plug-In . SVG Version: 6.00 Build 0)  -->
<svg version="1.1" xmlns="http://www.w3.org/2000/svg" xmlns:xlink="http://www.w3.org/1999/xlink" x="0px" y="0px"
	 viewBox="0 0 500 500" style="enable-background:new 0 0 500 500;" xml:space="preserve">
<g id="Background">
	<rect style="fill:#FFFFFF;" width="500" height="500"/>
</g>
<g id="Layer_1">
	<g>
		<path style="stroke:#000000;stroke-width:1.8663;stroke-linecap:round;stroke-linejoin:round;stroke-miterlimit:10;" d="
			M123.771,184.938c0,0-2.978,0.106-3.458,5.58h0.002c-0.48-5.474-3.458-5.58-3.458-5.58v-0.001c0,0,2.978-0.106,3.458-5.58h-0.002
			c0.48,5.474,3.458,5.58,3.458,5.58V184.938z"/>
		<path style="stroke:#000000;stroke-width:1.8663;stroke-linecap:round;stroke-linejoin:round;stroke-miterlimit:10;" d="
			M324.923,91.812c0,0-2.978,0.106-3.458,5.58h0.002c-0.48-5.474-3.458-5.58-3.458-5.58v-0.001c0,0,2.978-0.106,3.458-5.58h-0.002
			C321.945,91.704,324.923,91.811,324.923,91.812L324.923,91.812z"/>
		<path style="stroke:#000000;stroke-width:1.8663;stroke-linecap:round;stroke-linejoin:round;stroke-miterlimit:10;" d="
			M104.649,305.737c0,0-2.978,0.107-3.458,5.58h0.002c-0.48-5.474-3.458-5.58-3.458-5.58v-0.001c0,0,2.978-0.106,3.458-5.58h-0.002
			c0.48,5.474,3.458,5.58,3.458,5.58V305.737z"/>
		<path style="stroke:#000000;stroke-width:1.8663;stroke-linecap:round;stroke-linejoin:round;stroke-miterlimit:10;" d="
			M85.328,298.737c0,0-2.978,0.107-3.458,5.58h0.001c-0.48-5.474-3.457-5.58-3.457-5.58v-0.001c0,0,2.977-0.106,3.457-5.58H81.87
			c0.48,5.474,3.458,5.58,3.458,5.58V298.737z"/>
		<path style="stroke:#000000;stroke-width:1.8663;stroke-linecap:round;stroke-linejoin:round;stroke-miterlimit:10;" d="
			M97.405,330.952c0,0-2.978,0.107-3.458,5.58h0.001c-0.48-5.474-3.457-5.58-3.457-5.58v-0.001c0,0,2.977-0.107,3.457-5.58h-0.001
			C94.428,330.845,97.405,330.951,97.405,330.952L97.405,330.952z"/>
		<path style="stroke:#000000;stroke-width:1.8663;stroke-linecap:round;stroke-linejoin:round;stroke-miterlimit:10;" d="
			M331.452,262.015c0,0-2.069,0.074-2.401,3.875l0,0c-0.334-3.801-2.4-3.875-2.4-3.875l0,0c0,0,2.066-0.075,2.4-3.876l0,0
			C329.383,261.94,331.452,262.015,331.452,262.015L331.452,262.015z"/>
		<path style="stroke:#000000;stroke-width:1.8663;stroke-linecap:round;stroke-linejoin:round;stroke-miterlimit:10;" d="
			M413.136,311.53c0,0-2.069,0.074-2.401,3.875l0,0c-0.334-3.801-2.4-3.875-2.4-3.875l0,0c0,0,2.066-0.075,2.4-3.876l0,0
			C411.066,311.455,413.136,311.53,413.136,311.53L413.136,311.53z"/>
		<g>
			<g>
				<g>
					<path style="fill:none;stroke:#000000;stroke-width:1.8663;stroke-miterlimit:10;" d="M293.237,321.458"/>
					<path style="fill:none;stroke:#000000;stroke-width:1.8663;stroke-miterlimit:10;" d="M293.237,321.458"/>
					<path style="fill:none;stroke:#000000;stroke-width:1.8663;stroke-miterlimit:10;" d="M311.015,292.083
						c-5.285,0.521-9.415,4.979-9.415,10.403c0,1.237,0.226,2.42,0.621,3.522l0.516,1.202c0.395,1.102,0.621,2.283,0.621,3.521
						c0,5.775-4.682,10.765-10.455,10.765l-3.645,0.198c-18.365,0-33.253-14.888-33.253-33.253s14.888-33.253,33.253-33.253
						c14.762,0,27.269,9.621,31.611,22.934"/>
					<path style="fill:none;stroke:#000000;stroke-width:1.8663;stroke-miterlimit:10;" d="M320.869,278.122
						c0.058,0.175,0.118,0.348,0.173,0.525C320.99,278.47,320.931,278.295,320.869,278.122z"/>
					<path style="fill:none;stroke:#000000;stroke-width:1.8663;stroke-miterlimit:10;" d="M302.221,306.008
						c-0.396-1.102-0.621-2.284-0.621-3.522c0-5.774,4.682-10.456,10.455-10.456l0.638-0.133c4.975-0.805,8.773-5.12,8.773-10.322
						c0-1.018-0.152-1.998-0.424-2.928c-0.055-0.178-0.115-0.351-0.173-0.525"/>
				</g>
				<path style="fill:none;stroke:#000000;stroke-width:1.8663;stroke-miterlimit:10;" d="M314.336,276.624
					c0,2.573-2.086,4.659-4.659,4.659c-2.573,0-4.659-2.086-4.659-4.659c0-2.572,2.086-4.659,4.659-4.659
					C312.25,271.965,314.336,274.052,314.336,276.624z"/>
				<path style="fill:none;stroke:#000000;stroke-width:1.8663;stroke-miterlimit:10;" d="M301.6,266.095
					c0,2.573-2.086,4.659-4.659,4.659c-2.573,0-4.659-2.086-4.659-4.659c0-2.572,2.086-4.658,4.659-4.658
					C299.514,261.436,301.6,263.522,301.6,266.095z"/>
				<path style="fill:none;stroke:#000000;stroke-width:1.8663;stroke-miterlimit:10;" d="M283.975,267.126
					c0,2.573-2.086,4.659-4.659,4.659c-2.573,0-4.659-2.086-4.659-4.659c0-2.572,2.086-4.658,4.659-4.658
					C281.889,262.468,283.975,264.554,283.975,267.126z"/>
				<path style="fill:none;stroke:#000000;stroke-width:1.8663;stroke-miterlimit:10;" d="M271.977,279.554
					c0,2.574-2.086,4.66-4.659,4.66c-2.573,0-4.659-2.086-4.659-4.66c0-2.572,2.086-4.658,4.659-4.658
					C269.891,274.896,271.977,276.981,271.977,279.554z"/>
				<path style="fill:none;stroke:#000000;stroke-width:1.8663;stroke-miterlimit:10;" d="M272.466,297.131
					c0,2.573-2.086,4.659-4.659,4.659c-2.573,0-4.659-2.086-4.659-4.659c0-2.573,2.086-4.659,4.659-4.659
					C270.38,292.472,272.466,294.558,272.466,297.131z"/>
				<path style="fill:none;stroke:#000000;stroke-width:1.8663;stroke-miterlimit:10;" d="M284.587,309.8
					c0,2.574-2.086,4.66-4.659,4.66c-2.573,0-4.659-2.086-4.659-4.66c0-2.572,2.086-4.658,4.659-4.658
					C282.501,305.142,284.587,307.228,284.587,309.8z"/>
				<polyline style="fill:none;stroke:#000000;stroke-width:1.8663;stroke-miterlimit:10;" points="295.982,296.912 
					295.435,296.912 303.212,296.912 				"/>
				<path style="fill:none;stroke:#000000;stroke-width:1.8663;stroke-miterlimit:10;" d="M295.982,296.912
					c-2.811,0-5.089-2.261-5.089-5.048c0-2.789,1.916-5.05,4.282-5.05h1.982c1.405,0,2.545-1.064,2.545-2.376
					s-1.14-2.376-2.545-2.376h-6.678h-1.965h0.548c-2.811,0-5.089-2.261-5.089-5.049c0-2.788,1.917-5.049,4.282-5.049
					c1.407,0,0.302,0,2.436,0c1.405,0,2.545-1.063,2.545-2.376s-1.14-2.376-2.545-2.376h-0.212c-2.366,0-4.283-2.261-4.283-5.049
					c0-2.788,2.279-5.049,5.09-5.049h9.143"/>
			</g>
		</g>
		<g>
			<g>
				
					<rect x="156.001" y="306.677" style="fill:none;stroke:#000000;stroke-width:1.8663;stroke-miterlimit:10;" width="88.915" height="7.411"/>
				
					<rect x="163.507" y="262.015" style="fill:none;stroke:#000000;stroke-width:1.8663;stroke-miterlimit:10;" width="73.904" height="44.662"/>
				
					<rect x="168.597" y="267.104" style="fill:none;stroke:#000000;stroke-width:1.8663;stroke-miterlimit:10;" width="63.725" height="39.572"/>
				
					<rect x="196.253" y="255.605" style="fill:none;stroke:#000000;stroke-width:1.8663;stroke-miterlimit:10;" width="8.412" height="6.41"/>
				
					<rect x="196.253" y="314.088" style="fill:none;stroke:#000000;stroke-width:1.8663;stroke-miterlimit:10;" width="8.412" height="19.135"/>
				<g>
					<polygon style="fill:none;stroke:#000000;stroke-width:1.8663;stroke-miterlimit:10;" points="181.525,334.307 
						175.718,334.307 186.306,314.088 192.113,314.088 					"/>
					<polygon style="fill:none;stroke:#000000;stroke-width:1.8663;stroke-miterlimit:10;" points="219.392,334.307 225.2,334.307 
						214.612,314.088 208.804,314.088 					"/>
				</g>
				<g>
					<path style="fill:none;stroke:#000000;stroke-width:1.8663;stroke-miterlimit:10;" d="M179.579,275.132
						c0,1.161-0.94,2.103-2.103,2.103c-1.161,0-2.103-0.941-2.103-2.103c0-1.162,0.941-2.103,2.103-2.103
						C178.639,273.029,179.579,273.97,179.579,275.132z"/>
					<path style="fill:none;stroke:#000000;stroke-width:1.8663;stroke-miterlimit:10;" d="M225.544,275.132
						c0,1.161-0.942,2.103-2.104,2.103c-1.161,0-2.103-0.941-2.103-2.103c0-1.162,0.941-2.103,2.103-2.103
						C224.602,273.029,225.544,273.97,225.544,275.132z"/>
				</g>
				<g>
					<path style="fill:none;stroke:#000000;stroke-width:1.8663;stroke-miterlimit:10;" d="M186.524,284.778v10.476
						c0,1.923-1.561,3.483-3.484,3.483c-1.923,0-3.483-1.561-3.483-3.483v-11.818"/>
					<path style="fill:none;stroke:#000000;stroke-width:1.8663;stroke-miterlimit:10;" d="M200.459,295.866v1.908
						c0,1.923-1.561,3.482-3.483,3.482c-1.925,0-3.483-1.56-3.483-3.482v-19.159c0-1.924-1.561-3.483-3.484-3.483
						c-1.924,0-3.483,1.56-3.483,3.483v3.026"/>
					
						<line style="fill:none;stroke:#000000;stroke-width:1.8663;stroke-miterlimit:10;" x1="221.361" y1="293.476" x2="221.361" y2="300.326"/>
					<path style="fill:none;stroke:#000000;stroke-width:1.8663;stroke-miterlimit:10;" d="M200.459,289.233v-5.375
						c0-1.924,1.56-3.482,3.483-3.482s3.483,1.559,3.483,3.482v9.414c0,1.924,1.561,3.484,3.484,3.484
						c1.924,0,3.483-1.561,3.483-3.484v-5.172c0-1.924,1.559-3.483,3.483-3.483c1.924,0,3.484,1.56,3.484,3.483"/>
				</g>
				
					<line style="fill:none;stroke:#000000;stroke-width:1.8663;stroke-miterlimit:10;" x1="200.459" y1="298.737" x2="200.459" y2="292.819"/>
			</g>
			<path style="stroke:#000000;stroke-width:1.8663;stroke-linecap:round;stroke-linejoin:round;stroke-miterlimit:10;" d="
				M224.13,252.025c0,0-2.404,0.087-2.792,4.505l0,0c-0.388-4.418-2.792-4.505-2.792-4.505v-0.001c0,0,2.404-0.086,2.792-4.506l0,0
				c0.388,4.42,2.792,4.506,2.792,4.506V252.025z"/>
			<path style="stroke:#000000;stroke-width:1.8663;stroke-linecap:round;stroke-linejoin:round;stroke-miterlimit:10;" d="
				M237.58,253.007c0,0-1.532,0.055-1.779,2.871h0.001c-0.247-2.816-1.779-2.871-1.779-2.871l0,0c0,0,1.532-0.055,1.779-2.871
				h-0.001C236.048,252.952,237.58,253.007,237.58,253.007L237.58,253.007z"/>
		</g>
		<g>
			<g>
				<path style="fill:none;stroke:#000000;stroke-width:1.8663;stroke-miterlimit:10;" d="M295.797,230.399
					c0-3.28-2.658-5.938-5.939-5.938h-76.039c-3.279,0-5.938,2.658-5.938,5.938v3.578h87.916V230.399z"/>
				
					<rect x="214.059" y="179.259" style="fill:none;stroke:#000000;stroke-width:1.8663;stroke-miterlimit:10;" width="75.561" height="45.202"/>
				<path style="fill:none;stroke:#000000;stroke-width:1.8663;stroke-miterlimit:10;" d="M274.678,224.461
					c0,2.189-1.775,3.965-3.965,3.965h-37.748c-2.19,0-3.965-1.775-3.965-3.965l0,0H274.678L274.678,224.461z"/>
				
					<path style="fill:#FFFFFF;stroke:#000000;stroke-width:1.8663;stroke-linecap:round;stroke-linejoin:round;stroke-miterlimit:10;" d="
					M233.435,182.837c0,7.056-5.72,12.776-12.776,12.776c-7.057,0-12.777-5.721-12.777-12.776c0-7.057,5.721-12.777,12.777-12.777
					C227.715,170.06,233.435,175.78,233.435,182.837z"/>
				
					<path style="fill:#FFFFFF;stroke:#000000;stroke-width:1.8663;stroke-linecap:round;stroke-linejoin:round;stroke-miterlimit:10;" d="
					M220.132,182.288c0,0,0.879-4.749,4.298-4.749c2.311,0,3.691,1.75,3.691,4.107c0,4.413-7.989,7.989-7.989,7.989
					s-7.989-3.576-7.989-7.989c0-2.357,1.38-4.107,3.691-4.107C219.253,177.539,220.132,182.288,220.132,182.288z"/>
				<polyline style="fill:none;stroke:#000000;stroke-width:1.8663;stroke-miterlimit:10;" points="222.075,195.533 
					222.075,219.834 217.533,219.834 217.533,195.227 				"/>
				
					<line style="fill:none;stroke:#000000;stroke-width:1.8663;stroke-miterlimit:10;" x1="233.356" y1="184.241" x2="289.619" y2="184.241"/>
				
					<line style="fill:none;stroke:#000000;stroke-width:1.8663;stroke-miterlimit:10;" x1="276.856" y1="184.241" x2="276.856" y2="224.461"/>
				
					<line style="fill:none;stroke:#000000;stroke-width:1.8663;stroke-miterlimit:10;" x1="276.856" y1="190.848" x2="289.619" y2="190.848"/>
				
					<line style="fill:none;stroke:#000000;stroke-width:1.8663;stroke-miterlimit:10;" x1="276.856" y1="195.613" x2="289.619" y2="195.613"/>
				
					<line style="fill:none;stroke:#000000;stroke-width:1.8663;stroke-miterlimit:10;" x1="276.856" y1="210.311" x2="289.619" y2="210.311"/>
				<polyline style="fill:none;stroke:#000000;stroke-width:1.8663;stroke-miterlimit:10;" points="226.49,194.202 226.49,219.834 
					273.314,219.834 273.314,187.627 232.503,187.627 				"/>
				<g>
					<path style="fill:none;stroke:#000000;stroke-width:1.8663;stroke-miterlimit:10;" d="M249.902,202.594
						c0,3.185-2.582,5.767-5.767,5.767c-3.186,0-5.768-2.582-5.768-5.767"/>
					<path style="fill:none;stroke:#000000;stroke-width:1.8663;stroke-miterlimit:10;" d="M249.902,202.594
						c0-3.185,2.582-5.767,5.767-5.767c3.185,0,5.768,2.582,5.768,5.767"/>
				</g>
				<polyline style="fill:none;stroke:#000000;stroke-width:1.8663;stroke-miterlimit:10;" points="249.126,205.477 251.34,211.626 
					246.914,211.626 249.127,205.477 				"/>
				
					<rect x="248.28" y="211.626" style="fill:none;stroke:#000000;stroke-width:1.8663;stroke-miterlimit:10;" width="1.817" height="3.336"/>
			</g>
		</g>
		<g>
			<g>
				<path style="fill:none;stroke:#000000;stroke-width:1.8663;stroke-miterlimit:10;" d="M361.885,197.447V175.89h-45.565v60.129
					c0,7.027,5.697,12.725,12.725,12.725h43.451"/>
				<path style="fill:none;stroke:#000000;stroke-width:1.8663;stroke-miterlimit:10;" d="M381.813,238.778
					c0,5.503-4.461,9.965-9.964,9.965c-5.504,0-9.965-4.462-9.965-9.965v-41.331h19.929V238.778z"/>
				<path style="fill:none;stroke:#000000;stroke-width:1.8663;stroke-miterlimit:10;" d="M375.889,197.447v42.813
					c0,4.685-3.798,8.483-8.483,8.483"/>
				<g>
					<path style="fill:none;stroke:#000000;stroke-width:1.8663;stroke-miterlimit:10;" d="M343.094,193.879h-12.239
						c-2.247,0-4.069-1.822-4.069-4.07c0-2.246,1.822-4.07,4.069-4.07h13.808"/>
					<path style="fill:none;stroke:#000000;stroke-width:1.8663;stroke-miterlimit:10;" d="M330.138,210.159h-2.228
						c-2.247,0-4.069-1.823-4.069-4.07c0-2.248,1.822-4.069,4.069-4.069h22.384c2.248,0,4.069-1.824,4.069-4.07
						c0-2.248-1.821-4.07-4.069-4.07h-3.536"/>
					
						<line style="fill:none;stroke:#000000;stroke-width:1.8663;stroke-miterlimit:10;" x1="332.933" y1="234.579" x2="324.93" y2="234.579"/>
					<path style="fill:none;stroke:#000000;stroke-width:1.8663;stroke-miterlimit:10;" d="M337.889,210.159h6.279
						c2.247,0,4.07,1.822,4.07,4.069c0,2.249-1.823,4.069-4.07,4.069H333.17c-2.247,0-4.071,1.823-4.071,4.071
						c0,2.247,1.824,4.07,4.071,4.07h6.042c2.248,0,4.07,1.822,4.07,4.069c0,2.246-1.822,4.07-4.07,4.07"/>
				</g>
			</g>
		</g>
		<g>
			<g>
				<path style="fill:none;stroke:#000000;stroke-width:1.8663;stroke-miterlimit:10;" d="M363.143,359.265
					c7.309,0,13.233,5.925,13.233,13.233c0,7.309-5.925,13.233-13.233,13.233c-7.309,0-23.059-5.925-23.059-13.233
					C340.084,365.19,355.834,359.265,363.143,359.265z"/>
				<g>
					
						<line style="fill:none;stroke:#000000;stroke-width:1.8663;stroke-miterlimit:10;" x1="332.416" y1="376.088" x2="341.335" y2="376.088"/>
					
						<line style="fill:none;stroke:#000000;stroke-width:1.8663;stroke-miterlimit:10;" x1="332.416" y1="368.907" x2="341.347" y2="368.907"/>
				</g>
				<g>
					<polygon style="fill:none;stroke:#000000;stroke-width:1.8663;stroke-miterlimit:10;" points="293.836,368.911 
						293.836,376.092 319.129,385.098 332.416,376.092 332.416,368.911 319.129,359.898 					"/>
					<path style="fill:none;stroke:#000000;stroke-width:1.8663;stroke-miterlimit:10;" d="M303.074,379.382h8.775
						c1.205,0,2.183-0.977,2.183-2.183c0-1.205-0.978-2.182-2.183-2.182h-4.93c-1.226,0-2.219-0.993-2.219-2.219
						c0-1.225,0.993-2.219,2.219-2.219h19.033c1.204,0,2.182-0.977,2.182-2.182c0-1.205-0.978-2.182-2.182-2.182h-8.131
						c-1.225,0-2.218-0.993-2.218-2.219c0-1.225,0.993-2.219,2.218-2.219h4.08"/>
				</g>
			</g>
			<path style="fill:none;stroke:#000000;stroke-width:1.8663;stroke-miterlimit:10;" d="M365.73,367.218
				c2.916,0,5.28,2.363,5.28,5.279c0,2.916-2.364,5.28-5.28,5.28c-2.916,0-5.279-2.364-5.279-5.28
				C360.451,369.581,362.814,367.218,365.73,367.218z"/>
		</g>
		<g>
			<g>
				<path style="fill:none;stroke:#000000;stroke-width:1.8663;stroke-miterlimit:10;" d="M138.258,364.095
					c0,7.309-5.925,13.233-13.232,13.233c-7.309,0-13.233-5.925-13.233-13.233s5.925-23.059,13.233-23.059
					C132.333,341.036,138.258,356.786,138.258,364.095z"/>
				<g>
					
						<line style="fill:none;stroke:#000000;stroke-width:1.8663;stroke-miterlimit:10;" x1="121.435" y1="333.368" x2="121.435" y2="342.287"/>
					
						<line style="fill:none;stroke:#000000;stroke-width:1.8663;stroke-miterlimit:10;" x1="128.615" y1="333.368" x2="128.615" y2="342.299"/>
				</g>
				<g>
					<polygon style="fill:none;stroke:#000000;stroke-width:1.8663;stroke-miterlimit:10;" points="128.611,294.788 
						121.431,294.788 112.425,320.081 121.431,333.368 128.611,333.368 137.624,320.081 					"/>
					<path style="fill:none;stroke:#000000;stroke-width:1.8663;stroke-miterlimit:10;" d="M118.141,304.026v8.775
						c0,1.204,0.977,2.183,2.183,2.183c1.205,0,2.182-0.979,2.182-2.183v-4.93c0-1.226,0.993-2.219,2.219-2.219
						c1.225,0,2.219,0.993,2.219,2.219v19.033c0,1.204,0.977,2.182,2.182,2.182c1.205,0,2.182-0.978,2.182-2.182v-8.131
						c0-1.225,0.993-2.218,2.219-2.218s2.219,0.993,2.219,2.218v4.08"/>
				</g>
			</g>
			<path style="fill:none;stroke:#000000;stroke-width:1.8663;stroke-miterlimit:10;" d="M130.305,366.683
				c0,2.916-2.363,5.28-5.279,5.28s-5.28-2.364-5.28-5.28c0-2.916,2.364-5.279,5.28-5.279S130.305,363.767,130.305,366.683z"/>
		</g>
		<g>
			<path style="fill:none;stroke:#000000;stroke-width:1.8663;stroke-miterlimit:10;" d="M414.052,249.847
				c0,0-1.025,6.946,0.009,8.924c3.139,6.004,9.634,15.742,9.634,21.803c0,7.309-5.925,13.233-13.232,13.233
				c-7.309,0-13.233-5.925-13.233-13.233c0-6.063,6.504-15.802,9.643-21.808c1.033-1.977,0-8.919,0-8.919"/>
			<path style="fill:none;stroke:#000000;stroke-width:1.8663;stroke-miterlimit:10;" d="M416.015,283.161
				c0,2.916-2.363,5.28-5.279,5.28c-2.916,0-5.28-2.364-5.28-5.28c0-2.916,2.364-5.279,5.28-5.279
				C413.651,277.882,416.015,280.245,416.015,283.161z"/>
			<path style="fill:none;stroke:#000000;stroke-width:1.8663;stroke-miterlimit:10;" d="M425.938,235.134
				c0,8.548-6.93,15.477-15.477,15.477c-8.549,0-15.478-6.929-15.478-15.477c0-7.383,4.338-9.983,6.511-15.262
				c1.859-4.519,0.087-9.402,0.087-9.402s7.162,2.445,11.965,4.884C423.694,220.505,425.938,226.586,425.938,235.134z"/>
			<path style="fill:none;stroke:#000000;stroke-width:1.8663;stroke-miterlimit:10;" d="M399.28,223.873v8.313
				c0,1.204,0.976,2.182,2.183,2.182c1.205,0,2.182-0.978,2.182-2.182V229.8c0-1.227,0.993-2.219,2.219-2.219
				c1.225,0,2.218,0.992,2.218,2.219v8.047c0,1.204,0.978,2.182,2.183,2.182c1.205,0,2.182-0.978,2.182-2.182v-12.38
				c0-1.226,0.993-2.219,2.219-2.219c1.225,0,2.219,0.993,2.219,2.219v9.264c0,1.205,0.977,2.183,2.182,2.183
				c1.205,0,2.183-0.978,2.183-2.183v-2.007c0-1.226,0.993-2.219,2.218-2.219c1.226,0,2.219,0.993,2.219,2.219v5.219"/>
		</g>
		<g>
			<path style="fill:none;stroke:#000000;stroke-width:1.8663;stroke-miterlimit:10;" d="M99.998,194.17
				c0,0,1.024-6.946-0.009-8.924c-3.139-6.004-9.634-15.742-9.634-21.803c0-7.309,5.925-13.233,13.232-13.233
				c7.309,0,13.233,5.925,13.233,13.233c0,6.063-6.504,15.802-9.643,21.808c-1.033,1.976,0,8.919,0,8.919"/>
			<path style="fill:none;stroke:#000000;stroke-width:1.8663;stroke-miterlimit:10;" d="M98.035,160.855
				c0-2.916,2.363-5.28,5.279-5.28c2.916,0,5.28,2.364,5.28,5.28s-2.364,5.279-5.28,5.279
				C100.398,166.135,98.035,163.771,98.035,160.855z"/>
			<path style="fill:none;stroke:#000000;stroke-width:1.8663;stroke-miterlimit:10;" d="M88.111,208.883
				c0-8.548,6.93-15.477,15.477-15.477c8.549,0,15.478,6.929,15.478,15.477c0,7.383-4.338,9.983-6.511,15.262
				c-1.859,4.519-0.087,9.402-0.087,9.402s-7.162-2.445-11.965-4.884C90.355,223.512,88.111,217.431,88.111,208.883z"/>
			<path style="fill:none;stroke:#000000;stroke-width:1.8663;stroke-miterlimit:10;" d="M114.77,220.144v-8.313
				c0-1.204-0.977-2.182-2.183-2.182c-1.205,0-2.182,0.978-2.182,2.182v2.386c0,1.227-0.993,2.219-2.219,2.219
				c-1.225,0-2.218-0.992-2.218-2.219v-8.047c0-1.204-0.978-2.182-2.183-2.182c-1.205,0-2.182,0.978-2.182,2.182v12.38
				c0,1.226-0.993,2.219-2.219,2.219c-1.225,0-2.219-0.993-2.219-2.219v-9.264c0-1.205-0.977-2.183-2.182-2.183
				c-1.205,0-2.183,0.978-2.183,2.183v2.007c0,1.226-0.993,2.219-2.218,2.219c-1.226,0-2.219-0.993-2.219-2.219v-5.219"/>
		</g>
		<g>
			<g>
				<path style="fill:none;stroke:#000000;stroke-width:1.8663;stroke-miterlimit:10;" d="M84.137,270.967H77.28
					c-1.777,0-3.219,1.441-3.219,3.219v10.013h50.017v-10.013c0-1.777-1.441-3.219-3.219-3.219h-8.4H84.137z"/>
				<path style="fill:none;stroke:#000000;stroke-width:1.8663;stroke-miterlimit:10;" d="M107.638,262.892h8.462
					c1.777,0,3.219,1.44,3.219,3.219v4.856"/>
				<path style="fill:none;stroke:#000000;stroke-width:1.8663;stroke-miterlimit:10;" d="M78.822,270.967v-4.856
					c0-1.778,1.441-3.219,3.219-3.219h9.932"/>
				<path style="fill:none;stroke:#000000;stroke-width:1.8663;stroke-miterlimit:10;" d="M86.054,262.892v-3.772
					c0-1.777,1.441-3.219,3.219-3.219h19.596c1.777,0,3.219,1.441,3.219,3.219v3.772"/>
				<path style="fill:none;stroke:#000000;stroke-width:1.8663;stroke-miterlimit:10;" d="M107.325,255.901H90.814v-2.808
					c0-1.777,1.441-3.219,3.218-3.219h10.075c1.777,0,3.218,1.441,3.218,3.219V255.901z"/>
				<polygon style="fill:none;stroke:#000000;stroke-width:1.8663;stroke-miterlimit:10;" points="104.192,238.065 93.948,240.64 
					93.948,249.875 104.192,249.875 				"/>
				<path style="fill:none;stroke:#000000;stroke-width:1.8663;stroke-miterlimit:10;" d="M95.272,240.307
					c0,0-0.311,6.557,3.798,6.557s3.317-8.346,3.317-8.346"/>
			</g>
			<path style="stroke:#000000;stroke-width:1.866;stroke-linecap:round;stroke-linejoin:round;stroke-miterlimit:10;" d="
				M81.871,245.576c0,0-2.509,0.089-2.913,4.7l0,0c-0.403-4.611-2.912-4.7-2.912-4.7v-0.001c0,0,2.509-0.09,2.912-4.701l0,0
				c0.404,4.611,2.913,4.701,2.913,4.701V245.576z"/>
			<path style="stroke:#000000;stroke-width:1.866;stroke-linecap:round;stroke-linejoin:round;stroke-miterlimit:10;" d="
				M128.631,254.783c0,0-3.106,0.11-3.606,5.819l0,0c-0.5-5.709-3.605-5.819-3.605-5.819v-0.001c0,0,3.105-0.111,3.605-5.82l0,0
				c0.5,5.709,3.606,5.82,3.606,5.82V254.783z"/>
		</g>
		<g>
			<path style="fill:none;stroke:#000000;stroke-width:1.8663;stroke-miterlimit:10;" d="M166.165,151.52L166.165,151.52v-37.585
				l0,0c7.705,0,13.95,6.246,13.95,13.95v9.685c0,5.674-3.386,10.555-8.247,12.734v-35.293"/>
			<path style="fill:none;stroke:#000000;stroke-width:1.8663;stroke-miterlimit:10;" d="M134.083,138.996
				c-3.458,0-6.263,2.803-6.263,6.262c0,3.458,2.805,6.262,6.263,6.262h32.082v-12.523H134.083z"/>
			<path style="fill:none;stroke:#000000;stroke-width:1.8663;stroke-miterlimit:10;" d="M134.083,126.472
				c-3.458,0-6.263,2.804-6.263,6.262c0,3.458,2.805,6.263,6.263,6.263h32.082v-12.524H134.083z"/>
			<path style="fill:none;stroke:#000000;stroke-width:1.8663;stroke-miterlimit:10;" d="M134.083,113.946
				c-3.458,0-6.263,2.804-6.263,6.262c0,3.459,2.805,6.264,6.263,6.264h32.082v-12.525H134.083z"/>
			<polyline style="fill:none;stroke:#000000;stroke-width:1.8663;stroke-miterlimit:10;" points="131.217,114.646 100.588,132.599 
				131.15,150.791 			"/>
			
				<rect x="100.588" y="113.935" style="fill:none;stroke:#000000;stroke-width:1.8663;stroke-miterlimit:10;" width="0" height="0"/>
			
				<line style="fill:none;stroke:#000000;stroke-width:1.8663;stroke-miterlimit:10;" x1="109.917" y1="138.15" x2="109.917" y2="127.131"/>
		</g>
		<g>
			
				<rect x="333.461" y="300.2" style="fill:none;stroke:#000000;stroke-width:1.8663;stroke-miterlimit:10;" width="45.119" height="45.961"/>
			<path style="fill:none;stroke:#000000;stroke-width:1.8663;stroke-miterlimit:10;" d="M382.99,297.033
				c0,1.749-1.418,3.167-3.167,3.167h-47.605c-1.748,0-3.166-1.418-3.166-3.167s1.418-3.167,3.166-3.167h47.605
				C381.572,293.866,382.99,295.284,382.99,297.033z"/>
			<path style="fill:none;stroke:#000000;stroke-width:1.8663;stroke-miterlimit:10;" d="M333.461,293.866
				c0-12.515,4.019-31.143,22.66-31.143c19.339,0,22.66,18.628,22.66,31.143"/>
			<path style="fill:none;stroke:#000000;stroke-width:1.8663;stroke-miterlimit:10;" d="M333.461,300.2v17.238
				c0,3.309,2.682,5.991,5.991,5.991c3.31,0,5.992-2.682,5.992-5.991v-9.563c0-1.172,0.949-2.121,2.121-2.121h0.343
				c1.172,0,2.121,0.949,2.121,2.121v3.534c0,3.31,2.682,5.991,5.99,5.991c3.31,0,5.992-2.682,5.992-5.991v-3.534
				c0-1.172,0.949-2.121,2.121-2.121h0.343c1.171,0,2.121,0.949,2.121,2.121v12.947c0,3.31,2.682,5.992,5.991,5.992
				s5.992-2.683,5.992-5.992V300.2"/>
			<g>
				<polyline style="fill:none;stroke:#000000;stroke-width:1.8663;stroke-miterlimit:10;" points="378.58,346.161 397.292,346.161 
					397.292,311.53 378.578,311.53 				"/>
				<path style="fill:none;stroke:#000000;stroke-width:1.8663;stroke-miterlimit:10;" d="M378.58,307.985h19.408
					c0.979,0,1.772,0.794,1.772,1.773c0,0.979-0.793,1.772-1.772,1.772h-19.41"/>
				<path style="fill:none;stroke:#000000;stroke-width:1.8663;stroke-miterlimit:10;" d="M378.578,321.267v-5.399
					c0-0.662,0.536-1.199,1.198-1.199h0.193c0.661,0,1.197,0.537,1.197,1.199v1.994c0,1.868,1.516,3.385,3.385,3.385
					c1.868,0,3.384-1.517,3.384-3.385v-1.994c0-0.662,0.537-1.199,1.197-1.199h0.194c0.661,0,1.197,0.537,1.197,1.199v7.312
					c0,1.867,1.514,3.382,3.382,3.382c1.872,0,3.386-1.515,3.386-3.382V311.53"/>
			</g>
			<path style="fill:none;stroke:#000000;stroke-width:1.8663;stroke-miterlimit:10;" d="M378.58,336.943
				c0-3.31-2.683-5.992-5.992-5.992c-3.309,0-5.99,2.683-5.99,5.992v-0.001c0,3.31,2.682,5.992,5.99,5.992
				C375.897,342.935,378.58,340.252,378.58,336.943L378.58,336.943z"/>
		</g>
		<g>
			<path style="fill:none;stroke:#000000;stroke-width:1.8663;stroke-miterlimit:10;" d="M273.816,411.823
				c0,5.621-4.558,10.18-10.179,10.18h-17.195c-5.622,0-10.18-4.559-10.18-10.18v-2.622c0-5.622,4.558-10.18,10.18-10.18h17.195
				c5.621,0,10.179,4.558,10.179,10.18V411.823z"/>
			
				<line style="fill:none;stroke:#000000;stroke-width:1.8663;stroke-miterlimit:10;" x1="256.51" y1="417.761" x2="251.839" y2="417.761"/>
			<path style="fill:none;stroke:#000000;stroke-width:1.8663;stroke-miterlimit:10;" d="M246.442,417.761
				c-3.274,0-5.939-2.664-5.939-5.938"/>
			<path style="fill:none;stroke:#000000;stroke-width:1.8663;stroke-miterlimit:10;" d="M264.46,423.452
				c0,0.801-0.648,1.449-1.45,1.449h-15.941c-0.801,0-1.449-0.648-1.449-1.449c0-0.801,0.649-1.449,1.449-1.449h15.941
				C263.811,422.003,264.46,422.651,264.46,423.452z"/>
			<polygon style="fill:none;stroke:#000000;stroke-width:1.8663;stroke-miterlimit:10;" points="264.46,399.058 244.576,399.058 
				242.88,393.9 266.156,393.9 			"/>
			<path style="fill:none;stroke:#000000;stroke-width:1.8663;stroke-miterlimit:10;" d="M263.45,369.997
				c0,0,1.883-35.491,33.939-33.939l-40.841,40.84"/>
			<path style="fill:none;stroke:#000000;stroke-width:1.8663;stroke-miterlimit:10;" d="M260.475,372.973
				c0,0,36.715-5.209,36.914-36.914"/>
			
				<line style="fill:none;stroke:#000000;stroke-width:1.8663;stroke-miterlimit:10;" x1="269.281" y1="350.831" x2="270.608" y2="362.839"/>
			
				<line style="fill:none;stroke:#000000;stroke-width:1.8663;stroke-miterlimit:10;" x1="280.663" y1="339.449" x2="282.007" y2="351.441"/>
			
				<line style="fill:none;stroke:#000000;stroke-width:1.8663;stroke-miterlimit:10;" x1="288.735" y1="344.713" x2="296.168" y2="345.31"/>
			
				<line style="fill:none;stroke:#000000;stroke-width:1.8663;stroke-miterlimit:10;" x1="275.948" y1="357.498" x2="288.561" y2="358.856"/>
			<path style="fill:none;stroke:#000000;stroke-width:1.8663;stroke-miterlimit:10;" d="M258.636,384.92
				c0,2.279-1.848,4.128-4.128,4.128c-2.278,0-4.127-1.849-4.127-4.128s4.127-5.981,4.127-5.981S258.636,382.641,258.636,384.92z"/>
			<path style="stroke:#000000;stroke-width:1.8663;stroke-linecap:round;stroke-linejoin:round;stroke-miterlimit:10;" d="
				M286.214,383.993c0,0-4.032,0.146-4.682,7.558l0,0c-0.65-7.412-4.683-7.558-4.683-7.558v-0.001c0,0,4.032-0.144,4.683-7.558l0,0
				c0.649,7.414,4.682,7.558,4.682,7.558V383.993z"/>
		</g>
		<g>
			<g>
				<path style="fill:none;stroke:#000000;stroke-width:1.8663;stroke-miterlimit:10;" d="M175.299,206.31h-43.335
					c-2.343,0-4.241-1.899-4.241-4.242v-0.956c0-2.342,1.898-4.241,4.241-4.241h43.335"/>
				<path style="fill:none;stroke:#000000;stroke-width:1.8663;stroke-miterlimit:10;" d="M183.959,196.87
					c2.342,0,4.241,1.899,4.241,4.241v0.956c0,2.343-1.899,4.242-4.241,4.242"/>
				<polyline style="fill:none;stroke:#000000;stroke-width:1.8663;stroke-miterlimit:10;" points="183.888,196.87 183.888,163.972 
					132.035,163.972 132.035,196.87 175.299,196.87 				"/>
				<path style="fill:none;stroke:#000000;stroke-width:1.8663;stroke-miterlimit:10;" d="M154.583,252.887
					c-4.685,0-7.954-3.761-7.303-8.4l5.865-23.659c0.326-2.32,2.482-4.2,4.816-4.2c2.334,0,4.489,1.88,4.816,4.2l5.865,23.659
					c0.65,4.64-2.618,8.4-7.304,8.4H154.583z"/>
				<g>
					
						<line style="fill:none;stroke:#000000;stroke-width:1.8663;stroke-miterlimit:10;" x1="156.033" y1="217.053" x2="156.033" y2="206.31"/>
					
						<line style="fill:none;stroke:#000000;stroke-width:1.8663;stroke-miterlimit:10;" x1="159.89" y1="206.31" x2="159.89" y2="217.07"/>
				</g>
				<path style="fill:none;stroke:#000000;stroke-width:1.8663;stroke-miterlimit:10;" d="M161.834,244.142
					c0,2.139-1.733,3.871-3.872,3.871c-2.14,0-3.873-1.732-3.873-3.871s1.733-3.874,3.873-3.874
					C160.101,240.268,161.834,242.003,161.834,244.142z"/>
				<path style="fill:none;stroke:#000000;stroke-width:1.8663;stroke-miterlimit:10;" d="M157.993,163.834h-8.652h-8.653h-8.652
					v10.379h4.411c2.343,0,4.241,1.899,4.241,4.241v5.54c0,2.342,1.899,4.241,4.241,4.241h0.171c2.342,0,4.241-1.899,4.241-4.241
					v-7.416c0-2.342,1.899-4.241,4.242-4.241h0.169c2.343,0,4.241,1.899,4.241,4.241c0,0,0,1.754,0,3.916
					c0,2.163,1.899,3.917,4.241,3.917h0.171c2.342,0,4.241-1.899,4.241-4.241v-6.987c0-2.343,1.898-4.242,4.241-4.242h0.169
					c2.343,0,4.242,1.899,4.242,4.242v23.688v12.264c0,2.343,1.899,4.241,4.241,4.241h0.107c2.343,0,4.241-1.899,4.241-4.241
					v-45.301h-8.589h-8.652H157.993z"/>
				<path style="fill:none;stroke:#000000;stroke-width:1.8663;stroke-miterlimit:10;" d="M183.888,223.115
					c0-2.342-1.898-4.241-4.241-4.241h-0.107c-2.342,0-4.241,1.899-4.241,4.241v5.288c0,2.342,1.899,4.241,4.241,4.241h0.107
					c2.343,0,4.241-1.899,4.241-4.241V223.115z"/>
			</g>
		</g>
		<g>
			<g>
				<g>
					<g>
						<path style="fill:none;stroke:#000000;stroke-width:1.8663;stroke-miterlimit:10;" d="M190.893,117.151
							c0-21.869,17.73-39.598,39.599-39.598c21.869,0,39.598,17.729,39.598,39.598"/>
						
							<line style="fill:none;stroke:#000000;stroke-width:1.8663;stroke-miterlimit:10;" x1="270.089" y1="77.554" x2="190.893" y2="77.554"/>
						<path style="fill:#231F20;stroke:#000000;stroke-width:1.8663;stroke-miterlimit:10;" d="M193.349,77.131
							c0,1.122-0.91,2.032-2.032,2.032c-1.123,0-2.032-0.91-2.032-2.032c0-1.122,0.909-2.032,2.032-2.032
							C192.438,75.099,193.349,76.009,193.349,77.131z"/>
						<path style="fill:#231F20;stroke:#000000;stroke-width:1.8663;stroke-miterlimit:10;" d="M272.122,77.131
							c0,1.122-0.91,2.032-2.031,2.032c-1.123,0-2.033-0.91-2.033-2.032c0-1.122,0.91-2.032,2.033-2.032
							C271.212,75.099,272.122,76.009,272.122,77.131z"/>
						
							<rect x="228.036" y="75.099" style="fill:none;stroke:#000000;stroke-width:1.8663;stroke-miterlimit:10;" width="4.91" height="4.91"/>
						
							<rect x="188.438" y="114.697" style="fill:none;stroke:#000000;stroke-width:1.8663;stroke-miterlimit:10;" width="4.91" height="4.909"/>
						
							<rect x="267.636" y="114.697" style="fill:none;stroke:#000000;stroke-width:1.8663;stroke-miterlimit:10;" width="4.909" height="4.909"/>
					</g>
					<path style="fill:none;stroke:#000000;stroke-width:1.8663;stroke-miterlimit:10;" d="M224.027,147.904
						c-0.24-6.258-1.578-16.804-17.9-22.269c16.322-6.028,24.365-28.282,24.365-38.703h-0.001"/>
					<path style="fill:none;stroke:#000000;stroke-width:1.8663;stroke-miterlimit:10;" d="M236.956,147.904
						c0.24-6.258,1.579-16.804,17.9-22.269c-16.321-6.028-24.365-28.282-24.365-38.703h0.001"/>
					<path style="fill:none;stroke:#000000;stroke-width:1.8663;stroke-miterlimit:10;" d="M230.9,143.759h-0.817
						c-3.28,0-6.186,2.647-6.491,5.912l-1.143,12.218h16.086l-1.144-12.218C237.086,146.406,234.18,143.759,230.9,143.759z"/>
					
						<line style="fill:none;stroke:#000000;stroke-width:1.8663;stroke-miterlimit:10;" x1="230.492" y1="86.932" x2="230.492" y2="127.876"/>
					<path style="fill:#231F20;stroke:#000000;stroke-width:1.8663;stroke-miterlimit:10;" d="M232.523,127.876
						c0,1.123-0.909,2.032-2.031,2.032c-1.123,0-2.032-0.909-2.032-2.032c0-1.122,0.909-2.032,2.032-2.032
						C231.614,125.844,232.523,126.754,232.523,127.876z"/>
				</g>
			</g>
		</g>
		<g>
			<g>
				<g>
					
						<rect x="317.349" y="110.473" style="fill:none;stroke:#000000;stroke-width:1.8663;stroke-miterlimit:10;" width="42.99" height="48.265"/>
					<path style="fill:none;stroke:#000000;stroke-width:1.8663;stroke-miterlimit:10;" d="M313.939,106.695
						c1.883,0,3.409,1.525,3.409,3.409v49.001c0,1.884-1.526,3.41-3.409,3.41c-1.883,0-3.409-1.526-3.409-3.41v-49.001
						C310.53,108.221,312.057,106.695,313.939,106.695z"/>
					<path style="fill:none;stroke:#000000;stroke-width:1.8663;stroke-miterlimit:10;" d="M363.748,106.695
						c1.883,0,3.409,1.525,3.409,3.409v49.001c0,1.884-1.526,3.41-3.409,3.41c-1.883,0-3.409-1.526-3.409-3.41v-49.001
						C360.339,108.221,361.865,106.695,363.748,106.695z"/>
					
						<line style="fill:none;stroke:#000000;stroke-width:1.8663;stroke-miterlimit:10;" x1="348.586" y1="158.737" x2="360.339" y2="142.275"/>
					
						<line style="fill:none;stroke:#000000;stroke-width:1.8663;stroke-miterlimit:10;" x1="332.952" y1="158.739" x2="360.339" y2="120.043"/>
					
						<line style="fill:none;stroke:#000000;stroke-width:1.8663;stroke-miterlimit:10;" x1="317.349" y1="158.737" x2="351.61" y2="110.474"/>
					
						<line style="fill:none;stroke:#000000;stroke-width:1.8663;stroke-miterlimit:10;" x1="343.978" y1="158.737" x2="317.348" y2="139.832"/>
					
						<line style="fill:none;stroke:#000000;stroke-width:1.8663;stroke-miterlimit:10;" x1="360.338" y1="155.007" x2="317.349" y2="124.488"/>
					
						<line style="fill:none;stroke:#000000;stroke-width:1.8663;stroke-miterlimit:10;" x1="360.339" y1="139.663" x2="319.219" y2="110.473"/>
					
						<line style="fill:none;stroke:#000000;stroke-width:1.8663;stroke-miterlimit:10;" x1="360.339" y1="124.318" x2="340.834" y2="110.473"/>
					
						<line style="fill:none;stroke:#000000;stroke-width:1.8663;stroke-miterlimit:10;" x1="317.349" y1="136.422" x2="335.949" y2="110.473"/>
					<g>
						
							<rect x="279.817" y="137.426" style="fill:none;stroke:#000000;stroke-width:1.8663;stroke-miterlimit:10;" width="30.713" height="15.902"/>
						
							<rect x="279.817" y="153.328" style="fill:none;stroke:#000000;stroke-width:1.8663;stroke-miterlimit:10;" width="20.393" height="4.5"/>
						
							<line style="fill:none;stroke:#000000;stroke-width:1.8663;stroke-miterlimit:10;" x1="303.765" y1="153.328" x2="303.765" y2="137.426"/>
					</g>
					<g>
						<polygon style="fill:none;stroke:#000000;stroke-width:1.8663;stroke-miterlimit:10;" points="310.53,113.688 310.53,129.589 
							295.852,129.589 279.817,121.638 279.817,121.638 295.852,113.688 						"/>
					</g>
					
						<line style="fill:none;stroke:#000000;stroke-width:1.8663;stroke-miterlimit:10;" x1="310.53" y1="129.589" x2="295.851" y2="129.589"/>
					<path style="fill:none;stroke:#000000;stroke-width:1.8663;stroke-miterlimit:10;" d="M293.744,128.545
						c-0.339-0.445-0.54-1-0.54-1.603c0-1.461,1.185-2.646,2.646-2.646h12.082"/>
					
						<line style="fill:none;stroke:#000000;stroke-width:1.8663;stroke-miterlimit:10;" x1="298.23" y1="118.992" x2="310.53" y2="118.992"/>
					<path style="fill:none;stroke:#000000;stroke-width:1.8663;stroke-miterlimit:10;" d="M295.851,124.286
						c-1.462,0-2.646-1.186-2.646-2.648c0-1.459,1.185-2.646,2.646-2.646"/>
					<path style="fill:none;stroke:#000000;stroke-width:1.8663;stroke-miterlimit:10;" d="M295.852,118.983
						c-1.462,0-2.647-1.186-2.647-2.648c0-0.603,0.201-1.157,0.541-1.603"/>
					
						<line style="fill:none;stroke:#000000;stroke-width:1.8663;stroke-miterlimit:10;" x1="295.852" y1="113.688" x2="310.53" y2="113.688"/>
					
						<line style="fill:none;stroke:#000000;stroke-width:1.8663;stroke-miterlimit:10;" x1="286.16" y1="124.784" x2="286.16" y2="118.493"/>
				</g>
			</g>
		</g>
		<g>
			<g>
				<g>
					
						<rect x="157.229" y="349.644" style="fill:none;stroke:#000000;stroke-width:1.8663;stroke-miterlimit:10;" width="42.99" height="48.266"/>
					<path style="fill:none;stroke:#000000;stroke-width:1.8663;stroke-miterlimit:10;" d="M203.628,401.686
						c-1.883,0-3.409-1.525-3.409-3.41v-49c0-1.885,1.526-3.41,3.409-3.41s3.409,1.525,3.409,3.41v49
						C207.037,400.161,205.511,401.686,203.628,401.686z"/>
					<path style="fill:none;stroke:#000000;stroke-width:1.8663;stroke-miterlimit:10;" d="M153.819,401.686
						c-1.883,0-3.409-1.525-3.409-3.41v-49c0-1.885,1.526-3.41,3.409-3.41c1.883,0,3.409,1.525,3.409,3.41v49
						C157.229,400.161,155.702,401.686,153.819,401.686z"/>
					
						<line style="fill:none;stroke:#000000;stroke-width:1.8663;stroke-miterlimit:10;" x1="168.981" y1="349.644" x2="157.229" y2="366.106"/>
					
						<line style="fill:none;stroke:#000000;stroke-width:1.8663;stroke-miterlimit:10;" x1="184.615" y1="349.642" x2="157.229" y2="388.339"/>
					
						<line style="fill:none;stroke:#000000;stroke-width:1.8663;stroke-miterlimit:10;" x1="200.219" y1="349.644" x2="165.957" y2="397.907"/>
					
						<line style="fill:none;stroke:#000000;stroke-width:1.8663;stroke-miterlimit:10;" x1="173.589" y1="349.644" x2="200.22" y2="368.55"/>
					
						<line style="fill:none;stroke:#000000;stroke-width:1.8663;stroke-miterlimit:10;" x1="157.229" y1="353.374" x2="200.219" y2="383.894"/>
					
						<line style="fill:none;stroke:#000000;stroke-width:1.8663;stroke-miterlimit:10;" x1="157.229" y1="368.718" x2="198.349" y2="397.909"/>
					
						<line style="fill:none;stroke:#000000;stroke-width:1.8663;stroke-miterlimit:10;" x1="157.229" y1="384.064" x2="176.733" y2="397.909"/>
					
						<line style="fill:none;stroke:#000000;stroke-width:1.8663;stroke-miterlimit:10;" x1="200.219" y1="371.96" x2="181.618" y2="397.909"/>
					<g>
						
							<rect x="207.037" y="355.054" style="fill:none;stroke:#000000;stroke-width:1.8663;stroke-miterlimit:10;" width="30.713" height="15.902"/>
						
							<rect x="217.357" y="350.554" style="fill:none;stroke:#000000;stroke-width:1.8663;stroke-miterlimit:10;" width="20.393" height="4.5"/>
						
							<line style="fill:none;stroke:#000000;stroke-width:1.8663;stroke-miterlimit:10;" x1="213.803" y1="355.054" x2="213.803" y2="370.956"/>
					</g>
					<g>
						<polygon style="fill:none;stroke:#000000;stroke-width:1.8663;stroke-miterlimit:10;" points="207.037,394.692 
							207.037,378.792 221.716,378.792 237.75,386.743 237.75,386.743 221.716,394.692 						"/>
					</g>
					
						<line style="fill:none;stroke:#000000;stroke-width:1.8663;stroke-miterlimit:10;" x1="207.037" y1="378.792" x2="221.717" y2="378.792"/>
					<path style="fill:none;stroke:#000000;stroke-width:1.8663;stroke-miterlimit:10;" d="M223.823,379.837
						c0.339,0.445,0.54,1,0.54,1.602c0,1.461-1.185,2.646-2.646,2.646h-12.082"/>
					
						<line style="fill:none;stroke:#000000;stroke-width:1.8663;stroke-miterlimit:10;" x1="219.337" y1="389.39" x2="207.037" y2="389.39"/>
					<path style="fill:none;stroke:#000000;stroke-width:1.8663;stroke-miterlimit:10;" d="M221.717,384.095
						c1.462,0,2.646,1.186,2.646,2.648c0,1.459-1.185,2.646-2.646,2.646"/>
					<path style="fill:none;stroke:#000000;stroke-width:1.8663;stroke-miterlimit:10;" d="M221.716,389.397
						c1.462,0,2.648,1.186,2.648,2.648c0,0.604-0.201,1.158-0.541,1.604"/>
					
						<line style="fill:none;stroke:#000000;stroke-width:1.8663;stroke-miterlimit:10;" x1="221.716" y1="394.692" x2="207.037" y2="394.692"/>
					
						<line style="fill:none;stroke:#000000;stroke-width:1.8663;stroke-miterlimit:10;" x1="231.407" y1="383.597" x2="231.407" y2="389.888"/>
				</g>
			</g>
		</g>
		<path style="stroke:#000000;stroke-width:3.8165;stroke-linecap:round;stroke-linejoin:round;stroke-miterlimit:10;" d="
			M397.02,147.904c0,0-6.761,0.243-7.851,12.672l0,0c-1.088-12.429-7.85-12.672-7.85-12.672l0,0c0,0,6.763-0.242,7.85-12.671l0,0
			C390.259,147.662,397.02,147.904,397.02,147.904L397.02,147.904z"/>
		<path style="stroke:#000000;stroke-width:3.276;stroke-linecap:round;stroke-linejoin:round;stroke-miterlimit:10;" d="
			M297.829,86.476c0,0-5.804,0.208-6.739,10.877l0,0c-0.934-10.669-6.738-10.877-6.738-10.877l0,0c0,0,5.805-0.208,6.738-10.877l0,0
			C292.025,86.268,297.829,86.476,297.829,86.476L297.829,86.476z"/>
		<path style="stroke:#000000;stroke-width:2.9994;stroke-linecap:round;stroke-linejoin:round;stroke-miterlimit:10;" d="
			M150.598,283.161c0,0-5.314,0.191-6.17,9.959l0,0c-0.855-9.768-6.17-9.959-6.17-9.959l0,0c0,0,5.315-0.19,6.17-9.958l0,0
			C145.284,282.971,150.598,283.161,150.598,283.161L150.598,283.161z"/>
		<path style="stroke:#000000;stroke-width:1.8663;stroke-linecap:round;stroke-linejoin:round;stroke-miterlimit:10;" d="
			M201.145,219.797c0,0-3.805,0.137-4.417,7.13h0.001c-0.614-6.993-4.418-7.13-4.418-7.13v-0.001c0,0,3.804-0.136,4.418-7.129
			h-0.001c0.612,6.993,4.417,7.129,4.417,7.129V219.797z"/>
		<path style="stroke:#000000;stroke-width:1.8663;stroke-linecap:round;stroke-linejoin:round;stroke-miterlimit:10;" d="
			M389.352,262.892c0,0-3.804,0.137-4.416,7.131h0.001c-0.614-6.994-4.419-7.131-4.419-7.131l0,0c0,0,3.805-0.137,4.419-7.13h-0.001
			C385.548,262.755,389.352,262.892,389.352,262.892L389.352,262.892z"/>
		<path style="stroke:#000000;stroke-width:1.8663;stroke-linecap:round;stroke-linejoin:round;stroke-miterlimit:10;" d="
			M392.352,182.837c0,0-3.805,0.137-4.417,7.13h0.001c-0.614-6.993-4.418-7.13-4.418-7.13v-0.001c0,0,3.804-0.136,4.418-7.13h-0.001
			C388.547,182.7,392.352,182.836,392.352,182.837L392.352,182.837z"/>
		<path style="stroke:#000000;stroke-width:1.8663;stroke-linecap:round;stroke-linejoin:round;stroke-miterlimit:10;" d="
			M260.422,161.89c0,0-3.805,0.137-4.417,7.13h0.001c-0.614-6.993-4.418-7.13-4.418-7.13v-0.001c0,0,3.804-0.136,4.418-7.13h-0.001
			C256.617,161.753,260.422,161.889,260.422,161.89L260.422,161.89z"/>
		<path style="stroke:#000000;stroke-width:1.8663;stroke-linecap:round;stroke-linejoin:round;stroke-miterlimit:10;" d="
			M416.898,193.406c0,0-3.805,0.137-4.417,7.13h0.001c-0.614-6.993-4.418-7.13-4.418-7.13v-0.001c0,0,3.804-0.136,4.418-7.13h-0.001
			C413.094,193.27,416.898,193.405,416.898,193.406L416.898,193.406z"/>
		<path style="stroke:#000000;stroke-width:1.8663;stroke-linecap:round;stroke-linejoin:round;stroke-miterlimit:10;" d="
			M302.647,410.513c0,0-3.805,0.137-4.417,7.129h0.001c-0.614-6.992-4.418-7.129-4.418-7.129v-0.002c0,0,3.804-0.135,4.418-7.129
			h-0.001c0.612,6.994,4.417,7.129,4.417,7.129V410.513z"/>
		<path style="stroke:#000000;stroke-width:1.8663;stroke-linecap:round;stroke-linejoin:round;stroke-miterlimit:10;" d="
			M321.765,325.372c0,0-3.805,0.137-4.417,7.129h0.001c-0.614-6.992-4.418-7.129-4.418-7.129v-0.002c0,0,3.804-0.135,4.418-7.129
			h-0.001c0.612,6.994,4.417,7.129,4.417,7.129V325.372z"/>
		<path style="stroke:#000000;stroke-width:1.8663;stroke-linecap:round;stroke-linejoin:round;stroke-miterlimit:10;" d="
			M258.591,332.502c0,0-3.805,0.137-4.417,7.129h0.001c-0.614-6.992-4.418-7.129-4.418-7.129V332.5c0,0,3.804-0.135,4.418-7.129
			h-0.001c0.612,6.994,4.417,7.129,4.417,7.129V332.502z"/>
		<path style="stroke:#000000;stroke-width:1.8663;stroke-linecap:round;stroke-linejoin:round;stroke-miterlimit:10;" d="
			M170.375,91.812c0,0-3.805,0.137-4.417,7.129h0.001c-0.614-6.992-4.418-7.129-4.418-7.129V91.81c0,0,3.804-0.135,4.418-7.129
			h-0.001c0.612,6.994,4.417,7.129,4.417,7.129V91.812z"/>
		<path style="stroke:#000000;stroke-width:1.8663;stroke-linecap:round;stroke-linejoin:round;stroke-miterlimit:10;" d="
			M202.767,149.286c0,0-3.805,0.137-4.417,7.129h0.001c-0.614-6.992-4.418-7.129-4.418-7.129v-0.002c0,0,3.804-0.135,4.418-7.129
			h-0.001c0.612,6.994,4.417,7.129,4.417,7.129V149.286z"/>
		<path style="stroke:#000000;stroke-width:2.066;stroke-linecap:round;stroke-linejoin:round;stroke-miterlimit:10;" d="
			M220.945,417.266c0,0-2.661,0.096-3.091,4.987l0,0c-0.429-4.892-3.091-4.987-3.091-4.987v-0.001c0,0,2.662-0.096,3.091-4.988l0,0
			c0.43,4.893,3.091,4.988,3.091,4.988V417.266z"/>
	</g>
</g>
</svg>
