<?xml version="1.0" encoding="utf-8"?>
<!-- Generator: Adobe Illustrator 27.5.0, SVG Export Plug-In . SVG Version: 6.00 Build 0)  -->
<svg version="1.1" xmlns="http://www.w3.org/2000/svg" xmlns:xlink="http://www.w3.org/1999/xlink" x="0px" y="0px"
	 viewBox="0 0 750 500" style="enable-background:new 0 0 750 500;" xml:space="preserve">
<g id="BACKGROUND">
	<rect style="fill:#FFFFFF;" width="750" height="500"/>
</g>
<g id="OBJECTS">
	<g>
		<path style="fill:none;stroke:#1E1E1E;stroke-width:2;stroke-linecap:round;stroke-linejoin:round;stroke-miterlimit:10;" d="
			M55.096,296.952c16.236-7.045,29.296-0.641,42.969,9.099c6.789,4.836,13.084,8.634,21.134,10.006
			c10.134,1.728,28.665,4.515,37.578-2.064c4.231-3.123,5.811-7.426,6.809-12.357c0.72-3.555-0.763-9.9,1.582-12.664
			c3.798-4.478,18.542-2.389,23.927-2.661c5.015-0.254,14.511,1.332,22.12,1.109c2.59-0.076,2.658-3.9,0.074-4.099
			c-7.775-0.597-17.578-0.427-24.926-1.207c-2.268-0.241-2.206-3.564,0.07-3.697c9.772-0.573,24.714,1.222,29.827-1.283
			c1.936-0.948,1.412-3.829-0.735-4.027c-7.157-0.66-13.225-0.439-19.915-0.379c-9.206,0.082-18.414,0.225-27.618-0.051
			c-5.025-0.15-5.432-0.851-5.486-5.72c-0.032-2.852,0.043-5.708,0.063-8.56c0.022-3.143,0.039-6.286,0.025-9.43
			c-0.011-2.593-0.303-5.211-0.289-7.784h-26.838c-1.925,1.171-2.402,1.579-3.502,2.448c-1.616,1.277-3.073,3.014-4.831,3.849
			c-0.1-0.699-0.176-1.612-0.176-2.338c0-2.119-0.065-4.235-0.065-6.357c0-2.587,0.024-5.174,0.043-7.761
			c0.009-1.293,0.014-2.587,0.021-3.88c0.001-0.247,0.148-2.881,0.676-2.815c3.165,0.394,5.008,4.09,7.664,5.87
			c3.575-0.143,9.215-0.271,12.79-0.388c4.241-0.139,8.565,0.212,12.77,0.01c2.087-0.1,1.865-0.175,1.923-2.237
			c0.103-3.601-0.386-7.454,0.232-10.961c7.505-1.036,15.463-0.616,23.039-0.774c3.861-0.081,7.721-0.166,11.581-0.298
			c2.01-0.069,4.021-0.149,6.03-0.248c0.88-0.044,4.374-0.776,5.013-0.288c-13.29-10.137-34.541-4.412-49.747-9.522
			c-13.783-4.632-18.766-22.558-17.321-35.813c2.311-21.196,16.336-29.625,36.461-30.366c16.591-0.611,32.668,8.955,30.986,27.806
			c-1.687,18.911-13.7,33.647-33.244,34.062c-5.908,0.125-17.061-0.41-14.316-9.327c1.879-6.102,13.506-7.831,11.356,0.68
			c-3.702,14.658-36.23-4.316-21.649-19.976c5.957-6.398,13.129,2.417,7.266,6.598c-7.953,5.672-10.976-7.492-10.277-12.028
			c0.968-6.284,7.037-16.618,15.316-13.85c10.023,3.351-1.836,11.819-4.605,3.68c-4.303-12.647,29.282-18.236,30.578-4.33
			c0.906,9.722-10.809,4.863-5.186-1.161c4.52-4.843,13.99,0.317,16.64,4.839c2.701,4.609,2.917,20.25-6.507,16.224
			c-8.366-3.574,2.489-11.594,6.689-5.277c3.203,4.818-4.745,13.844-8.215,16.631c-6.441,5.174-14.822,0.26-6.796-3.484
			c9.7-4.524,10.156,8.246,6.518,13.426c-5.508,7.843-17.046,9.216-25.49,12.341c-1.804,0.668-3.467,1.082-4.923,1.733
			c-2.936,1.314-2.506,5.617,0.638,6.296c3.853,0.832,8.586,0.291,12.079,0.284c22.528-0.046,31.059,1.069,53.588,0.739
			c17.219-0.252,36.937-2.642,46.416-19.081c8.588-14.892,7.806-43.586-11.661-49.53c-28.602-8.734-63.632,33.837-34.587,53.776
			c6.177,4.24,12.869,5.545,20.585,4.786c4.516-0.445,17.964-6.854,12.503-12.282c-1.389-1.38-3.883-0.563-4.088,1.385
			c-0.348,3.313,2.605,6.617,6.734,5.444c5.045-1.434,6.393-10.099,6.134-14.499c-0.154-2.609-2.78-12.794-7.514-8.841
			c-4.21,3.516,4.534,9.225,8.709,4.701c6.508-7.053-4.615-31.176-11.834-21.13c-3.628,5.048,3.009,9.498,5.168,2.656
			c1.78-5.644-3.969-9.392-8.496-10.491c-5.373-1.304-13.689-0.359-13.302,6.503c0.396,7.015,5.25,3.827,4.6-0.935
			c-0.183-1.338-1.36-2.334-2.71-2.344c-6.425-0.045-11.625,1.797-15.863,7.602c-2.096,2.871-5.351,17.285,2.284,14.249
			c5.135-2.042,1.915-9.235-3.756-7.427c-6.604,2.106-6.402,11.665-3.516,16.787c2.627,4.662,11.278,6.562,11.892,1.164
			c0.254-2.23-2.615-3.514-3.959-1.717c-2.21,2.957-0.444,9.832,2.107,12.111c7.188,6.419,23.532-4.086,16.269-6.284
			c-6.839-2.067-6.686,8.59-5.49,12.579c2.288,7.627,4.846,10.765,12.963,10.747c2.751-0.006,7.023-0.42,9.654,0.499
			c2.774,0.969,2.337,2.348,2.494,5.471c0.259,5.144-0.561,10.274,0.84,15.276c3.713,0.176,7.417-0.4,11.149-0.221
			c2.36,0.113,6.999,0.023,8.986-1.254c1.659-1.066,3.665-4.464,4.653-6.156c2.44-4.181,5.163-12.496,10.453-13.78
			c2.141-0.52,5.948-0.863,8.096-0.449c2.552,0.492-0.105,41.648-0.5,45.711c-0.39,4.014-0.783,10.416-2.038,14.215
			c-1.961,0.247-4.423,0.181-6.354-0.054c-1.19-0.145-3.511-0.439-4.531-1.115c-1.816-1.204-3.437-6.735-4.563-8.801
			c-1.36-2.496-4.694-7.643-7.165-8.816c-2.022-0.96-7.122-1.334-9.336-1.223c-3.64,0.183-7.443,0.075-11.121,0.291
			c0.146,4.112-0.435,8.511-0.779,12.622c-0.41,4.891-0.602,5.385-5.224,5.611c-13.146,0.642-26.486-0.213-39.695,0.28
			c-0.027,0.928-0.654,14.283-0.323,14.287c7.776,0.086,9.616,1.273,9.874,8.722c0.144,4.148,2.881,18.348,0.53,21.173
			c-3.628,4.361-24.614,1.465-30.164,1.465c-4.111,0-12.015,1.113-19.266,1.246c-4.243,0.078-4.674-6.129-0.466-6.688
			c11.238-1.493,23.685,0.121,34.32,0.121c4.231,0,16.652-1.902,20.902,0.643c11.646,6.976-8.557,38.068,7.035,44.645
			c7.79,3.286,21.73,1.164,30.229,1.273c9.242,0.119,18.721-2.181,27.925-2.669c2.163-7.932,0.69-13.789,2.262-21.795
			c1.669-8.503,4.558-9.035,13.668-9.46c8.013-0.374,20.247-1.75,23.435,6.305c2.517,6.36,1.565,17.93,1.424,24.95
			c5.378,0.332,11.027,0.28,16.408,0c2.118-8.9-1.524-20.884,2.164-28.929c3.312-7.224,23.565-6.636,29.545-3.657
			c7.334,3.654,4.464,18.892,4.987,26.249c0.238,3.349-0.706,5.066,2.834,6.336c4.115,1.477,12.167,1.265,16.265,0
			c0.158-6.974,0.115-13.551,0.362-20.595c0.18-5.123-0.928-9.618,4.947-10.81c7.063-1.434,15.304-1.533,22.552-1.215
			c5.286,0.231,8.149,1.117,9.488,6.632c2.063,8.499,0.787,17.36,1.275,25.989c6.234,2.276,14.092-0.373,20.544,0
			c0.27-6.475,0.565-12.142,0.286-18.676c-0.168-3.94-1.487-10.533,0.137-14.252c1.787-4.093,7.503-3.182,11.071-3.562
			c8.258-0.879,26.393-4.091,29.346,7.33c2.319,8.965,0.914,19.948,1.375,29.16c5.436,0.279,11.276,1.286,16.637,0
			c0.507-9.588-1.858-22.85,1.595-31.887c2.321-6.074,10.176-5.471,15.458-5.519c5.359-0.049,14.365-1.079,18.6,2.944
			c6.319,6.001,2.866,26.234,4.241,34.462c8.8,0.464,17.327,0.617,25.931,0c7.818-0.561,16.139,2.761,23.748,0
			c3.72-78.464-1.984-135.098,0.222-213.388c-32.957-1.637-65.678,1.724-98.571,1.729c-34.014,0.005-67.906,3.312-101.853,4.969
			c-23.52,1.148-49.292,4.08-72.726,2.563c-2.863,27.065-0.763,55.46-0.763,82.757c0,17.809-1.448,35.723-0.577,53.449
			c6.029,1.765,12.875,0.449,19.09,0.716c9.027,0.387,18.01,1.322,26.971,1.697c13.426,0.562,26.703,1.551,40.148,1.697
			c33.792,0.367,67.578,1.313,101.36,2.18c17.835,0.458,35.68,1.083,53.519,1.277c15.384,0.167,32.189,3.659,47.229-0.818
			c19.258-5.731,33.096-35.28,56.551-25.951"/>
	</g>
</g>
</svg>
