<svg xmlns="http://www.w3.org/2000/svg" xmlns:xlink="http://www.w3.org/1999/xlink" viewBox="0,0,256,256" width="48px" height="48px" fill-rule="nonzero"><g fill="none" fill-rule="nonzero" stroke="none" stroke-width="1" stroke-linecap="butt" stroke-linejoin="miter" stroke-miterlimit="10" stroke-dasharray="" stroke-dashoffset="0" font-family="none" font-weight="none" font-size="none" text-anchor="none" style="mix-blend-mode: normal"><g transform="scale(5.33333,5.33333)"><path d="M36,6h-24c-3.314,0 -6,2.686 -6,6v24c0,3.314 2.686,6 6,6h24c3.314,0 6,-2.686 6,-6v-24c0,-3.314 -2.686,-6 -6,-6z" fill="#061559"></path><path d="M36,40h-24c-2.209,0 -4,-1.791 -4,-4v-24c0,-2.209 1.791,-4 4,-4h24c2.209,0 4,1.791 4,4v24c0,2.209 -1.791,4 -4,4z" fill="#061559"></path><path d="M24.347,31.999h-2.129c-0.23,0 -0.431,-0.157 -0.486,-0.381l-0.735,-3.007c-0.055,-0.224 -0.255,-0.381 -0.486,-0.381h-3.816c-0.231,0 -0.432,0.158 -0.486,0.382l-0.727,3.005c-0.054,0.224 -0.255,0.382 -0.486,0.382h-2.106c-0.331,0 -0.57,-0.315 -0.482,-0.634l4.433,-15.945c0.06,-0.216 0.257,-0.366 0.482,-0.366h2.694c0.226,0 0.423,0.151 0.483,0.369l4.33,15.945c0.085,0.318 -0.154,0.631 -0.483,0.631zM19.599,25.3c0.324,0 0.563,-0.304 0.486,-0.619l-1.239,-5.077c-0.102,-0.425 -0.174,-0.934 -0.216,-1.524h-0.072c-0.03,0.497 -0.105,0.989 -0.226,1.477l-1.256,5.124c-0.077,0.315 0.161,0.619 0.486,0.619z" fill="#6ad1ed"></path><path d="M34.411,26.717h-4.966c-0.318,0 -0.55,0.297 -0.493,0.61c0.247,1.35 1.068,2.025 2.466,2.025c0.704,0 1.348,-0.151 1.934,-0.453c0.341,-0.176 0.746,0.048 0.746,0.431v1.49c0,0.174 -0.085,0.342 -0.234,0.433c-0.82,0.497 -1.851,0.746 -3.095,0.746c-1.492,0 -2.65,-0.542 -3.475,-1.625c-0.824,-1.083 -1.236,-2.594 -1.236,-4.532c0,-2.009 0.445,-3.6 1.336,-4.774c0.89,-1.174 1.985,-1.761 3.284,-1.761c1.348,0 2.39,0.524 3.127,1.572c0.736,1.048 1.105,2.47 1.105,4.266v1.072c0.001,0.277 -0.223,0.5 -0.499,0.5zM31.748,24.425c0.283,0 0.521,-0.237 0.501,-0.52c-0.101,-1.387 -0.63,-2.08 -1.588,-2.08c-0.458,0 -0.854,0.248 -1.187,0.744c-0.234,0.348 -0.404,0.757 -0.51,1.225c-0.072,0.32 0.16,0.631 0.487,0.631z" fill="#6ad1ed"></path></g></g></svg>